<svg width="57" height="56" viewBox="0 0 57 56" fill="none" xmlns="http://www.w3.org/2000/svg">
<path d="M41.9072 48.0671C39.296 50.5938 36.415 50.1999 33.669 49.0086C30.7495 47.7932 28.0805 47.7164 24.9972 49.0086C21.1576 50.661 19.1197 50.1807 16.8072 48.0671C3.75144 34.6649 5.67849 14.2493 20.5168 13.4807C24.1156 13.6729 26.6352 15.4646 28.755 15.6136C31.9057 14.9747 34.9216 13.1445 38.2939 13.3847C42.3456 13.7113 45.3759 15.3061 47.3993 18.1739C39.0647 23.1697 41.04 34.122 48.6952 37.1964C47.1632 41.2074 45.1976 45.1705 41.9023 48.1007L41.9072 48.0671ZM28.4659 13.3366C28.0757 7.38009 32.9174 2.48037 38.4866 2C39.2526 8.86923 32.2237 14.0091 28.4659 13.3366Z" fill="#5FCAE9"/>
</svg>
