<svg width="120" height="64" viewBox="0 0 120 64" fill="none" xmlns="http://www.w3.org/2000/svg">
<path fill-rule="evenodd" clip-rule="evenodd" d="M73.7023 48.0697C67.0037 52.9429 57.2945 55.5429 48.9351 55.5429C37.2138 55.5429 26.6617 51.264 18.6786 44.1473C18.0514 43.5877 18.6133 42.825 19.366 43.2608C27.9813 48.2083 38.6338 51.1847 49.6376 51.1847C57.0587 51.1847 65.2224 49.6693 72.7289 46.5245C73.8628 46.0491 74.8112 47.2575 73.7023 48.0697Z" fill="#5FCAE9"/>
<path fill-rule="evenodd" clip-rule="evenodd" d="M76.4869 44.9248C75.6339 43.8452 70.827 44.4147 68.6694 44.6673C68.0121 44.7465 67.9117 44.182 68.5038 43.7759C72.3323 41.1164 78.6144 41.884 79.347 42.7755C80.0796 43.6719 79.1563 49.8872 75.5586 52.8537C75.0067 53.3093 74.4798 53.0666 74.7257 52.4624C75.5336 50.4715 77.3449 46.0094 76.4869 44.9248Z" fill="#5FCAE9"/>
<path fill-rule="evenodd" clip-rule="evenodd" d="M68.8199 25.0011V22.4159C68.8199 22.0247 69.121 21.7622 69.4823 21.7622H81.2085C81.5849 21.7622 81.8859 22.0296 81.8859 22.4159V24.6297C81.8809 25.0011 81.5648 25.4864 81.0028 26.2541L74.9264 34.8168C77.1844 34.7624 79.5678 35.0942 81.615 36.2332C82.0766 36.4908 82.202 36.8671 82.2372 37.2386V39.9971C82.2372 40.3735 81.8157 40.8142 81.3741 40.5864C77.7664 38.7193 72.9746 38.5163 68.9855 40.6062C68.5791 40.8241 68.1526 40.3883 68.1526 40.0119V37.3921C68.1526 36.9711 68.1576 36.253 68.5841 35.6142L75.6239 25.6499H69.4973C69.121 25.6499 68.8199 25.3874 68.8199 25.0011Z" fill="#5FCAE9"/>
<path fill-rule="evenodd" clip-rule="evenodd" d="M26.0444 41.1312H22.4768C22.1356 41.1064 21.8647 40.8539 21.8396 40.532V22.4605C21.8396 22.099 22.1457 21.8118 22.527 21.8118H25.8537C26.2 21.8266 26.4759 22.0891 26.501 22.416V24.7783H26.5662C27.4343 22.4952 29.065 21.4304 31.2628 21.4304C33.4956 21.4304 34.8905 22.4952 35.8941 24.7783C36.7571 22.4952 38.719 21.4304 40.8214 21.4304C42.3167 21.4304 43.9524 22.0396 44.951 23.4064C46.0799 24.9268 45.8491 27.1356 45.8491 29.072L45.8441 40.4775C45.8441 40.839 45.538 41.1312 45.1567 41.1312H41.5941C41.2379 41.1064 40.9519 40.8242 40.9519 40.4775V30.8995C40.9519 30.1368 41.0221 28.2351 40.8515 27.512C40.5856 26.2987 39.7878 25.9569 38.7541 25.9569C37.8911 25.9569 36.9879 26.5265 36.6216 27.4377C36.2553 28.349 36.2905 29.8743 36.2905 30.8995V40.4775C36.2905 40.839 35.9844 41.1312 35.603 41.1312H32.0405C31.6792 41.1064 31.3982 40.8242 31.3982 40.4775L31.3932 30.8995C31.3932 28.8838 31.7294 25.9173 29.1955 25.9173C26.6315 25.9173 26.7318 28.8095 26.7318 30.8995V40.4775C26.7318 40.839 26.4257 41.1312 26.0444 41.1312" fill="#5FCAE9"/>
<path fill-rule="evenodd" clip-rule="evenodd" d="M91.9814 21.4304C97.275 21.4304 100.14 25.9173 100.14 31.6225C100.14 37.1346 96.974 41.5076 91.9814 41.5076C86.7831 41.5076 83.9531 37.0207 83.9531 31.4294C83.9531 25.8034 86.8182 21.4304 91.9814 21.4304ZM92.0114 25.12C89.3822 25.12 89.2166 28.656 89.2166 30.8599C89.2166 33.0686 89.1815 37.7834 91.9813 37.7834C94.7461 37.7834 94.8765 33.9799 94.8765 31.6621C94.8765 30.1368 94.8113 28.3143 94.3446 26.8682C93.9432 25.6103 93.1454 25.12 92.0114 25.12Z" fill="#5FCAE9"/>
<path fill-rule="evenodd" clip-rule="evenodd" d="M107.004 41.1312H103.452C103.095 41.1064 102.809 40.8242 102.809 40.4775L102.804 22.4011C102.835 22.0693 103.131 21.8118 103.492 21.8118H106.799C107.11 21.8266 107.365 22.0346 107.436 22.3169V25.0804H107.501C108.499 22.6091 109.899 21.4304 112.363 21.4304C113.964 21.4304 115.524 22 116.528 23.56C117.461 25.0061 117.461 27.4377 117.461 29.1859V40.5617C117.421 40.8786 117.125 41.1312 116.774 41.1312H113.196C112.87 41.1064 112.599 40.8687 112.564 40.5617V30.746C112.564 28.7699 112.795 25.8777 110.331 25.8777C109.463 25.8777 108.665 26.4522 108.269 27.3238C107.767 28.4282 107.702 29.5277 107.702 30.746V40.4775C107.697 40.839 107.386 41.1312 107.004 41.1312" fill="#5FCAE9"/>
<path fill-rule="evenodd" clip-rule="evenodd" d="M59.4723 32.4991C59.4723 33.8709 59.5074 35.0149 58.8049 36.2332C58.2379 37.2237 57.3347 37.8329 56.3362 37.8329C54.9664 37.8329 54.1636 36.8028 54.1636 35.2824C54.1636 32.2812 56.8882 31.7364 59.4723 31.7364V32.4991ZM63.0699 41.0817C62.834 41.2897 62.4928 41.3045 62.2269 41.1659C61.0427 40.1952 60.827 39.7445 60.1797 38.8184C58.2228 40.7895 56.8329 41.3788 54.299 41.3788C51.2934 41.3788 48.9602 39.5514 48.9602 35.8915C48.9602 33.034 50.5257 31.0877 52.7636 30.1368C54.7004 29.2949 57.4049 29.1463 59.4722 28.9135V28.4579C59.4722 27.621 59.5374 26.6305 59.0357 25.9074C58.6041 25.2586 57.7712 24.9912 57.0336 24.9912C55.6738 24.9912 54.4646 25.6796 54.1685 27.1059C54.1083 27.4229 53.8725 27.7349 53.5463 27.7497L50.0892 27.3832C49.7982 27.3189 49.472 27.0861 49.5573 26.6453C50.3501 22.5051 54.1435 21.2571 57.5354 21.2571C59.2715 21.2571 61.5395 21.7127 62.9093 23.0102C64.6454 24.6099 64.4798 26.7444 64.4798 29.0671V34.5544C64.4798 36.2035 65.1723 36.9266 65.8246 37.818C66.0504 38.135 66.1005 38.5163 65.8095 38.754C65.0819 39.3533 63.7874 40.4676 63.0749 41.0916L63.0699 41.0817" fill="#5FCAE9"/>
<path fill-rule="evenodd" clip-rule="evenodd" d="M12.7025 32.4991C12.7025 33.8709 12.7376 35.0149 12.0352 36.2332C11.4682 37.2237 10.57 37.8329 9.56648 37.8329C8.19666 37.8329 7.39885 36.8028 7.39885 35.2824C7.39885 32.2812 10.1234 31.7364 12.7025 31.7364V32.4991ZM16.3001 41.0817C16.0643 41.2897 15.7231 41.3045 15.4571 41.1659C14.273 40.1952 14.0622 39.7445 13.4099 38.8184C11.453 40.7895 10.0682 41.3788 7.52922 41.3788C4.52866 41.3788 2.19043 39.5514 2.19043 35.8915C2.19043 33.034 3.76096 31.0877 5.99382 30.1368C7.93063 29.2949 10.6352 29.1463 12.7024 28.9135V28.4579C12.7024 27.621 12.7677 26.6305 12.2709 25.9074C11.8344 25.2586 11.0014 24.9912 10.2689 24.9912C8.90908 24.9912 7.6948 25.6796 7.39876 27.1059C7.33855 27.4229 7.10272 27.7349 6.78159 27.7497L3.3194 27.3832C3.02838 27.3189 2.70725 27.0861 2.78753 26.6453C3.58534 22.5051 7.37367 21.2571 10.7656 21.2571C12.5017 21.2571 14.7697 21.7127 16.1395 23.0102C17.8756 24.6099 17.7101 26.7444 17.7101 29.0671V34.5544C17.7101 36.2035 18.4025 36.9266 19.0548 37.818C19.2856 38.135 19.3358 38.5163 19.0448 38.754C18.3172 39.3533 17.0226 40.4676 16.3101 41.0916L16.3001 41.0817" fill="#5FCAE9"/>
</svg>
