<svg width="97" height="56" viewBox="0 0 97 56" fill="none" xmlns="http://www.w3.org/2000/svg">
<path d="M94.5431 38.5417C94.5441 38.5417 94.5451 38.5417 94.5472 38.5417C94.779 38.5417 94.9701 38.3508 94.9701 38.1188C94.9701 38.1106 94.9701 38.1025 94.9691 38.0944C94.9691 37.7772 94.778 37.6256 94.3847 37.6256H93.7504V39.2866H93.9894V38.5625H94.2826L94.2887 38.5713L94.7443 39.2866H94.9997L94.5104 38.5463L94.5431 38.5417ZM94.2662 38.3753H93.9894V37.8138H94.3408C94.5216 37.8138 94.728 37.8434 94.728 38.0807C94.728 38.3535 94.5196 38.3753 94.2652 38.3753H94.2662ZM1.57153 20.38H5.09402V33.2112H11.6155V36.4619H1.57153V20.38ZM13.1728 25.5579H16.5569V36.4559H13.1728V25.5579ZM14.8648 20.1399C15.9416 20.1401 16.8276 21.0262 16.8276 22.103C16.8276 23.1799 15.9414 24.0661 14.8645 24.0661C13.7876 24.0661 12.9014 23.1799 12.9014 22.103C12.9014 21.0261 13.7876 20.1399 14.8645 20.1399C14.8646 20.1399 14.8647 20.1399 14.8648 20.1399ZM30.7127 20.3775H34.0968V29.9885L37.9321 25.553H42.0811L37.6395 30.5984L41.9876 36.4605H37.7343L34.1419 31.0735H34.0975V36.4598H30.7134L30.7127 20.3775ZM18.4332 25.559H21.683V27.0483H21.7291C22.3896 25.9167 23.6241 25.2385 24.9334 25.2879C28.3651 25.2879 28.9967 27.5457 28.9967 30.4788V36.4552H25.6127V31.1567C25.6127 29.892 25.5895 28.2662 23.8502 28.2662C22.0912 28.2662 21.8198 29.6434 21.8198 31.0647V36.4539H18.4357L18.4332 25.559Z" fill="#D5D8DD"/>
<path d="M49.2125 29.739C49.2128 29.7231 49.213 29.707 49.213 29.6911C49.213 28.578 48.2971 27.6621 47.184 27.6621C47.1675 27.6621 47.1512 27.6623 47.1347 27.6627C45.9125 27.5866 44.8396 28.5181 44.7434 29.739H49.2125ZM52.079 34.5682C50.9409 35.9484 49.24 36.7453 47.4513 36.7366C44.0672 36.7366 41.3579 34.4776 41.3579 30.9798C41.3579 27.4819 44.0669 25.2241 47.4513 25.2241C50.6143 25.2241 52.5979 27.4801 52.5979 30.9798V32.0408H44.7434C44.9447 33.2794 46.0392 34.19 47.2937 34.1626C48.2714 34.1565 49.1819 33.6544 49.7087 32.8308L52.079 34.5682ZM59.6515 28.1918C57.9595 28.1918 56.9443 29.3216 56.9443 30.9678C56.9443 32.614 57.9591 33.7448 59.6515 33.7448C61.3439 33.7448 62.3613 32.6168 62.3613 30.9678C62.3613 29.3187 61.3456 28.1918 59.6515 28.1918ZM65.4767 36.4535H62.3613V35.0082H62.3151C61.5234 36.073 60.2775 36.7085 58.9507 36.7242C55.6993 36.7242 53.5574 34.3775 53.5574 31.059C53.5574 28.0114 55.4529 25.2127 58.5686 25.2127C59.9691 25.2127 61.2773 25.5959 62.0447 26.658H62.0891V20.376H65.4763L65.4767 36.4535ZM88.3222 36.4598H84.9381V31.1603C84.9381 29.8965 84.9155 28.2697 83.1781 28.2697C81.4155 28.2697 81.1458 29.6466 81.1458 31.0682V36.4594H77.7618V25.5614H81.0105V27.0507H81.056C81.7175 25.9198 82.9519 25.2418 84.2613 25.2904C87.6912 25.2904 88.3236 27.5464 88.3236 30.4814L88.3222 36.4598ZM73.9435 24.0717C73.9433 24.0717 73.9432 24.0717 73.9431 24.0717C72.8658 24.0717 71.9793 23.1853 71.9793 22.108C71.9793 21.0306 72.8658 20.1442 73.9431 20.1442C75.0203 20.1442 75.9067 21.0304 75.9069 22.1076C75.9069 22.1077 75.9069 22.1078 75.9069 22.108C75.9069 23.1851 75.0206 24.0716 73.9435 24.0717ZM75.6355 36.4598H72.248V25.5614H75.6355V36.4598ZM90.0091 17.0016H70.5474C69.6338 16.9913 68.8733 17.7341 68.8622 18.6477V38.1902C68.8729 39.1043 69.6333 39.848 70.5474 39.8382H90.0091C90.9255 39.8497 91.6886 39.1061 91.7008 38.1902V18.6464C91.6886 17.7309 90.9244 16.9881 90.0091 17.0001V17.0016ZM94.3006 36.8853C93.4517 36.8935 92.7581 37.5939 92.7581 38.4426C92.7581 39.297 93.4609 40 94.3149 40C95.17 40 95.8728 39.297 95.8728 38.4426C95.8728 37.5939 95.1792 36.8935 94.3303 36.8853H94.3006ZM94.3006 39.8216C94.2925 39.8217 94.2853 39.8218 94.2772 39.8218C93.5284 39.8218 92.9124 39.2054 92.9124 38.4562C92.9124 37.7071 93.5284 37.0906 94.2772 37.0906C95.0178 37.0906 95.6307 37.693 95.643 38.4335V38.4564C95.6583 39.1892 95.0688 39.8051 94.3364 39.8209H94.3006" fill="#D5D8DD"/>
</svg>
