<svg width="53" height="56" viewBox="0 0 53 56" fill="none" xmlns="http://www.w3.org/2000/svg">
<path d="M26.8587 6.5938C20.9496 6.5938 15.5982 8.99063 11.7237 12.868C7.8478 16.7366 5.45245 22.0909 5.45245 28.003C5.45245 33.9106 7.8478 39.2612 11.7237 43.1312C15.5982 47.0035 20.9496 49.4047 26.8587 49.4047C32.7692 49.4047 38.1235 47.0035 41.9921 43.1312C45.8666 39.2612 48.2567 33.9106 48.2567 28.003C48.2567 22.0909 45.8666 16.7366 41.9921 12.868C38.1235 8.99063 32.7692 6.5938 26.8587 6.5938ZM26.8587 4C40.1117 4 50.8572 14.747 50.8572 28.003C50.8572 41.2545 40.1117 52 26.8587 52C13.6071 52 2.85718 41.2545 2.85718 28.003C2.85718 14.747 13.6071 4 26.8587 4Z" fill="#D5D8DD"/>
<path d="M15.5077 27.8074C15.5077 26.4087 14.5797 25.6142 13.2658 25.6142H12.4617V30.0021H13.2429C14.4646 30.0021 15.5077 29.3382 15.5077 27.8074ZM29.8112 29.3861L23.8874 34.0507L18.4733 29.7882C17.6921 31.6649 15.8043 32.9684 13.6302 32.9684H8.99667V22.6464H13.6302C16.0595 22.6464 17.8101 24.1911 18.4718 25.837L23.8874 21.5789L25.8932 23.1576L20.9299 27.0586L21.8838 27.8052L26.8456 23.9064L28.8544 25.4806L23.8918 29.3861L24.8442 30.1341L29.8112 26.228V22.6464H33.412V29.9556H37.0039V32.981H29.8112V29.3861ZM41.5652 29.9571H45.1556V32.981H37.9607V22.6464H41.5652V29.9571Z" fill="#D5D8DD"/>
</svg>
