<svg id="Layer_1" data-name="Layer 1" xmlns="http://www.w3.org/2000/svg" viewBox="0 0 600 164.3">
  <defs>
    <style>
      .cls-1 {
        fill: #003c75;
      }

      .cls-2 {
        fill: #0088b8;
      }
    </style>
  </defs>
  <path class="cls-1" d="M235.75,97.3C214.48,89.7,192,84.68,169,84.44a157.1,157.1,0,0,0-25.54,1.85c24.08,13.22,40.45,46.59,50.24,73.77,9.39-29,23.4-58.78,42-62.77"/>
  <path class="cls-1" d="M0,154.8v8H47.14C54.27,144.4,64,123.92,76.31,108,47.4,121.58,20.83,139.1,0,154.8"/>
  <path class="cls-1" d="M120,100.88c-23.13-.65-47.95,32-65.45,61.88H185.09C169,135,145,101.57,120,100.88"/>
  <path class="cls-1" d="M239,116c-13.6-.5-28.05,22.34-39.42,46.75H259.2v-33C252.81,121.66,246,116.28,239,116"/>
  <path class="cls-2" d="M0,0V139.88c34.16-34.51,89.44-73.63,165.89-75.76,36.21-1,67.18,5.69,93.31,16.3V0Z"/>
  <path class="cls-1" d="M291.17,37.29V1.14h19.67l-.68,4.14h-13.9v11H307.9v4.25H296.31V32.94h15.11v4.35Z"/>
  <path class="cls-1" d="M335.61,38.18a6.18,6.18,0,0,1-2.47-3.78,9.65,9.65,0,0,1-7.92,3.78c-3.36,0-6-1.52-7.08-3.93a11.2,11.2,0,0,1-.63-4.41V11.16l4.78-.94V28.53c0,2.68.26,3.72,1.21,4.62a4.8,4.8,0,0,0,3,1.15,7.24,7.24,0,0,0,6-4.14V11.27l4.78-.95V30.1c0,2.68.58,4.56,1.63,5.46Z"/>
  <path class="cls-1" d="M358.38,15.26A3.84,3.84,0,0,0,357,15a5.5,5.5,0,0,0-5.46,5.35V37.29h-4.83V18a17,17,0,0,0-1-6.56l4.67-1.21a10.78,10.78,0,0,1,.89,4v.47c2.1-3,4.36-4.57,7.13-4.57a4.76,4.76,0,0,1,1.63.26Z"/>
  <path class="cls-1" d="M374.32,38c-7,0-11.39-5.35-11.39-13.9s4.36-13.85,11.28-13.85c7.76,0,11.54,6.19,11.54,14.11C385.76,32.73,381.3,38,374.32,38Zm-.11-24c-4.19,0-5.93,3-5.93,9.6,0,8,2,10.7,6.14,10.7,3.67,0,5.93-2.83,5.93-9.71,0-8.13-2.35-10.59-6.14-10.59Z"/>
  <path class="cls-1" d="M404.8,37.82a10.1,10.1,0,0,1-6.8-2.73,26.26,26.26,0,0,1,.1,2.94v9.23l-4.72,1.1V17.46A27.92,27.92,0,0,0,392.8,11l4.67-.79a13.72,13.72,0,0,1,.32,3.78,9.53,9.53,0,0,1,7.45-3.67c5.35,0,9.87,4.35,9.87,13.38C415.08,31.89,411.51,37.82,404.8,37.82Zm-.42-23.4a8.24,8.24,0,0,0-6.3,3.25V31a8.19,8.19,0,0,0,5.61,2.89c4.25,0,6.19-3.25,6.19-9.65,0-6.24-1.35-9.82-5.5-9.82Z"/>
  <path class="cls-1" d="M426.78,25.17v.63a10,10,0,0,0,1.1,5.25,6.85,6.85,0,0,0,6,3.09,9.36,9.36,0,0,0,6.45-2.52l1.84,2.89a13.41,13.41,0,0,1-9.08,3.36c-7.29,0-11.75-5.3-11.75-13.9,0-4.57.9-7.5,3.15-10.18a9.79,9.79,0,0,1,7.92-3.62A9.49,9.49,0,0,1,439.58,13c2.31,2.36,3.15,5.3,3.2,11.33v.84Zm9.34-9.5a4.73,4.73,0,0,0-3.78-1.84c-3.67,0-5.51,3-5.51,7.77h10.91a9.63,9.63,0,0,0-1.62-5.92Z"/>
  <path class="cls-1" d="M467.28,38.39a6,6,0,0,1-3.52-3.78,9.14,9.14,0,0,1-7.45,3.46c-5.24,0-8.5-2.68-8.5-7.71,0-6.09,4.88-9.34,13.38-9.34.63,0,1.16,0,1.84.05V19.35c0-3.09-.42-5.19-4.09-5.19a14.48,14.48,0,0,0-8.08,3l-2.2-3.46c2.57-1.47,5.93-3.46,11-3.46,3.83,0,6.61,1.42,7.61,4.2A11.94,11.94,0,0,1,467.8,19c0,1.89-.21,5.93-.21,9.76,0,3.62.11,5.09,2.15,6.35Zm-5.93-14.11c-3.62,0-5.82.68-6.87,1.89A5.07,5.07,0,0,0,453.11,30c0,2.89,1.47,4.56,4.15,4.56a6.53,6.53,0,0,0,5.51-3.46l.16-6.72C462.19,24.33,461.77,24.28,461.35,24.28Z"/>
  <path class="cls-1" d="M491.93,37.29V19.56c0-2.36-.21-3.2-.84-4a3.24,3.24,0,0,0-2.68-1c-1.89,0-4.72,1.47-6.5,3.36V37.29h-4.78V17.72a14.46,14.46,0,0,0-1-6.24l4.56-1.26a8.28,8.28,0,0,1,.89,4A24.18,24.18,0,0,1,485,11.69a9.73,9.73,0,0,1,4.88-1.31,6.58,6.58,0,0,1,6.19,3.72,8.37,8.37,0,0,1,.63,3.31V37.29Z"/>
  <path class="cls-2" d="M321.55,106.28a6.71,6.71,0,0,1-3,.52c-2.41,0-5.14-1.68-6.72-2.68a20.5,20.5,0,0,0-7.61-3.36A12.78,12.78,0,0,1,293.8,96c-2.84-3.36-4.2-8.13-4.2-14,0-7.87,2.68-14,7.4-16.73a14,14,0,0,1,7.19-1.78,13.33,13.33,0,0,1,11.38,5.61c2.31,3.31,3.52,7.61,3.52,13.27,0,6.77-1.78,11.28-5.14,14.64a12.82,12.82,0,0,1-2.52,2,33.34,33.34,0,0,1,4.51,2.36,9.38,9.38,0,0,0,4.78,1.52,12.16,12.16,0,0,0,2.25-.21Zm-9.81-33.94a7.76,7.76,0,0,0-7.55-4.93,8.1,8.1,0,0,0-7.08,3.88c-1.31,2.46-1.89,5.61-1.89,10.18,0,5.82,1,10.34,2.67,12.43a8.33,8.33,0,0,0,6.61,3,7.23,7.23,0,0,0,6.4-3.2c1.57-2.25,2.36-5.46,2.36-10.91,0-4.79-.52-8.05-1.52-10.46Z"/>
  <path class="cls-2" d="M344.79,101.13a6.18,6.18,0,0,1-2.47-3.78,9.65,9.65,0,0,1-7.92,3.78c-3.36,0-6-1.52-7.08-3.93a11.2,11.2,0,0,1-.63-4.41V74.11l4.78-.94V91.48c0,2.68.26,3.72,1.21,4.62a4.8,4.8,0,0,0,3,1.15,7.24,7.24,0,0,0,6-4.14V74.22l4.78-1V93.05c0,2.68.58,4.56,1.63,5.46Z"/>
  <path class="cls-2" d="M373.54,101.34A6,6,0,0,1,370,97.57a9.14,9.14,0,0,1-7.45,3.46c-5.24,0-8.5-2.68-8.5-7.71,0-6.09,4.88-9.34,13.38-9.34.63,0,1.16,0,1.84,0V82.3c0-3.09-.42-5.19-4.09-5.19a14.48,14.48,0,0,0-8.08,3l-2.2-3.46c2.57-1.47,5.93-3.46,11-3.46,3.83,0,6.61,1.42,7.61,4.2A12,12,0,0,1,374,82c0,1.89-.21,5.93-.21,9.76,0,3.62.11,5.09,2.15,6.35ZM367.6,87.23c-3.62,0-5.82.68-6.87,1.89A5.08,5.08,0,0,0,359.37,93c0,2.89,1.47,4.56,4.15,4.56A6.53,6.53,0,0,0,369,94.05l.16-6.72C368.44,87.28,368,87.23,367.6,87.23Z"/>
  <path class="cls-2" d="M388.49,100.77a4.44,4.44,0,0,1-4.09-2c-.79-1.1-1-2-1-4.56V70.39a34.15,34.15,0,0,0-.58-7.55l5-1a32.49,32.49,0,0,1,.47,7.5V93c0,2.78.16,3.41.68,3.88a1.73,1.73,0,0,0,1.63.37l.84,3A7.08,7.08,0,0,1,388.49,100.77Z"/>
  <path class="cls-2" d="M400.23,69.34a3.4,3.4,0,0,1-3.36-3.44v0a3.44,3.44,0,1,1,6.87-.37,2.29,2.29,0,0,1,0,.37A3.51,3.51,0,0,1,400.23,69.34Zm-2.47,30.9V74.11l5-.79v26.91Z"/>
  <path class="cls-2" d="M427.72,100.24V77.37H417.07v22.87h-4.88V77.37h-2.52V74h2.57c0-.52-.11-3.78-.11-4.2a7.66,7.66,0,0,1,3-6.56A7.74,7.74,0,0,1,419.85,62a10.67,10.67,0,0,1,5.51,1.26l-1.63,3.15a8,8,0,0,0-3.2-.84c-2.2,0-3.52,1.52-3.52,4.2V74H432.7v26.29Zm2.47-30.9a3.45,3.45,0,0,1-3.41-3.46,3.48,3.48,0,1,1,3.42,3.48Z"/>
  <path class="cls-2" d="M451.49,100.77c-3.78,0-6.61-1.31-8.45-3.93s-2.52-5.51-2.52-9.5c0-5.93,1.89-9.34,4.41-11.59a10.3,10.3,0,0,1,14,.11l-2.52,3.3a6.35,6.35,0,0,0-4.62-2A5.05,5.05,0,0,0,447.17,80c-.89,1.78-1.26,4.41-1.26,8s.74,6.09,2.1,7.55a5.08,5.08,0,0,0,3.78,1.57,7.36,7.36,0,0,0,5.46-2.73l2.36,3A10.37,10.37,0,0,1,451.49,100.77Z"/>
  <path class="cls-2" d="M483.28,101.34a6,6,0,0,1-3.52-3.78,9.13,9.13,0,0,1-7.45,3.46c-5.24,0-8.5-2.68-8.5-7.71,0-6.09,4.88-9.34,13.38-9.34.63,0,1.16,0,1.84,0V82.3c0-3.09-.42-5.19-4.09-5.19a14.48,14.48,0,0,0-8.08,3l-2.2-3.46c2.57-1.47,5.93-3.46,11-3.46,3.83,0,6.61,1.42,7.61,4.2A12.19,12.19,0,0,1,483.8,82c0,1.89-.21,5.93-.21,9.76,0,3.62.1,5.09,2.15,6.35Zm-5.93-14.11c-3.62,0-5.82.68-6.87,1.89A5.09,5.09,0,0,0,469.11,93c0,2.89,1.47,4.56,4.15,4.56a6.53,6.53,0,0,0,5.51-3.46l.16-6.72A11.84,11.84,0,0,0,477.35,87.23Z"/>
  <path class="cls-2" d="M503.05,77.37h-5.19V93.21c0,3.25.79,4.25,3.41,4.25a5.86,5.86,0,0,0,2.47-.52l.58,2.94a10.41,10.41,0,0,1-4.78,1.1,7.3,7.3,0,0,1-4.46-1.31c-1.1-1-1.94-1.52-1.94-5.35V77.37H490V74h3.15a55.89,55.89,0,0,1,.32-6.72l5-1.15A71,71,0,0,0,498,74h6.4Z"/>
  <path class="cls-2" d="M512.86,69.34a3.4,3.4,0,0,1-3.36-3.44v0a3.44,3.44,0,0,1,6.87-.37,2.29,2.29,0,0,1,0,.37A3.51,3.51,0,0,1,512.86,69.34Zm-2.47,30.9V74.11l5-.79v26.91Z"/>
  <path class="cls-2" d="M534.37,101c-7,0-11.38-5.35-11.38-13.9s4.36-13.85,11.28-13.85c7.76,0,11.54,6.19,11.54,14.11C545.81,95.68,541.35,101,534.37,101Zm-.1-24c-4.19,0-5.93,3-5.93,9.6,0,8,2,10.7,6.14,10.7,3.67,0,5.93-2.83,5.93-9.71C540.4,79.41,538,77,534.26,77Z"/>
  <path class="cls-2" d="M568.21,100.24V82.51c0-2.36-.21-3.2-.84-4a3.24,3.24,0,0,0-2.68-1c-1.89,0-4.72,1.47-6.5,3.36v19.46h-4.78V80.67a14.46,14.46,0,0,0-1-6.24L557,73.17a8.28,8.28,0,0,1,.89,4,23.61,23.61,0,0,1,3.41-2.57,9.73,9.73,0,0,1,4.88-1.31A6.58,6.58,0,0,1,572.37,77a8.37,8.37,0,0,1,.63,3.31V100.2Z"/>
  <path class="cls-2" d="M589.67,101a19.92,19.92,0,0,1-9.81-2.78l1.73-3.46a17.88,17.88,0,0,0,8.41,2.6c2.89,0,4.88-1.68,4.88-4.25,0-2.26-1.36-3.57-4.41-4.15l-3.2-.63c-4.15-.84-6.4-3.41-6.4-7.29,0-4.83,3.83-8.18,9.5-8.18A16.72,16.72,0,0,1,598.69,75l-1.62,3.41a14.24,14.24,0,0,0-6.45-1.89c-2.78,0-4.56,1.57-4.56,3.93,0,1.89,1,2.94,3.73,3.57l3.41.79c4.8,1.11,6.8,3.89,6.8,7.35C600,97.41,595.8,101,589.67,101Z"/>
  <path class="cls-2" d="M309.32,131.19H296.26v11H307v4.09H296.3v16.95h-5.09V127H310Z"/>
  <path class="cls-2" d="M326.11,141.16a4,4,0,0,0-1.36-.26,5.5,5.5,0,0,0-5.46,5.35V163.2h-4.83V143.89a17,17,0,0,0-1-6.56l4.67-1.21a10.78,10.78,0,0,1,.89,4v.47c2.1-3,4.36-4.57,7.13-4.57a4.76,4.76,0,0,1,1.63.26Z"/>
  <path class="cls-2" d="M349.93,164.3a6,6,0,0,1-3.52-3.78A9.15,9.15,0,0,1,339,164c-5.24,0-8.5-2.68-8.5-7.71,0-6.09,4.88-9.34,13.38-9.34.63,0,1.16,0,1.84.05v-1.73c0-3.09-.42-5.19-4.09-5.19a14.48,14.48,0,0,0-8.08,3l-2.2-3.46c2.57-1.47,5.93-3.46,11-3.46,3.83,0,6.61,1.42,7.61,4.2a12,12,0,0,1,.52,4.62c0,1.89-.21,5.93-.21,9.76,0,3.62.11,5.09,2.15,6.35ZM344,150.18c-3.62,0-5.82.68-6.87,1.89a5.06,5.06,0,0,0-1.36,3.83c0,2.89,1.47,4.56,4.15,4.56a6.53,6.53,0,0,0,5.51-3.46l.16-6.72C344.84,150.24,344.42,150.18,344,150.18Z"/>
  <path class="cls-2" d="M387.86,163.19V144.36c0-3-.95-4-3.15-4-2.41,0-4.15,1.57-6.14,3.57v19.31h-4.72V144.46c0-2.94-.84-4-3.25-4-1.78,0-3.78.89-6,3v19.73h-4.78v-19.3c0-3.72-.21-4.72-.95-6.56l4.51-1.1a7.46,7.46,0,0,1,.89,3.67c2.25-2.36,4.93-3.72,7.4-3.72a6.79,6.79,0,0,1,6.24,4.15c2.62-2.78,5.35-4.15,8-4.15,4.09,0,6.72,2.57,6.72,7.4V163.2Z"/>
  <path class="cls-2" d="M405.9,151.08v.63A9.92,9.92,0,0,0,407,157a6.85,6.85,0,0,0,6,3.09,9.36,9.36,0,0,0,6.45-2.52l1.84,2.89a13.41,13.41,0,0,1-9.08,3.36c-7.29,0-11.75-5.3-11.75-13.9,0-4.57.9-7.5,3.15-10.18a9.79,9.79,0,0,1,7.92-3.62,9.47,9.47,0,0,1,7.13,2.83c2.31,2.36,3.15,5.3,3.2,11.33v.84Zm9.34-9.5a4.73,4.73,0,0,0-3.78-1.84c-3.67,0-5.51,3-5.51,7.77h10.91A9.67,9.67,0,0,0,415.24,141.58Z"/>
  <path class="cls-2" d="M453,163.4h-4.67l-3.83-14.32c-.47-1.84-1.62-6.19-1.62-6.19h-.16s-1,4.46-1.42,5.88l-3.93,14.64h-4.62l-7.19-26.28,4.88-.79,3.36,14.74c.58,2.62,1.36,6.45,1.36,6.45h.16s.58-3.72,1.21-6l4-14.64h5l3.67,14.22c.74,2.83,1.47,6.4,1.47,6.4h.21s.84-4.51,1.21-6.24l3.25-14.38h5Z"/>
  <path class="cls-2" d="M475.46,163.93c-7,0-11.38-5.35-11.38-13.9s4.36-13.85,11.28-13.85c7.76,0,11.54,6.19,11.54,14.11C486.9,158.63,482.44,163.93,475.46,163.93Zm-.1-24c-4.19,0-5.93,3-5.93,9.6,0,8,2,10.7,6.14,10.7,3.67,0,5.93-2.83,5.93-9.71,0-8.15-2.37-10.62-6.14-10.62Z"/>
  <path class="cls-2" d="M506.15,141.16a3.91,3.91,0,0,0-1.36-.26,5.5,5.5,0,0,0-5.46,5.35V163.2H494.5V143.89a17,17,0,0,0-1-6.56l4.67-1.21a10.78,10.78,0,0,1,.89,4v.47c2.1-3,4.36-4.57,7.13-4.57a4.76,4.76,0,0,1,1.63.26Z"/>
  <path class="cls-2" d="M512.81,163.19V131.82a22.07,22.07,0,0,0-.68-6l4.88-1.15a28,28,0,0,1,.63,5.77v32.74Zm16.16,0-10.81-15,8.66-11.39h5.88L523.3,148,535,163.19Z"/>
</svg>
