<svg width="80" height="56" viewBox="0 0 80 56" fill="none" xmlns="http://www.w3.org/2000/svg">
<path fill-rule="evenodd" clip-rule="evenodd" d="M50.0489 4H28.9758C27.0359 4 25.4636 5.57229 25.4636 7.5122V28.5854C25.4636 30.5253 27.0359 32.0976 28.9758 32.0976H50.0489C51.9888 32.0976 53.5611 30.5253 53.5611 28.5854V7.5122C53.5611 5.57346 51.9888 4 50.0489 4ZM43.2587 9.15123C43.2587 8.63377 43.679 8.21465 44.1953 8.21465C44.7128 8.21465 45.1319 8.63377 45.1319 9.15123V21.664C45.1319 22.1815 44.7116 22.6006 44.1953 22.6006C43.6779 22.6006 43.2587 22.1815 43.2587 21.664V9.15123ZM38.5758 8.67825C38.5758 8.16079 38.9961 7.74166 39.5124 7.74166C40.0287 7.74166 40.449 8.16079 40.449 8.67825V22.2587C40.449 22.7762 40.0287 23.1953 39.5124 23.1953C38.9961 23.1953 38.5758 22.7762 38.5758 22.2587V8.67825ZM33.8929 9.15123C33.8929 8.63377 34.3121 8.21465 34.8295 8.21465C35.347 8.21465 35.7649 8.63377 35.7649 9.15123V21.664C35.7649 22.1815 35.3458 22.6006 34.8295 22.6006C34.3121 22.6006 33.8929 22.1815 33.8929 21.664V9.15123ZM29.21 11.0244C29.21 10.5069 29.6292 10.0878 30.1455 10.0878C30.6629 10.0878 31.082 10.5069 31.082 11.0244V19.4478C31.082 19.9653 30.6617 20.3844 30.1455 20.3844C29.628 20.3844 29.21 19.9653 29.21 19.4478V11.0244ZM49.4868 25.3108C49.3428 25.4349 45.8728 28.3465 39.5111 28.3465C33.1493 28.3465 29.6805 25.4361 29.5353 25.3108C29.1431 24.9748 29.0963 24.3836 29.4334 23.9902C29.7683 23.5992 30.3583 23.5524 30.7517 23.8872C30.8067 23.9329 33.9045 26.4734 39.5099 26.4734C45.1856 26.4734 48.2353 23.9141 48.2658 23.8896C48.6579 23.5524 49.2503 23.598 49.5852 23.9902C49.9258 24.3836 49.8802 24.9748 49.4868 25.3108ZM49.8148 19.449C49.8148 19.9664 49.3945 20.3856 48.8782 20.3856C48.3608 20.3856 47.9428 19.9664 47.9428 19.449V11.0244C47.9428 10.5069 48.3619 10.0878 48.8782 10.0878C49.3957 10.0878 49.8148 10.5069 49.8148 11.0244V19.449Z" fill="#D5D8DD"/>
<path d="M3.70107 49.998C3.70107 50.4605 3.34751 50.8421 2.84409 50.8421C2.35356 50.8421 2 50.4605 2 49.998V41.9539C2 41.4915 2.35356 41.1098 2.85697 41.1098C3.34751 41.1098 3.70107 41.4915 3.70107 41.9539V49.998Z" fill="#D5D8DD"/>
<path d="M14.6989 41.9539V49.3038C14.6989 50.2977 14.1686 50.855 13.3245 50.855H13.2566C12.4535 50.855 12.073 50.3926 11.7323 49.7112L10.0172 46.377L8.49291 42.9338L8.53388 46.2681L8.54793 49.984C8.54793 50.4464 8.19437 50.8281 7.69096 50.8281C7.20043 50.8281 6.84687 50.4464 6.84687 49.984V42.6341C6.84687 41.7221 7.3772 41.0829 8.30325 41.0829H8.37115C9.22812 41.0829 9.58285 41.5453 9.92236 42.2267L11.6105 45.534L13.0529 48.7465L13.0119 45.6698L12.9979 41.9539C12.9979 41.4915 13.3514 41.1098 13.8548 41.1098C14.3454 41.1098 14.6989 41.4903 14.6989 41.9539Z" fill="#D5D8DD"/>
<path d="M21.5184 49.984C21.5184 50.4464 21.1649 50.8281 20.6615 50.8281C20.1709 50.8281 19.8174 50.4464 19.8174 49.984V42.702H17.7077C17.2722 42.702 16.9186 42.3754 16.9186 41.8989C16.9186 41.4365 17.2722 41.1098 17.7077 41.1098H23.6281C24.0636 41.1098 24.4171 41.4365 24.4171 41.913C24.4171 42.3754 24.0636 42.702 23.6281 42.702H21.5184V49.984Z" fill="#D5D8DD"/>
<path d="M26.6368 49.7124V42.1576C26.6368 41.4493 27.0314 41.0548 27.7525 41.0829H32.652C33.0875 41.0829 33.4411 41.4236 33.4411 41.886C33.4411 42.3485 33.0875 42.6751 32.652 42.6751H28.3238V45.0166H32.1486C32.5701 45.0166 32.9108 45.3292 32.9108 45.7787C32.9108 46.2283 32.5701 46.5409 32.1486 46.5409H28.3238V49.2359H32.652C33.0875 49.2359 33.4411 49.5766 33.4411 50.039C33.4411 50.5015 33.0875 50.8281 32.652 50.8281H27.7116C27.0044 50.8281 26.6087 50.4335 26.6368 49.7124Z" fill="#D5D8DD"/>
<path fill-rule="evenodd" clip-rule="evenodd" d="M42.7109 50.869C43.1874 50.6232 43.3372 50.1198 43.1054 49.7252L41.4044 46.7048C42.8057 46.432 43.6229 45.3982 43.6229 43.9957C43.6229 42.5252 42.6969 41.0829 40.4783 41.0829H37.253C36.5318 41.0548 36.1373 41.4493 36.1373 42.1576V49.998C36.1373 50.4605 36.4908 50.8421 36.9814 50.8421C37.4848 50.8421 37.8383 50.4605 37.8383 49.998L37.8243 47.0302H39.6214L41.5133 50.5284C41.7451 50.9241 42.2485 51.1009 42.7109 50.869ZM40.5193 45.4919H37.8254V42.6751H40.5064C41.4044 42.6751 41.9078 43.2464 41.9078 44.0765C41.9078 44.9065 41.4313 45.4919 40.5193 45.4919Z" fill="#D5D8DD"/>
<path d="M47.1351 50.1069C46.1142 49.1949 45.6518 47.7654 45.6518 45.9695C45.6518 44.1596 46.1013 42.7442 47.1081 41.845C47.7345 41.3007 48.5786 40.933 49.8032 40.933C50.8779 40.933 51.7091 41.1777 52.3343 41.7092C52.8787 42.1448 53.2732 42.7571 53.505 43.6152C53.6279 44.0648 53.3142 44.5131 52.7967 44.6091C52.3062 44.6911 51.9116 44.3773 51.7618 43.929C51.5979 43.4934 51.3801 43.1809 51.1226 42.9631C50.769 42.6505 50.3335 42.5135 49.761 42.5135C49.1487 42.5135 48.6172 42.6903 48.2227 43.0849C47.6514 43.6562 47.4055 44.6771 47.4055 45.9707C47.4055 47.2503 47.6373 48.2712 48.2356 48.8425C48.6301 49.2371 49.1475 49.4138 49.747 49.4138C50.3733 49.4138 50.8498 49.2499 51.2443 48.8835C51.448 48.6927 51.626 48.448 51.7477 48.1623C51.9245 47.7409 52.2921 47.4271 52.7686 47.536C53.2451 47.6449 53.5448 48.1073 53.3949 48.5569C53.1503 49.305 52.7276 49.9044 52.1563 50.313C51.53 50.7625 50.755 50.9932 49.7739 50.9932C48.5236 50.9908 47.7333 50.6232 47.1351 50.1069Z" fill="#D5D8DD"/>
<path fill-rule="evenodd" clip-rule="evenodd" d="M59.6301 40.9319C56.6763 40.9319 55.4237 42.9198 55.4237 45.9684C55.4237 49.113 56.6623 51.0049 59.6301 51.0049C62.5428 51.0049 63.8224 49.113 63.8224 45.9684C63.8224 42.8648 62.5569 40.9319 59.6301 40.9319ZM59.616 42.5252C61.2352 42.5252 62.0793 43.655 62.0793 45.9684C62.0793 48.2829 61.2223 49.4127 59.616 49.4115C57.9969 49.4115 57.1798 48.2817 57.1798 45.9684C57.1798 43.655 58.0239 42.5252 59.616 42.5252Z" fill="#D5D8DD"/>
<path d="M77.0249 49.984C77.0249 50.4464 76.6713 50.8281 76.1679 50.8281C75.6774 50.8281 75.3238 50.4464 75.3238 49.984V46.336L75.3648 42.784L74.1812 46.391L72.9835 49.943C72.7798 50.5694 72.3572 50.814 71.8269 50.814C71.2684 50.814 70.861 50.5553 70.6432 49.929L69.4187 46.3899L68.2889 42.8378L68.3299 46.336V49.984C68.3299 50.4464 67.9763 50.8281 67.4729 50.8281C66.9824 50.8281 66.6288 50.4464 66.6288 49.984V42.702C66.6288 41.6952 67.1732 41.1098 68.1262 41.1098C69.0241 41.1098 69.5287 41.5863 69.8144 42.4574L71.067 46.1733L71.8292 48.7044L72.6054 46.1733L73.8581 42.4574C74.1437 41.5863 74.6343 41.1098 75.5322 41.1098C76.4852 41.1098 77.0155 41.6812 77.0155 42.702L77.0249 49.984Z" fill="#D5D8DD"/>
</svg>
