<svg width="161" height="64" viewBox="0 0 161 64" fill="none" xmlns="http://www.w3.org/2000/svg">
<path fill-rule="evenodd" clip-rule="evenodd" d="M47.5863 38.8998C47.665 39.0933 47.7436 39.2868 47.8223 39.475C48.4361 41.2165 48.6249 42.8639 48.2472 44.5113C47.7279 47.9943 45.4145 51.0066 42.1096 52.3245C40.9293 52.8422 39.6074 53.0775 38.2854 53.0775C37.9077 53.0775 37.4356 53.0305 37.0579 52.9834C35.4999 52.7951 33.8947 52.2774 32.3367 51.3831C30.4482 50.3006 28.5597 48.7473 26.4824 46.4881C24.405 48.7473 22.5637 50.3006 20.628 51.3831C19.07 52.2774 17.4648 52.7951 15.9068 52.9834C15.5291 53.0305 15.057 53.0775 14.6793 53.0775C13.3573 53.0775 12.0826 52.8422 10.8551 52.3245C7.59745 51.0066 5.23683 48.0413 4.7175 44.5113C4.48144 42.8168 4.67029 41.1695 5.28405 39.428C5.52011 38.8161 5.75617 38.2513 5.99223 37.7335C6.16442 37.3473 6.33661 36.9708 6.50433 36.6042L6.50444 36.6039C6.70457 36.1664 6.89833 35.7428 7.07811 35.3331L7.12533 35.239C10.383 28.1788 13.9239 21.0246 17.5592 13.9645L17.7009 13.6821C18.0786 12.9761 18.4563 12.223 18.834 11.4699L18.834 11.4699C19.3061 10.6227 19.8254 9.72839 20.5336 8.88118C22.0916 7.09261 24.2162 6.05713 26.5768 6.05713C28.8902 6.05713 31.062 7.09261 32.5728 8.97531C33.2694 9.75658 33.7251 10.5779 34.162 11.3654L34.2724 11.564L34.2726 11.5644C34.6502 12.3174 35.0279 13.0703 35.4055 13.7762L35.5471 14.0586C39.2297 21.1187 42.7234 28.273 45.981 35.3331L46.0283 35.3802C46.208 35.7898 46.4018 36.2134 46.6019 36.6509L46.6025 36.6522L46.6029 36.6532C46.7704 37.0193 46.9423 37.3951 47.1141 37.7806C47.2715 38.1258 47.4289 38.5127 47.5862 38.8997L47.5863 38.8998ZM84.2702 17.8711C84.2702 19.5655 82.9011 20.9304 81.2014 20.9304C79.5018 20.9304 78.1326 19.5655 78.1326 17.8711C78.1326 16.1766 79.4546 14.8117 81.2014 14.8117C82.9483 14.8587 84.2702 16.2237 84.2702 17.8711ZM71.6172 24.0369V24.79C71.6172 24.79 70.1536 22.9073 67.0376 22.9073C61.8915 22.9073 57.8784 26.8139 57.8784 32.2267C57.8784 37.5923 61.8443 41.546 67.0376 41.546C70.2009 41.546 71.6172 39.6162 71.6172 39.6162V40.4164C71.6172 40.7929 71.9005 41.0753 72.2782 41.0753H76.1024V23.378H72.2782C71.9005 23.378 71.6172 23.7074 71.6172 24.0369ZM67.7932 37.3099C69.4928 37.3099 70.9092 36.4157 71.6174 35.3802V29.0731C70.9564 28.0847 69.4456 27.1434 67.7932 27.1434C64.7716 27.1434 62.4582 29.0261 62.4582 32.2267C62.4582 35.4272 64.7716 37.3099 67.7932 37.3099ZM78.9353 23.378H83.4677V41.0753H78.9353V23.378ZM142.058 24.79C142.058 24.79 143.522 22.9073 146.638 22.9073C151.737 22.9073 155.75 26.861 155.75 32.2267C155.75 37.5923 151.737 41.546 146.59 41.546C143.474 41.546 142.011 39.6162 142.011 39.6162V40.4164C142.011 40.7459 141.728 41.0753 141.35 41.0753H137.526V14.8588H142.058V24.79ZM145.882 37.2629C144.135 37.2629 142.766 36.3686 142.058 35.3331V29.0261C142.766 28.0847 144.277 27.0963 145.882 27.0963C148.904 27.0963 151.217 28.979 151.217 32.1796C151.217 35.3802 148.904 37.2629 145.882 37.2629ZM135.165 41.1224V30.5793C135.165 27.614 134.551 25.9196 132.946 24.6017C131.624 23.4721 129.972 22.9073 127.989 22.9073C126.242 22.9073 124.495 23.425 123.173 24.79V24.0369C123.173 23.7074 122.89 23.378 122.512 23.378H118.924V41.0753H123.456V28.7437C124.353 27.7082 125.77 27.0022 127.139 27.0022C129.688 27.0022 130.633 28.1788 130.633 31.097V41.1224H135.165ZM107.924 22.9073C104.808 22.9073 103.344 24.79 103.344 24.79V14.8588H98.8117V41.0753H102.636C103.014 41.0753 103.297 40.7459 103.297 40.4164V39.6162C103.297 39.6162 104.76 41.546 107.876 41.546C113.023 41.546 117.036 37.5923 117.036 32.2267C117.083 26.861 113.07 22.9073 107.924 22.9073ZM103.344 35.3331C104.052 36.3686 105.421 37.2629 107.168 37.2629C110.19 37.2629 112.503 35.3802 112.503 32.1796C112.503 28.979 110.19 27.0963 107.168 27.0963C105.563 27.0963 104.052 28.0847 103.344 29.0261V35.3331ZM94.8931 22.9073C96.2622 22.9073 96.9704 23.1426 96.9704 23.1426V27.3316C96.9704 27.3316 93.1934 26.0608 90.8328 28.7437V41.1224H86.3005V23.378H90.1246C90.5023 23.378 90.7856 23.7074 90.7856 24.0369V24.79C91.6354 23.8016 93.4767 22.9073 94.8931 22.9073ZM26.5295 41.9225C23.9801 38.722 22.3276 35.7096 21.7611 33.168C21.525 32.0854 21.4778 31.1441 21.6194 30.2969C21.7139 29.5438 21.9971 28.8848 22.3748 28.32C23.2719 27.0492 24.7827 26.2491 26.5295 26.2491C28.2764 26.2491 29.8344 27.0022 30.6842 28.32C31.0619 28.8848 31.3452 29.5438 31.4396 30.2969C31.5812 31.1441 31.534 32.1325 31.298 33.168C30.7314 35.6626 29.079 38.6749 26.5295 41.9225ZM41.0711 49.6416C43.3845 48.7003 45.0369 46.5822 45.3674 44.1347C45.5562 42.911 45.4146 41.7343 45.0369 40.5105C44.9385 40.1834 44.7944 39.8563 44.6365 39.4977C44.5672 39.3402 44.4951 39.1767 44.4231 39.0044C44.2343 38.6278 44.0572 38.2278 43.8802 37.8277C43.7031 37.4276 43.5261 37.0275 43.3372 36.651V36.6039C40.0796 29.5909 36.5859 22.4366 32.9978 15.4236L32.8561 15.1412C32.6673 14.7882 32.4784 14.4234 32.2896 14.0586C32.1007 13.6939 31.9119 13.3291 31.723 12.9761C31.3453 12.223 30.9204 11.517 30.4011 10.9051C29.4096 9.77546 28.0877 9.16358 26.6241 9.16358C25.1605 9.16358 23.8386 9.77546 22.8471 10.9051C22.3278 11.517 21.9029 12.223 21.5252 12.9761C21.3363 13.329 21.1475 13.6938 20.9586 14.0586C20.7698 14.4234 20.5809 14.7881 20.3921 15.1412L20.2504 15.4236C16.6151 22.3895 13.1214 29.5438 9.86373 36.5569L9.81652 36.651C9.43882 37.4511 9.06112 38.2513 8.73064 39.0044C8.65862 39.1767 8.58661 39.3402 8.51728 39.4977C8.35934 39.8563 8.21531 40.1834 8.11688 40.5105C7.64475 41.8284 7.55033 43.0051 7.69197 44.1818C8.02245 46.6293 9.67488 48.7473 11.9883 49.6887C13.0742 50.1123 14.3017 50.3006 15.5764 50.1594C16.7567 50.0182 17.937 49.6416 19.1646 48.9356C20.8642 47.9943 22.611 46.5352 24.5468 44.3701C21.478 40.5576 19.5423 37.0275 18.8341 33.9211C18.4564 32.5091 18.4092 31.1441 18.598 29.9203C18.7869 28.7437 19.2118 27.6611 19.8727 26.7198C21.3363 24.6488 23.7914 23.378 26.5297 23.378C29.268 23.378 31.723 24.6017 33.1866 26.7198C33.8476 27.6611 34.2725 28.7437 34.4613 29.9203C34.603 31.1441 34.5558 32.462 34.2253 33.9211C33.5171 37.0275 31.6286 40.5105 28.5126 44.323C30.4955 46.4881 32.1951 47.9472 33.8948 48.8885C35.1223 49.5945 36.3026 49.9711 37.4829 50.1123C38.7104 50.2535 39.938 50.1123 41.0711 49.6416Z" fill="#5FCAE9"/>
</svg>
