<svg width="156" height="64" viewBox="0 0 156 64" fill="none" xmlns="http://www.w3.org/2000/svg">
<path d="M90.4946 7.67109L98.9871 10.9414L90.4946 14.035V18.4544L105.04 12.7092V9.17369L90.4946 3.42847V7.67109Z" fill="#5FCAE9"/>
<path fill-rule="evenodd" clip-rule="evenodd" d="M5.20858 29.5914C5.47961 25.8791 8.461 24.1113 12.5265 24.1113C16.5017 24.1113 19.4831 25.7907 19.5735 30.0333V41.1702H14.9659V39.2257C13.8817 40.6399 12.1652 41.5238 10.2679 41.4354C7.19617 41.4354 4.6665 39.9328 4.6665 36.574V36.3973C4.6665 32.243 8.28031 30.9172 12.7072 30.9172H14.7852V30.1217C14.7852 28.4423 13.9721 27.4701 12.2555 27.4701C10.9907 27.3817 9.81618 28.2656 9.72583 29.503V29.5914H5.20858ZM9.18385 36.2205C9.18385 37.3695 9.90662 38.165 11.5328 38.165C13.159 38.165 14.6949 37.2811 14.6046 35.5134V33.9224H12.7073C10.3583 33.9224 9.18385 34.5411 9.18385 36.0437V36.2205Z" fill="#5FCAE9"/>
<path d="M30.4148 37.9882C28.1561 37.9882 26.9817 36.4857 26.9817 33.1269V32.5966C26.9817 29.3262 28.3368 27.7352 30.4148 27.7352C32.041 27.7352 32.9444 28.7959 33.2155 30.3869H37.7327C37.3714 26.0559 34.1189 24.1113 30.3244 24.1113C25.8072 24.1113 22.1934 27.1165 22.1934 32.7734V32.9501C22.1934 38.607 25.6265 41.4354 30.3244 41.4354C34.932 41.4354 37.552 38.6954 37.9134 34.9831H33.5769C33.2155 36.8392 32.041 37.9882 30.4148 37.9882Z" fill="#5FCAE9"/>
<path d="M48.0324 37.9882C45.7738 37.9882 44.5993 36.4857 44.5993 33.1269V32.5966C44.5993 29.3262 45.9545 27.7352 48.0324 27.7352C49.6587 27.7352 50.5621 28.7959 50.8331 30.3869H55.3504C54.989 26.0559 51.7366 24.1113 47.9421 24.1113C43.4248 24.1113 39.811 27.1165 39.811 32.7734V32.9501C39.811 38.607 43.2442 41.4354 47.9421 41.4354C52.5497 41.4354 55.1697 38.6954 55.4408 34.9831H51.1945C50.9235 36.8392 49.6587 37.9882 48.0324 37.9882Z" fill="#5FCAE9"/>
<path fill-rule="evenodd" clip-rule="evenodd" d="M62.3069 33.9224C62.4876 36.9276 63.7524 38.0766 65.8303 38.0766C67.2759 38.2534 68.631 37.2811 68.8117 35.9553H73.2386C72.7869 39.1373 70.0766 41.5238 65.6496 41.5238C60.771 41.5238 57.4282 38.6954 57.4282 33.1269V32.7734C57.4282 27.2049 60.9517 24.1113 65.5593 24.1113C69.8055 24.1113 73.329 26.4978 73.329 31.9779V33.9224H62.3069ZM68.7212 30.8288C68.6309 28.3539 67.4564 27.2933 65.5591 27.2933C64.1136 27.3817 62.7584 28.1772 62.3971 30.8288H68.7212Z" fill="#5FCAE9"/>
<path d="M86.1577 24.1113C83.9894 24.0229 82.0018 25.0836 81.008 26.9397V24.4649H76.3101V41.0818H81.008V30.9172C81.008 30.7404 81.008 30.652 81.008 30.4753C81.0983 28.9727 82.4535 27.7352 83.9894 27.8236C85.7059 27.8236 86.5191 28.7075 86.5191 30.652V41.0818H91.3073V29.9449C91.3073 25.8791 89.2294 24.1113 86.1577 24.1113Z" fill="#5FCAE9"/>
<path d="M100.161 35.7785V27.912H103.414V24.4649H100.161V19.4268L95.4632 21.3713V24.4649H93.3853V27.912H95.3728V36.3089C95.3728 39.6676 97.0894 41.347 100.794 41.347C101.697 41.347 102.6 41.2586 103.504 40.9934V37.3695C102.962 37.5463 102.42 37.6347 101.878 37.6347C100.794 37.6347 100.161 37.016 100.161 35.7785Z" fill="#5FCAE9"/>
<path d="M116.514 34.8062C116.514 34.983 116.514 35.0714 116.514 35.2482C116.423 36.7508 115.068 37.9882 113.532 37.8998C111.816 37.8998 111.093 37.0159 111.093 35.0714V24.4648H106.305V35.6901C106.305 39.5792 108.563 41.4353 111.635 41.4353C113.713 41.5237 115.61 40.4631 116.604 38.6069V41.0818H121.392V24.4648H116.604L116.514 34.8062Z" fill="#5FCAE9"/>
<path d="M129.524 27.4701V24.3765H124.826V40.9934H129.524V32.4198C129.524 29.6798 131.421 28.7075 134.673 28.7075V24.1113C132.324 24.1113 130.246 25.4371 129.524 27.4701Z" fill="#5FCAE9"/>
<path fill-rule="evenodd" clip-rule="evenodd" d="M144.25 24.1113C148.496 24.1113 152.019 26.4094 152.019 31.8895V34.0108H140.817C140.997 37.016 142.262 38.165 144.34 38.165C145.786 38.2534 147.141 37.3695 147.502 35.9553H151.929C151.387 39.1373 148.767 41.5238 144.34 41.5238C139.461 41.5238 136.119 38.6954 136.119 33.1269V32.7734C136.119 27.2049 139.642 24.1113 144.25 24.1113ZM144.25 27.2933C142.714 27.2933 141.359 28.0888 140.997 30.8288H147.412C147.321 28.3539 146.147 27.2933 144.25 27.2933Z" fill="#5FCAE9"/>
</svg>
