<svg id="Layer_1" data-name="Layer 1" xmlns="http://www.w3.org/2000/svg" viewBox="0 0 77 79">
  <defs>
    <style>
      .cls-1 {
        fill: #758cbb;
      }

      .cls-1, .cls-2, .cls-3, .cls-4 {
        fill-rule: evenodd;
      }

      .cls-2 {
        fill: #b0bbd9;
      }

      .cls-3 {
        fill: #004b8d;
      }

      .cls-4 {
        fill: #fff;
      }
    </style>
  </defs>
  <g id="Blocks">
    <g id="Block_about" data-name="Block/about">
      <g id="logos">
        <g id="SCQF">
          <g id="Group-20">
            <polygon id="Fill-18" class="cls-1" points="76.43 0.25 76.43 57.94 18.75 57.94 76.43 0.25"/>
            <polygon id="Fill-21" class="cls-2" points="76.43 5.71 76.43 57.94 24.21 57.94 76.43 5.71"/>
            <polygon id="Fill-23" class="cls-3" points="76.43 11.13 76.43 57.94 29.63 57.94 76.43 11.13"/>
          </g>
          <path id="Fill-25" class="cls-3" d="M73.27,76.48h.65V74.7l1.59,1.78h.92L74.7,74.62l1.6-1.55h-.91l-1.47,1.48V71h-.65Zm-2.52,0h.65V74.76c0-.75.34-1.1,1-1.1a1.28,1.28,0,0,1,.32.06l0-.7a.93.93,0,0,0-.29,0,1.17,1.17,0,0,0-1,.62h0v-.53h-.65ZM68.26,76a1.19,1.19,0,1,1,1.12-1.19A1.1,1.1,0,0,1,68.26,76Zm0-3a1.8,1.8,0,1,0,1.82,1.8A1.8,1.8,0,0,0,68.26,73ZM62,76.48h.7l.82-2.55h0l.9,2.55h.66l1.11-3.42h-.69l-.73,2.55h0l-.87-2.55h-.68l-.82,2.55h0l-.77-2.55h-.73Zm-4.09-2a1.06,1.06,0,0,1,1.06-1,.93.93,0,0,1,1,1Zm2.74.52v-.23A1.63,1.63,0,0,0,59,73a1.73,1.73,0,0,0-1.77,1.8A1.7,1.7,0,0,0,59,76.57a1.8,1.8,0,0,0,1.51-.7L60,75.49A1.17,1.17,0,0,1,59,76a1.07,1.07,0,0,1-1.15-1Zm-9.24,1.47H52V74.7c0-.77.42-1.12.89-1.12.63,0,.72.46.72,1.11v1.79h.65V74.61c0-.6.25-1,.88-1s.73.48.73,1v1.91h.65v-2c0-.77-.24-1.52-1.3-1.52a1.23,1.23,0,0,0-1.08.64A1.11,1.11,0,0,0,53.11,73a1.21,1.21,0,0,0-1.09.62h0v-.53h-.61ZM50,74.84v.21a.93.93,0,0,1-1,1c-.45,0-.74-.17-.74-.56,0-.55.76-.65,1.37-.65Zm-1.79-1a1.39,1.39,0,0,1,1-.39.74.74,0,0,1,.82.72v.15h-.48c-1,0-1.88.3-1.88,1.18a1.06,1.06,0,0,0,1.18,1A1.31,1.31,0,0,0,50,76h0c0,.17,0,.35,0,.52h.58a5.59,5.59,0,0,1,0-.62V74.11c0-.59-.42-1.14-1.43-1.14a2,2,0,0,0-1.35.51Zm-2.94,2.6h.65V74.76c0-.75.35-1.1,1-1.1a1.21,1.21,0,0,1,.31.06l0-.7A.88.88,0,0,0,47,73a1.17,1.17,0,0,0-1,.62h0v-.53h-.65Zm-2,0h.65V73.62h.78v-.56h-.78v-.79c0-.47.09-.77.56-.77a.93.93,0,0,1,.37.06l.07-.57a2.17,2.17,0,0,0-.48,0c-.85,0-1.17.44-1.17,1.36v.76h-.74v.56h.74Zm-2.85-3A1.34,1.34,0,0,0,39.24,73c-.65,0-1.3.34-1.3,1.06s.49.83,1.05,1c.28.06.82.14.82.53s-.36.43-.7.43a1.14,1.14,0,0,1-.83-.4l-.48.4a1.45,1.45,0,0,0,1.31.61c.68,0,1.39-.31,1.39-1.08s-.43-.86-1-1c-.28-.07-.87-.13-.87-.54,0-.24.27-.38.57-.38a.85.85,0,0,1,.7.34Zm-6.2,3h.65V74.72c0-.79.41-1.14,1-1.14s.77.24.77.88v2h.65v-2.2A1.18,1.18,0,0,0,36,73a1.2,1.2,0,0,0-1.12.62h0v-.53h-.65ZM31.72,76a1.19,1.19,0,1,1,1.13-1.19A1.1,1.1,0,0,1,31.72,76Zm0-3a1.8,1.8,0,1,0,1.82,1.8A1.8,1.8,0,0,0,31.72,73Zm-3.19,3.51h.65V73.06h-.65Zm.33-4.78a.43.43,0,0,0-.43.43.43.43,0,0,0,.43.43.43.43,0,0,0,.43-.43A.44.44,0,0,0,28.86,71.7Zm-1.07,1.36h-.93v-1h-.65v1h-.75v.56h.75v1.79c0,.54,0,1.16,1,1.16a1.45,1.45,0,0,0,.59-.12v-.59a.91.91,0,0,1-.46.1c-.49,0-.49-.4-.49-.79V73.62h.93Zm-3.24,1.78v.21a.93.93,0,0,1-1,1c-.44,0-.73-.17-.73-.56,0-.55.75-.65,1.36-.65Zm-1.79-1a1.39,1.39,0,0,1,1-.39.74.74,0,0,1,.82.72v.15h-.48c-1,0-1.88.3-1.88,1.18a1.06,1.06,0,0,0,1.18,1,1.31,1.31,0,0,0,1.2-.61h0c0,.17,0,.35,0,.52h.58a5.59,5.59,0,0,1,0-.62V74.11c0-.59-.42-1.14-1.43-1.14a2,2,0,0,0-1.35.51ZM22,73.52A1.74,1.74,0,0,0,20.64,73,1.8,1.8,0,1,0,21.94,76l-.46-.46a1,1,0,0,1-.83.38,1.1,1.1,0,0,1-1.11-1.16A1.1,1.1,0,0,1,21.46,74Zm-4.47,3h.65V73.06h-.65Zm.32-4.78a.44.44,0,0,0-.43.43.43.43,0,0,0,.43.43.43.43,0,0,0,.43-.43A.43.43,0,0,0,17.8,71.7Zm-2.38,4.78h.65V73.62h.78v-.56h-.77v-.79c0-.47.08-.77.55-.77a.93.93,0,0,1,.37.06l.08-.57a2.26,2.26,0,0,0-.49,0c-.85,0-1.17.44-1.17,1.36v.76h-.73v.56h.73Zm-1.88.08h.65V73.14h-.65Zm-1.53,0h.65V71.1H12Zm-1.43-1.64v.21a.93.93,0,0,1-1,1c-.45,0-.74-.17-.74-.56,0-.55.75-.65,1.37-.65ZM8.8,74a1.39,1.39,0,0,1,1-.39.73.73,0,0,1,.81.72v.15h-.47c-1,0-1.88.3-1.88,1.18a1,1,0,0,0,1.18,1,1.3,1.3,0,0,0,1.2-.6h0c0,.17,0,.35,0,.52h.58a5.59,5.59,0,0,1,0-.62V74.19c0-.59-.42-1.14-1.43-1.14a2,2,0,0,0-1.35.51Zm-1.25-.82H6.9V74.9c0,.79-.41,1.14-1,1.14s-.78-.24-.78-.88v-2H4.52v2.2a1.18,1.18,0,0,0,1.24,1.3A1.21,1.21,0,0,0,6.89,76h0v.53h.65ZM.78,74.85a1.1,1.1,0,0,1,1.13-1.19,1.19,1.19,0,0,1,0,2.38A1.1,1.1,0,0,1,.78,74.85Zm2.9-1.71H3v.49H3a1.46,1.46,0,0,0-1.19-.58,1.8,1.8,0,0,0,0,3.59A1.43,1.43,0,0,0,3,76.07H3V78.2h.65Zm72.1-7a1.13,1.13,0,1,1-1.12-1.19A1.1,1.1,0,0,1,75.78,66.11Zm.65-3.75h-.65v2.53h0a1.42,1.42,0,0,0-1.19-.58,1.8,1.8,0,0,0,0,3.59,1.47,1.47,0,0,0,1.19-.57h0v.49h.65ZM69,67.82h.65V66.06c0-.8.41-1.14,1-1.14s.78.23.78.88v2H72v-2.2a1.27,1.27,0,0,0-2.36-.7h0V64.4H69Zm-1.55-1.65v.22a.92.92,0,0,1-1,1c-.44,0-.73-.16-.73-.55,0-.55.75-.66,1.36-.66Zm-1.79-1a1.43,1.43,0,0,1,1-.39.74.74,0,0,1,.82.72v.15H67c-1,0-1.89.3-1.89,1.18a1.06,1.06,0,0,0,1.18,1,1.3,1.3,0,0,0,1.2-.6h0a4.61,4.61,0,0,0,0,.52h.58a4,4,0,0,1,0-.62V65.45c0-.59-.42-1.14-1.43-1.14a2.06,2.06,0,0,0-1.36.5ZM62.4,64.4h-.93v-1h-.65v1h-.75V65h.75v1.78c0,.55,0,1.16,1,1.16a1.56,1.56,0,0,0,.58-.11V67.2a.91.91,0,0,1-.46.1c-.49,0-.49-.41-.49-.79V65h.93ZM59.21,63a.45.45,0,0,0-.43.43.43.43,0,0,0,.43.43.43.43,0,0,0,.43-.43A.45.45,0,0,0,59.21,63Zm-2,3.07a1.13,1.13,0,1,1-1.12-1.19A1.1,1.1,0,0,1,57.2,66.11Zm.65-3.75H57.2v2.53h0A1.42,1.42,0,0,0,56,64.31a1.8,1.8,0,0,0,0,3.59,1.49,1.49,0,0,0,1.19-.57h0v.49h.65Zm-7,3.47a1.06,1.06,0,0,1,1.06-1,.92.92,0,0,1,1,1Zm2.74.51v-.23A1.63,1.63,0,0,0,52,64.31a1.73,1.73,0,0,0-1.77,1.8A1.7,1.7,0,0,0,52,67.9a1.77,1.77,0,0,0,1.51-.7L53,66.83a1.17,1.17,0,0,1-.93.51,1.08,1.08,0,0,1-1.16-1Zm-5.77,1.48h.65V66.1c0-.75.34-1.1,1-1.1a1.92,1.92,0,0,1,.32,0l0-.7a1.35,1.35,0,0,0-.29,0,1.16,1.16,0,0,0-1,.61h0V64.4h-.65Zm-.54-3A1.76,1.76,0,0,0,46,64.32a1.79,1.79,0,1,0,0,3.58,1.7,1.7,0,0,0,1.3-.52l-.46-.47a1,1,0,0,1-.83.39,1.2,1.2,0,0,1,0-2.38,1.08,1.08,0,0,1,.86.39Zm-9,3H39V66.06c0-.8.41-1.14.95-1.14s.78.23.78.88v2h.65v-2.2a1.18,1.18,0,0,0-1.24-1.31,1.21,1.21,0,0,0-1.13.61h0V62.36h-.65Zm-.88-2.95a1.34,1.34,0,0,0-1.17-.56c-.65,0-1.3.34-1.3,1s.49.84,1,1c.28.06.82.13.82.52s-.36.44-.7.44a1.11,1.11,0,0,1-.82-.41l-.49.41a1.45,1.45,0,0,0,1.31.6c.68,0,1.39-.3,1.39-1.07s-.43-.86-1-1c-.29-.06-.88-.12-.88-.53,0-.25.27-.39.57-.39a.88.88,0,0,1,.7.34ZM33.81,63a.45.45,0,0,0-.43.43.43.43,0,0,0,.43.43.43.43,0,0,0,.43-.43A.45.45,0,0,0,33.81,63ZM32.59,64.4h-.93v-1H31v1h-.75V65H31v1.78c0,.55,0,1.16,1,1.16a1.56,1.56,0,0,0,.58-.11V67.2a.89.89,0,0,1-.46.1c-.49,0-.49-.41-.49-.79V65h.93Zm-2.67,0H29v-1h-.65v1h-.75V65h.75v1.78c0,.55,0,1.16,1,1.16a1.56,1.56,0,0,0,.58-.11V67.2a.91.91,0,0,1-.46.1c-.49,0-.49-.41-.49-.79V65h.93Zm-4.47,2.9a1.2,1.2,0,1,1,1.13-1.19A1.1,1.1,0,0,1,25.45,67.3Zm0-3a1.8,1.8,0,1,0,1.82,1.8A1.79,1.79,0,0,0,25.45,64.31Zm-2.19.55a1.76,1.76,0,0,0-1.32-.54,1.79,1.79,0,1,0,0,3.58,1.7,1.7,0,0,0,1.3-.52l-.46-.47a1,1,0,0,1-.83.39,1.2,1.2,0,0,1,0-2.38,1.07,1.07,0,0,1,.85.39Zm-4.32.39a.92.92,0,0,0-.71-.34c-.3,0-.56.14-.56.39,0,.41.58.47.87.53.56.14,1,.35,1,1s-.7,1.07-1.38,1.07a1.47,1.47,0,0,1-1.32-.6l.49-.41a1.13,1.13,0,0,0,.83.41c.33,0,.69-.14.69-.44s-.54-.46-.82-.52c-.56-.14-1.05-.32-1.05-1s.66-1,1.3-1a1.33,1.33,0,0,1,1.17.56Zm-5.08,6.54a.43.43,0,1,0,.43.42A.43.43,0,0,0,13.86,71.79Zm45-4h.65V64.4h-.65Zm-25.41,0h.65V64.4h-.65Z"/>
          <polygon id="Fill-27" class="cls-3" points="38.09 48.63 41.55 48.63 41.55 46.02 38.09 46.02 38.09 48.63"/>
          <path id="Fill-29" class="cls-4" d="M70.47,55h2.77V46.76h1.91V44.91H73.24V44.3c0-.84.31-1.85,1.05-1.85.35,0,1.88,0,2.21,0V40c-.47,0-2.17,0-2.66,0-2.26,0-3.37,1.29-3.37,3.07v1.83H68.81v1.85h1.66ZM62.8,53.18c-1.81,0-2.4-1.6-2.4-3.22s.67-3.24,2.46-3.24,2.36,1.7,2.36,3.28S64.6,53.18,62.8,53.18Zm5.09-8.27H65.26v1.28h0a3.32,3.32,0,0,0-3.06-1.56c-3.06,0-4.53,2.62-4.53,5.39,0,3.9,2.42,5.24,4.27,5.24a3.62,3.62,0,0,0,3.18-1.54h0v4.22h2.77ZM56.3,48.46c-.18-2.58-2.36-3.83-4.74-3.83-3.28,0-5.15,2.32-5.15,5.46a4.89,4.89,0,0,0,5.09,5.17,4.5,4.5,0,0,0,4.85-4.13H53.68a2.13,2.13,0,0,1-2.2,2c-1.74,0-2.31-1.74-2.31-3.18s.59-3.28,2.36-3.28a1.88,1.88,0,0,1,2,1.74ZM38.54,51.71c0,1.21,1,1.7,2.12,1.7.8,0,1.82-.31,1.82-1.29S41.33,51,39.34,50.56c-1.6-.35-3.2-.91-3.2-2.69,0-2.57,2.22-3.24,4.39-3.24s4.23.75,4.45,3.22H42.34c-.07-1.07-.9-1.37-1.89-1.37-.62,0-1.54.12-1.54.94,0,1,1.56,1.14,3.14,1.5s3.2,1,3.2,2.83c0,2.66-2.3,3.51-4.6,3.51S36,54.39,35.9,51.71Z"/>
        </g>
      </g>
    </g>
  </g>
</svg>
