<svg width="106" height="64" viewBox="0 0 106 64" fill="none" xmlns="http://www.w3.org/2000/svg">
<path fill-rule="evenodd" clip-rule="evenodd" d="M36.9748 41.8263C41.5515 41.8263 45.2617 38.1617 45.2617 33.6413C45.2617 29.1208 41.5515 25.4563 36.9748 25.4563C32.3981 25.4563 28.688 29.1208 28.688 33.6413C28.688 38.1617 32.3981 41.8263 36.9748 41.8263ZM36.9749 28.6972C39.4777 28.6972 41.6342 30.6984 41.6342 33.6413H41.6304C41.6304 36.5437 39.4777 38.5854 36.9749 38.5854C34.4721 38.5854 32.3194 36.5768 32.3194 33.6413C32.3194 30.7057 34.4721 28.6972 36.9749 28.6972Z" fill="#5FCAE9"/>
<path fill-rule="evenodd" clip-rule="evenodd" d="M54.852 41.8263C59.4287 41.8263 63.1389 38.1617 63.1389 33.6413C63.1389 29.1208 59.4287 25.4563 54.852 25.4563C50.2753 25.4563 46.5652 29.1208 46.5652 33.6413C46.5652 38.1617 50.2753 41.8263 54.852 41.8263ZM54.8521 28.6972C57.3549 28.6972 59.5113 30.6984 59.5113 33.6413H59.5076C59.5076 36.5437 57.3586 38.5854 54.8558 38.5854C52.353 38.5854 50.1966 36.5768 50.1966 33.6413C50.1966 30.7057 52.3493 28.6972 54.8521 28.6972Z" fill="#5FCAE9"/>
<path fill-rule="evenodd" clip-rule="evenodd" d="M80.2714 40.6233V25.9787H76.8263V27.3214H76.6996C75.586 26.1173 74.0003 25.4468 72.3495 25.482C68.2191 25.482 64.4314 29.0834 64.4314 33.656C64.4314 38.2285 68.2154 41.7821 72.3458 41.7821C73.9991 41.8307 75.5903 41.1579 76.6959 39.9428H76.8225V41.1163C76.8225 44.2394 75.1354 45.8985 72.4128 45.8985C70.1931 45.8985 68.815 44.3314 68.2527 43.0034L65.0943 44.302C66.3162 47.2294 69.2145 49.1316 72.4203 49.1099C76.6736 49.1099 80.2714 46.6489 80.2714 40.6233ZM72.6736 28.6972C75.1429 28.6972 77.0833 30.7977 77.0833 33.6707C77.0833 36.518 75.1764 38.5854 72.6736 38.5854C70.1708 38.5854 68.0739 36.5437 68.0739 33.6707C68.0739 30.7977 70.2043 28.6972 72.6736 28.6972Z" fill="#5FCAE9"/>
<path d="M85.951 17.3889V41.3001H82.4128V17.3889H85.951Z" fill="#5FCAE9"/>
<path fill-rule="evenodd" clip-rule="evenodd" d="M99.7366 36.3299L99.7315 36.3266H99.7389C99.7382 36.3277 99.7374 36.3288 99.7366 36.3299ZM102.547 38.1659L99.7366 36.3299C98.7983 37.6891 97.5139 38.5853 95.6719 38.5853C93.8283 38.5853 92.5136 37.7502 91.6681 36.1132L102.711 31.5995L102.339 30.6725C101.646 28.8516 99.5155 25.4819 95.2622 25.4819C91.0089 25.4819 87.4744 28.7927 87.4707 33.6228C87.4707 38.199 90.9717 41.782 95.6644 41.782C98.4281 41.7956 101.014 40.437 102.547 38.1659ZM91.0716 33.3809L91.0649 33.3837L91.0723 33.391C91.0721 33.3876 91.0719 33.3843 91.0716 33.3809ZM98.4466 30.3561L91.0716 33.3809C90.9953 32.1856 91.4071 31.0097 92.2152 30.1163C93.0256 29.2204 94.1665 28.6838 95.3815 28.6272C96.8191 28.6272 98.0407 29.3371 98.4466 30.3561Z" fill="#5FCAE9"/>
<path d="M15.295 31.5186V28.057H27.1052C27.228 28.7468 27.2866 29.4462 27.2802 30.1465C27.2802 32.7436 26.5614 35.9551 24.2448 38.2395C22.0102 40.5571 19.1126 41.7931 15.3062 41.7931C8.22982 41.7968 2.28564 36.1096 2.28564 29.1275C2.28564 22.1455 8.22982 16.4583 15.2988 16.4583C18.5868 16.4115 21.7552 17.6753 24.0884 19.964L21.6154 22.3919C19.9177 20.7752 17.6419 19.8867 15.2839 19.9199C12.8246 19.9197 10.4676 20.8921 8.73915 22.6201C7.01069 24.348 6.05468 26.6876 6.08455 29.1165C6.05468 31.5454 7.01069 33.885 8.73915 35.6129C10.4676 37.3408 12.8246 38.3133 15.2839 38.3131C18.6359 38.3131 20.539 36.9851 21.7606 35.7785C22.7513 34.8 23.4031 33.4021 23.6601 31.4929L15.295 31.5186Z" fill="#5FCAE9"/>
</svg>
