<svg width="100" height="56" viewBox="0 0 100 56" fill="none" xmlns="http://www.w3.org/2000/svg">
<path d="M1 14.2941H28.5279V41.9701H1V14.2941ZM6.66549 18.6023V38.4588L23.9258 28.3096L6.66549 18.6023ZM37.793 41.6763H33.0428V29.3417H37.8218C41.3629 29.3417 43.487 32.1445 43.487 35.7144C43.487 39.2855 41.5995 41.6763 37.793 41.6763ZM42.0115 26.5403L41.0691 23.7959H36.5241L35.6974 26.5403H33.2195L37.3795 14.1771H39.8874L44.5493 26.5403H42.0115ZM37.5864 31.4373H35.6387V39.7574H37.7345C40.5074 39.7574 40.9209 37.3966 40.891 35.5973C40.891 34.1805 40.2123 31.4373 37.5864 31.4373ZM40.2123 21.3168L38.6484 16.7731L37.2627 21.2883L37.1729 22.054H40.2422C40.2422 21.6419 40.2721 21.5533 40.2123 21.3168ZM44.3735 41.6763V29.3417H53.4607V31.4076H46.8503V34.0335H52.6925V36.2761H46.8802V39.5807H53.6673V41.6763H44.3735ZM52.929 26.5403L47.5003 18.1889V26.5403H45.0223V14.1771H47.5601L52.7808 22.4087V14.1771H55.2599V26.5403H52.929ZM60.6886 41.6464H58.3281L54.2577 29.9917V29.3417H56.7343L59.5084 38.3703L62.223 29.3716H64.642V30.0205L60.6886 41.6464ZM64.6137 26.5403L63.6684 23.7959H59.125L58.2996 26.5403H55.8204L59.9806 14.1771H62.4892L67.15 26.5403H64.6137ZM62.842 21.3752L61.2788 16.7147L59.7138 21.3752V22.054H62.9015C62.9015 21.6419 62.9015 21.582 62.842 21.3752ZM65.4095 29.3716H68.0353V41.6464H65.4095V29.3716ZM67.6807 26.5403V14.1771H70.1309V24.4447H75.647V26.5403H67.6807ZM74.5561 41.9701C67.8003 42.1183 66.6181 29.0767 74.585 29.165C79.0114 29.165 79.7782 32.8532 79.9549 33.4134H77.5059C77.1224 32.6477 76.1188 31.1722 74.8813 31.0825C70.5144 30.7887 70.5144 40.0227 74.8813 40.0227C76.9758 40.0227 77.4776 37.9283 77.5942 37.6929H79.985C79.985 37.7217 79.6887 41.9116 74.5561 41.9701ZM81.3421 26.7457C73.4046 26.7457 73.7009 13.9404 81.4304 14.0002C88.8954 14.0586 89.1022 26.7457 81.3421 26.7457ZM81.2537 24.6812C85.8261 24.7097 85.8261 16.1531 81.3421 16.0947C76.8874 16.0647 76.739 24.6513 81.2537 24.6812ZM80.4273 41.6763V29.3417H89.1894V31.5857H82.7881V34.1218H88.4519V36.3345H82.8163V39.5807H89.4856V41.6763H80.4273ZM97.0685 26.2439V25.0648C96.8034 25.2999 95.6219 26.8053 93.409 26.7457C85.8574 26.5688 85.8261 14.1771 93.7642 14.029C95.6802 14.029 97.274 15.2392 97.8942 16.0947C98.6323 17.0683 98.6912 17.895 98.7206 18.1019H96.6255C96.1532 17.3334 95.4151 16.036 93.6758 16.036C89.0721 15.9776 88.7782 24.6812 93.6458 24.7684C95.7998 24.8269 96.8906 22.5857 96.8906 22.5569V21.9069H93.9408V19.9894H99.0145V26.2439H97.0685ZM94.766 42C89.5439 42 89.6028 37.9869 89.6028 37.9869H91.9636C91.9636 37.9869 91.7857 39.9344 94.4138 40.1113C95.0629 40.141 97.1869 39.8759 97.1869 38.4002C97.1869 36.6895 95.0317 36.7765 93.6758 36.3943C92.317 36.0393 89.7507 35.4492 89.7507 33.0598C89.7507 30.9654 91.4617 29.165 94.766 29.165C99.193 29.1949 99.163 32.6178 99.193 32.8244H96.9218C96.7722 32.3215 96.6255 31.1124 94.6494 31.0539C93.6758 31.0539 92.1998 31.3788 92.1998 32.5281C92.1998 33.9751 93.8513 34.1805 95.593 34.4455C98.2194 34.9487 99.7243 35.7458 99.6348 38.1636C99.5764 40.288 97.6875 42 94.766 42Z" fill="#D5D8DD"/>
</svg>
