<svg width="87" height="64" viewBox="0 0 87 64" fill="none" xmlns="http://www.w3.org/2000/svg">
<path d="M15.1239 38.0036C18.7686 38.0036 21.5867 35.1943 21.5867 31.037V14.8572H25.5316V41.0747H21.6243V38.6401C19.8584 40.4751 17.4162 41.5238 14.6727 41.5238C9.03585 41.5238 4.71436 37.4415 4.71436 31.2643V14.8615H8.65923V31.037C8.65923 35.2692 11.4398 38.0036 15.1227 38.0036" fill="#5FCAE9"/>
<path fill-rule="evenodd" clip-rule="evenodd" d="M32.2589 14.8579H28.4638L28.4583 41.0736H32.2182V38.6777C34.022 40.5049 36.4882 41.5309 39.0601 41.5239C44.697 41.5239 49.1307 37.0675 49.1307 31.5618C49.1307 26.0186 44.697 21.5616 39.0601 21.5616C36.5003 21.556 34.0471 22.5828 32.2589 24.4084V14.8579ZM45.3736 31.5618C45.3736 35.2319 42.4051 38.1911 38.7974 38.1911C35.1145 38.1911 32.1836 35.2319 32.1836 31.5618C32.1836 27.8537 35.1521 24.9325 38.7974 24.9325C42.4051 24.9325 45.3736 27.8537 45.3736 31.5618Z" fill="#5FCAE9"/>
<path fill-rule="evenodd" clip-rule="evenodd" d="M70.0625 31.5241C70.0625 25.8311 66.0036 21.5989 60.4802 21.5989H60.4808C54.8815 21.5989 50.6353 26.1309 50.6353 31.5241C50.6353 37.2166 55.0695 41.4863 60.8186 41.4863C64.3135 41.4863 67.1692 39.951 69.0862 37.404L66.3426 35.3816C64.9151 37.2916 63.0376 38.191 60.8186 38.191C57.5887 38.191 54.9962 35.8688 54.4698 32.7602H70.0625V31.5241ZM66.2299 29.7641H54.5432C55.22 26.8423 57.5875 24.8948 60.4056 24.8948C63.2238 24.8948 65.5913 26.8423 66.2299 29.7641Z" fill="#5FCAE9"/>
<path d="M80.2456 25.3446C77.7653 25.3446 75.9617 27.2546 75.9617 30.2133V41.0748H72.166V21.9737H75.926V24.3353C76.8654 22.7994 78.4063 21.8257 80.5107 21.8257H81.8254V25.3465L80.2456 25.3446Z" fill="#5FCAE9"/>
</svg>
