<svg width="108" height="56" viewBox="0 0 108 56" fill="none" xmlns="http://www.w3.org/2000/svg">
    <path d="M101.426 33.4696C101.426 31.9224 102.686 30.6394 104.204 30.6394C105.723 30.6394 106.983 31.9224 106.983 33.4696C106.983 35.0168 105.723 36.2998 104.204 36.2998C102.686 36.2998 101.426 35.0168 101.426 33.4696Z" fill="#5FCAE9"/>
    <path fill-rule="evenodd" clip-rule="evenodd" d="M15.3729 33.318C17.114 31.5444 17.966 29.0538 17.966 25.7708C17.966 22.7142 17.114 20.4123 15.5211 18.7519C13.8541 17.1293 11.5203 16.3369 8.51975 16.3369H2V35.9595H8.07522C11.224 35.9595 13.6318 35.0916 15.3729 33.318ZM11.6314 21.9602C12.3352 22.8281 12.6686 24.1488 12.6686 25.9602C12.6686 27.8847 12.3352 29.3187 11.5944 30.2621C10.8535 31.2054 9.74217 31.6583 8.18632 31.6583H7.03795V20.6771H8.51971C9.92739 20.6771 10.9646 21.0922 11.6314 21.9602Z" fill="#5FCAE9"/>
    <rect x="34.7841" y="16.2998" width="4.85277" height="19.6981" fill="#5FCAE9"/>
    <path fill-rule="evenodd" clip-rule="evenodd" d="M53.6393 34.2243C54.8618 32.9036 55.4915 31.0168 55.4915 28.6394C55.4915 27.13 55.2322 25.7715 54.6395 24.6772C54.0468 23.5074 53.2689 22.6394 52.1946 22.0357C51.1203 21.4319 49.8979 21.13 48.5273 21.13C46.3046 21.13 44.5635 21.7715 43.3411 23.0923C42.1186 24.413 41.4889 26.2621 41.4889 28.6394C41.4889 30.9791 42.1186 32.8281 43.3781 34.1866C44.6376 35.5451 46.3417 36.2243 48.4532 36.2243C50.6758 36.2243 52.4169 35.5451 53.6393 34.2243ZM46.8974 31.5074C46.564 30.8659 46.4159 29.8847 46.4159 28.6394C46.4159 27.3942 46.6011 26.4508 46.9345 25.8093C47.2679 25.1677 47.7865 24.8659 48.5274 24.8659C49.2682 24.8659 49.8239 25.1677 50.1203 25.8093C50.4536 26.4508 50.6018 27.3942 50.6018 28.6394C50.6018 29.8847 50.4166 30.8659 50.1203 31.5074C49.8239 32.1489 49.2682 32.4885 48.5274 32.4885C47.7494 32.4885 47.2308 32.1489 46.8974 31.5074Z" fill="#5FCAE9"/>
    <rect x="57.4178" y="21.3564" width="4.85277" height="14.6415" fill="#5FCAE9"/>
    <rect x="57.4178" y="16.2998" width="4.85277" height="3.28302" fill="#5FCAE9"/>
    <path d="M72.0504 32.2621C72.7172 32.2621 73.4951 32.1111 74.3842 31.7715V35.4696C73.7174 35.7715 73.1247 35.9602 72.532 36.1111C71.9393 36.2243 71.2354 36.2998 70.4575 36.2998C68.8276 36.2998 67.6792 35.8847 66.9383 35.0545C66.2345 34.2243 65.8641 32.9413 65.8641 31.2432V25.2055H64.16V21.4319H65.8641V17.6205L70.7539 16.7526V21.3564H73.8285V25.13H70.7539V30.8281C70.7539 31.7715 71.1984 32.2621 72.0504 32.2621Z" fill="#5FCAE9"/>
    <path d="M83.2745 32.2621C83.9413 32.2621 84.7193 32.1111 85.6083 31.7715V35.4696C84.9415 35.7715 84.3488 35.9602 83.7561 36.1111C83.1634 36.2243 82.4596 36.2998 81.6816 36.2998C80.0517 36.2998 78.9033 35.8847 78.1625 35.0545C77.4586 34.2243 77.0882 32.9413 77.0882 31.2432V25.2055H75.3842V21.4319H77.0882V17.6583L81.978 16.8658V21.4696H85.0526V25.2432H81.978V30.9413C81.9409 31.7715 82.3855 32.2621 83.2745 32.2621Z" fill="#5FCAE9"/>
    <path fill-rule="evenodd" clip-rule="evenodd" d="M93.647 21.0923C95.7585 21.0923 97.3885 21.6961 98.5368 22.8281C99.6852 23.9602 100.241 25.6206 100.278 27.8847V30.1112H91.6466C91.6837 30.9413 91.943 31.5829 92.4987 32.0357C93.0543 32.4885 93.7952 32.7149 94.7213 32.7149C95.5733 32.7149 96.3512 32.6017 97.0551 32.4508C97.5366 32.3376 98.0553 32.1489 98.6109 31.9225L99.3518 35.2055C98.6109 35.6206 97.833 35.8847 97.018 36.0357C96.2031 36.1866 95.2399 36.2621 94.1286 36.2621C91.7948 36.2621 89.9797 35.6206 88.6831 34.3376C87.3866 33.0168 86.7568 31.1678 86.7568 28.7904C86.7568 26.2998 87.3495 24.413 88.5349 23.0923C89.7204 21.7338 91.4244 21.0923 93.647 21.0923ZM92.3874 25.0923C92.0169 25.4696 91.7947 26.0734 91.7206 26.8659H95.9065C95.8695 26.1489 95.6843 25.5829 95.3138 25.1678C94.9434 24.7527 94.4618 24.5262 93.8321 24.5262C93.2394 24.5262 92.7578 24.7149 92.3874 25.0923Z" fill="#5FCAE9"/>
    <path fill-rule="evenodd" clip-rule="evenodd" d="M26.3011 21.0923C28.4126 21.0923 30.0425 21.6961 31.1909 22.8281C32.3393 23.9602 32.932 25.6206 32.932 27.8847V30.1112H24.3007C24.3377 30.9413 24.5971 31.5829 25.1527 32.0357C25.7084 32.4885 26.4493 32.7149 27.3754 32.7149C28.2274 32.7149 29.0053 32.6017 29.7091 32.4508C30.1907 32.3376 30.7093 32.1489 31.265 31.9225L32.0059 35.2055C31.265 35.6206 30.4871 35.8847 29.6721 36.0357C28.8571 36.1866 27.894 36.2621 26.7827 36.2621C24.4489 36.2621 22.6337 35.6206 21.3372 34.3376C20.0406 33.0168 19.4109 31.1678 19.4109 28.7904C19.4109 26.2998 20.0036 24.413 21.189 23.0923C22.3744 21.7338 24.0784 21.0923 26.3011 21.0923ZM25.0414 25.0923C24.6709 25.4696 24.4487 26.0734 24.3746 26.8659H28.5606C28.5235 26.1489 28.3383 25.5829 27.9679 25.1678C27.5974 24.7527 27.1158 24.5262 26.4861 24.5262C25.8934 24.5262 25.4118 24.7149 25.0414 25.0923Z" fill="#5FCAE9"/>
</svg>
