<svg id="Layer_1" data-name="Layer 1" xmlns="http://www.w3.org/2000/svg" viewBox="0 0 910.89 542.06">
  <defs>
    <style>
      .cls-1 {
        fill: #0057a4;
      }

      .cls-2 {
        fill: #231f20;
      }
    </style>
  </defs>
  <path class="cls-1" d="M113.84,352.67a1.41,1.41,0,0,1-.57-.11C19.76,313.9-24.71,206.74,14,113.23A183.24,183.24,0,0,1,183,0h1a183.22,183.22,0,0,1,134.5,60.16,1.47,1.47,0,0,1,.54,1.15,1.49,1.49,0,0,1-1.48,1.5h0a1.51,1.51,0,0,1-1-.4A176.29,176.29,0,0,0,197.25,15.28h-.95a177.38,177.38,0,0,0-81.76,334.56,1.5,1.5,0,0,1-.7,2.83Z"/>
  <path class="cls-1" d="M274.82,145a10.88,10.88,0,0,1,3.49-8,11.07,11.07,0,0,1,2.75-1.85,10.77,10.77,0,0,1,4.63-1h33.17v2.76a3.62,3.62,0,0,1-2.73,3.51l-2.08.31a39.29,39.29,0,0,0-5.63,1.41c-4.08,1.31-5.22,4.41-5.22,8.16v60.08c0,22.35,10.11,32.14,29,32.14,18.43,0,29.52-11.58,29.52-33.28V145a10.87,10.87,0,0,1,10.85-10.87h14.2v2.76a3.62,3.62,0,0,1-2.73,3.51l-.84.11a39.62,39.62,0,0,0-6.87,1.61c-4.07,1.31-5.22,4.41-5.22,8.16l.07,61.88c0,12.23-4.24,22.18-12.56,29.85q-12.48,11.25-33.27,11.25c-32.14,0-50.57-15.33-50.57-41.26Z"/>
  <g>
    <path class="cls-1" d="M258,175.05a7.49,7.49,0,0,0,.36.69L258,175Z"/>
    <path class="cls-1" d="M268.77,220.55a5.42,5.42,0,0,0-7.53,1.5h0c-9,13.37-19.52,19.94-33,19.94-10.27,0-18.75-3.43-24.79-11.75-5.87-7.66-9.78-20.39-9.78-38.17,0-31.8,10.6-50.23,30.66-50.23,15.41,0,25.76,10.27,33.62,33.17l.37.72a5.45,5.45,0,0,0,4.52,2.64h3.27l.06-33.71a10.78,10.78,0,0,0-3.47-7.59,10.41,10.41,0,0,0-2.74-1.85,10.71,10.71,0,0,0-4.63-1h-32c-17.45,0-33.27,6.2-43.88,16.8C168.35,161.91,162,177.24,162,194.7s6.36,32.78,17,42.73c10.6,10.28,25.61,15.82,42.08,15.82,13.7,0,23.49-3.59,31.8-9.46,7.67-5.22,13.38-12.72,17.95-22Z"/>
  </g>
  <path class="cls-1" d="M151.57,198.89a10.5,10.5,0,0,0-2.88-.78,9.29,9.29,0,0,0-1.49-.15H113.53v1.71a5.41,5.41,0,0,0,3.61,5.1,5.15,5.15,0,0,0,1.55.31h0a36.4,36.4,0,0,1,6.88,2c4.08,2,5.06,4.41,5.06,8.16v23c-3.92,3.75-11.58,7-20.88,7-20.06,0-31.32-19.9-31.32-53.18,0-31.31,11.59-50.23,32-50.23,16.32,0,26.94,10.54,34.68,33.12a.19.19,0,0,0,0,.13,5.43,5.43,0,0,0,4.86,3.28h3.15V145a10.77,10.77,0,0,0-10.8-10.86H109.29c-18.92,0-34.74,5.88-45.67,16.8-11.09,10.61-17,26.1-17,43.72,0,18.91,6.53,33.76,17.46,43.55,10.6,10,25.45,15,41.76,15a111,111,0,0,0,28.7-4.24,115,115,0,0,0,20-7.14l.82-.4a5.38,5.38,0,0,0,2.67-4.53V208.82A10.85,10.85,0,0,0,151.57,198.89Z"/>
  <path class="cls-2" d="M176,303.72a18.85,18.85,0,0,0-4.18.93c-1.33.59-1.8,1.85-1.8,3.45v8.82c.07.87.07,1.66.14,2.26a41.32,41.32,0,0,1-16.93,4,22.26,22.26,0,0,1-15.66-6.37,24.23,24.23,0,0,1-6.7-17.32A24.94,24.94,0,0,1,137.52,282,22.7,22.7,0,0,1,154,275.13a21.78,21.78,0,0,1,11.88,3.18l1.33-2.19h2.59l.26,16.07h-2.65a26.07,26.07,0,0,0-4.25-9.83,11.26,11.26,0,0,0-9.36-4.51,12.76,12.76,0,0,0-10.88,5.63c-2.66,3.52-4.12,9.1-4.12,15.67,0,5.84,1.4,11.21,4.12,14.93a13.85,13.85,0,0,0,11.81,6.24c3.79,0,7.24-1.46,8.57-2.72a43.68,43.68,0,0,0,.26-6.37V308.7c0-1.79-.33-3.32-1.92-3.91-1.4-.73-4.39-1-5.71-1.06V301.4H176Z"/>
  <path class="cls-2" d="M193.1,322.1H177.5V320a18.81,18.81,0,0,0,3-.4c1.13-.33,1.79-1.33,1.79-2.92V282.81A4.82,4.82,0,0,0,180.5,279a13.76,13.76,0,0,0-4.65-1.06v-2.12l12-.73.46.46v40.69a2.83,2.83,0,0,0,1.8,3,7.83,7.83,0,0,0,3,.73Z"/>
  <path class="cls-2" d="M478.74,322.1H463.1V320a18.81,18.81,0,0,0,3-.4c1.13-.33,1.79-1.33,1.79-2.92V282.81A4.82,4.82,0,0,0,466.1,279a13.7,13.7,0,0,0-4.64-1.06v-2.12l12-.73.46.46v40.69a2.83,2.83,0,0,0,1.8,3,7.83,7.83,0,0,0,3,.73Z"/>
  <path class="cls-2" d="M226.71,321.48a13,13,0,0,1-5.24,1.26c-3.38,0-5.44-1.65-6-4.64h-.2c-2.86,3.12-5.84,4.78-10.36,4.78-4.78,0-8.23-3.19-8.23-8a8.67,8.67,0,0,1,2.06-5.91,12.63,12.63,0,0,1,4.65-3c1-.33,2.92-1,5.91-2a38.86,38.86,0,0,0,6-2.39v-3.1a10.57,10.57,0,0,0-.93-3.91,5.34,5.34,0,0,0-5.17-2.92,7.05,7.05,0,0,0-4.58,1.52c0,.87.6,2.86.6,4.25s-1.47,3-3.85,3c-2.19,0-3.19-1.79-3.19-3.72s1.53-3.85,3.85-5.24a14.8,14.8,0,0,1,7.57-2.19c3.65,0,6.24.33,8.43,2s3.38,4.25,3.38,8.56c0,6.1-.2,10.35-.2,16a3.34,3.34,0,0,0,1.79,3.31,10.72,10.72,0,0,0,3.65.34Zm-11.28-17.1c-3.72,1.13-6.31,2-8.69,3.58a7.2,7.2,0,0,0-3.52,6.18c0,3.51,2.12,5.18,5,5.18a8.8,8.8,0,0,0,7-3.72Z"/>
  <path class="cls-2" d="M253.1,312.88a9.09,9.09,0,0,1-3.38,7.3,12.8,12.8,0,0,1-8.56,2.78,15.13,15.13,0,0,1-8.5-2.85l-.66,2.06h-2.39l-.33-11.09h2.19a14.76,14.76,0,0,0,3.18,6,9.21,9.21,0,0,0,7,3.38c4.18,0,6.5-1.92,6.5-5.44a4.62,4.62,0,0,0-2.12-4,20.55,20.55,0,0,0-6.1-2.59,19.86,19.86,0,0,1-6.58-3.05,8.58,8.58,0,0,1-3.25-6.7A8.83,8.83,0,0,1,233,292a11.13,11.13,0,0,1,7.83-2.72,17.09,17.09,0,0,1,7,1.66l.73-1.73h2.32l.53,10.29h-2.25c-.87-4.58-4.12-7.77-8.43-7.77-3.52,0-5.71,2.13-5.71,4.58a4.39,4.39,0,0,0,2,4,29.57,29.57,0,0,0,6.11,2.52,21.07,21.07,0,0,1,7.16,3.59A7.87,7.87,0,0,1,253.1,312.88Z"/>
  <path class="cls-2" d="M287.43,325.42a9.43,9.43,0,0,1-4.05,7.83c-2.92,2.06-6.77,3.25-12.68,3.25-9.62,0-14.4-2.85-14.4-8.36,0-4.31,3.85-7,9.16-7.3v-.36a14.09,14.09,0,0,1-3.78-1.79,4.55,4.55,0,0,1-1.86-3.85c0-2.32,1.59-4.31,4.84-5.64v-.53c-4-1.93-6.5-5-6.5-9a9.4,9.4,0,0,1,3.39-7.43,12.77,12.77,0,0,1,8.62-2.92,20,20,0,0,1,5.84,1.06h11.15v3.05h-7.49v.2a10,10,0,0,1,2.39,6.44,8.81,8.81,0,0,1-3.46,7.1,11.9,11.9,0,0,1-8,2.92h-3.92a3.09,3.09,0,0,0-2.32,2.79,2.57,2.57,0,0,0,2.32,2.65,23.34,23.34,0,0,0,4.78.47c.93,0,2.19.06,3.85.2s2.86.13,3.52.2a9,9,0,0,1,5.77,2.45A8.8,8.8,0,0,1,287.43,325.42Zm-8.76-3.32a85,85,0,0,0-10.22-.46c-4.71.86-6.5,3-6.5,6.37a4.85,4.85,0,0,0,2.18,4.11c1.53,1.13,4.05,1.93,7.7,1.93,6.38,0,10.29-2.39,10.29-7.44a4.16,4.16,0,0,0-3.45-4.51ZM270,291.57a4.7,4.7,0,0,0-4.38,2.39,11.75,11.75,0,0,0-1.19,5.71c0,4.78,2.25,8.09,5.64,8.09,3.72,0,5.77-3.38,5.77-7.89,0-5.11-2.12-8.3-5.84-8.3Z"/>
  <path class="cls-2" d="M316.7,318A14.66,14.66,0,0,1,305,323.1a14.84,14.84,0,0,1-10.69-4.52,17.22,17.22,0,0,1-4.64-12.34c0-5,1.46-9.09,4.38-12.21a15.88,15.88,0,0,1,22.43-.27q4.38,4.5,4.38,12A19.2,19.2,0,0,1,316.7,318Zm-4.52-21.84c-1.39-2.66-3.58-4.45-6.83-4.45a7.5,7.5,0,0,0-7.1,4.58,21.41,21.41,0,0,0-1.93,9.43c0,4.18.59,7.63,2.12,10.48s3.65,4.45,6.91,4.45c5.37,0,8.76-5.57,8.76-14.8,0-3.19-.6-7.23-1.93-9.69Z"/>
  <path class="cls-2" d="M371.38,292.23a6.45,6.45,0,0,0-5.18,4.12c-2.19,6.37-3.91,11.55-6.3,18.65-.8,2.19-1.66,5-2.26,7.3h-2.79l-8.56-23.5-8.69,23.5h-2.66c-1.59-4.78-3.19-9.49-4.71-14.2s-2.92-8.83-4.12-12.35a5.81,5.81,0,0,0-4.78-3.45v-2.13h14.21v2.31c-1.4,0-3.52.4-3.52,1.4a5,5,0,0,0,.4,1.46c1.33,4.51,3,9.55,5.71,18.51l8.16-23h3.12l8.3,22.7c1.85-5.77,3.85-11.28,5.24-16.06a12.23,12.23,0,0,0,.6-2.92c0-.73-.73-1.4-1.8-1.73a8,8,0,0,0-2.52-.53v-2.06h12.15Z"/>
  <path class="cls-2" d="M393.87,316.86c-3.79-4.05-6.31-10-6.31-17.33s2.39-13.4,6.37-17.72a21.64,21.64,0,0,1,26.95-3.52l1.33-2.19h2.59l.3,16.38h-2.72a28.32,28.32,0,0,0-4-10,10.07,10.07,0,0,0-8.56-4.71,12.61,12.61,0,0,0-10.55,5.58c-2.46,3.45-4,9-4,15.66,0,5.91,1.46,10.89,4.31,14.6a13.89,13.89,0,0,0,19.36,3.28l.55-.42a18.16,18.16,0,0,0,4.85-7.24l2.39,1.2c-3.72,9.09-9.83,12.67-18.32,12.67A20.19,20.19,0,0,1,393.87,316.86Z"/>
  <path class="cls-2" d="M459.57,321.48a13.06,13.06,0,0,1-5.25,1.26c-3.38,0-5.44-1.65-6-4.64h-.2c-2.85,3.12-5.84,4.78-10.36,4.78-4.77,0-8.22-3.19-8.22-8a8.65,8.65,0,0,1,2-5.91,12.63,12.63,0,0,1,4.65-3c1-.33,2.92-1,5.91-2a40.32,40.32,0,0,0,6-2.39v-3.1a10.57,10.57,0,0,0-.93-3.91,5.36,5.36,0,0,0-5.18-2.92,7.05,7.05,0,0,0-4.58,1.52c0,.87.6,2.86.6,4.25s-1.46,3-3.85,3c-2.19,0-3.19-1.79-3.19-3.72s1.53-3.85,3.85-5.24a14.8,14.8,0,0,1,7.57-2.19c3.65,0,6.24.33,8.43,2s3.38,4.25,3.38,8.56c0,6.1-.2,10.35-.2,16a3.37,3.37,0,0,0,1.79,3.31,10.78,10.78,0,0,0,3.66.34Zm-11.29-17.1c-3.71,1.13-6.3,2-8.69,3.58a7.2,7.2,0,0,0-3.52,6.18c0,3.51,2.13,5.18,5,5.18a8.79,8.79,0,0,0,7-3.72Z"/>
  <path class="cls-2" d="M509.8,314.6c-2.66,5-7.3,8.36-13.14,8.36-5.11,0-9-1.92-11.55-5a19.57,19.57,0,0,1-3.72-12.08,18.25,18.25,0,0,1,3.92-11.48A13.32,13.32,0,0,1,496,289.29c4.72,0,8,1.52,10.09,4.11A15,15,0,0,1,509,303v2.12H487.83c0,4.25.73,7.63,2.52,10.22a9.35,9.35,0,0,0,8.17,4c3.78,0,6.37-1.59,9-6.17Zm-7.17-12.21c0-2.39-.33-5.51-1.33-7.37a5.68,5.68,0,0,0-5.37-3.32c-4.51,0-7.83,4-8.1,10.69Z"/>
  <path class="cls-2" d="M547.76,321.48l-11.09.74-.53-.47v-3l-.26-.06a12.53,12.53,0,0,1-9.23,4.31,12.79,12.79,0,0,1-9.69-4.65A18.75,18.75,0,0,1,512.78,306a17.9,17.9,0,0,1,4.51-12A14.86,14.86,0,0,1,528,289.23a16.24,16.24,0,0,1,8.1,2v-8a5,5,0,0,0-1.73-4.18c-1.13-.8-3.38-1.06-5.77-1.26v-2.06l13.07-.73.53.46v40a3.66,3.66,0,0,0,1.66,3.25,8.92,8.92,0,0,0,3.92.6ZM536.1,297.21a8.51,8.51,0,0,0-2.26-3.58,8.11,8.11,0,0,0-5.18-1.93c-2.58,0-4.84,1.46-6.5,3.92s-2.59,6.3-2.59,10.82a16.57,16.57,0,0,0,2.26,9.09,8.15,8.15,0,0,0,7.1,4A9.08,9.08,0,0,0,536.1,316Z"/>
  <path class="cls-2" d="M575.56,318a14.63,14.63,0,0,1-11.75,5.11,14.79,14.79,0,0,1-10.71-4.52,17.19,17.19,0,0,1-4.65-12.34c0-5,1.46-9.09,4.38-12.21a15.86,15.86,0,0,1,22.43-.27h0q4.4,4.5,4.39,12A19.13,19.13,0,0,1,575.56,318Zm-4.46-21.84c-1.4-2.66-3.59-4.45-6.84-4.45a7.5,7.5,0,0,0-7.1,4.58,21.41,21.41,0,0,0-1.93,9.43c0,4.18.6,7.63,2.13,10.48s3.65,4.45,6.9,4.45c5.38,0,8.76-5.57,8.76-14.8C573,302.65,572.38,298.61,571.1,296.15Z"/>
  <path class="cls-2" d="M617.3,322.1H601.64V320a15.5,15.5,0,0,0,3.12-.4c1.26-.33,1.79-1.33,1.79-2.92V300.2c0-4.51-2.52-7.11-5.51-7.11a10.36,10.36,0,0,0-5.71,1.86,9,9,0,0,0-2.59,3v18.39a2.77,2.77,0,0,0,1.8,2.92,8,8,0,0,0,3.11.73v2.12H582V320a13.6,13.6,0,0,0,2.92-.4c1.26-.33,1.79-1.33,1.79-2.92V297a4.25,4.25,0,0,0-1.79-3.59,7.63,7.63,0,0,0-3.25-.79v-2.09l10.62-.66.46.46v4.45h.14a31.69,31.69,0,0,1,4.18-3.59,11.87,11.87,0,0,1,6.57-1.85c6.11,0,9,4.18,9,10.55v16.59a2.73,2.73,0,0,0,1.72,2.93,6.88,6.88,0,0,0,2.92.66Z"/>
  <path class="cls-2" d="M636.1,322.1H620.61V320a13.6,13.6,0,0,0,2.92-.4c1.26-.33,1.79-1.33,1.79-2.92V297a4,4,0,0,0-1.79-3.39,9.47,9.47,0,0,0-3.91-1v-2.08l11.28-.66.46.46v26a2.79,2.79,0,0,0,1.8,3,10.61,10.61,0,0,0,2.92.73Zm-8.3-38.23a4.26,4.26,0,0,1-4-4.31,4.34,4.34,0,0,1,4-4.45,4.23,4.23,0,0,1,4.25,4.18,4.43,4.43,0,0,1-4.27,4.58Z"/>
  <path class="cls-2" d="M231.29,384.41H215.82v-2.12a13.69,13.69,0,0,0,2.93-.4c1.26-.33,1.79-1.33,1.79-2.92V359.26a4,4,0,0,0-1.79-3.39,9.52,9.52,0,0,0-3.92-1v-2.12l11.28-.66.47.46v26a2.8,2.8,0,0,0,1.79,3,10.61,10.61,0,0,0,2.92.73ZM223,346.18a4.26,4.26,0,0,1-4.05-4.32,4.34,4.34,0,0,1,4.05-4.44,4.21,4.21,0,0,1,4.25,4.18,4.44,4.44,0,0,1-4.25,4.58Z"/>
  <path class="cls-2" d="M366,384.41H350.53v-2.13a13,13,0,0,0,2.92-.39c1.26-.33,1.8-1.33,1.8-2.92V359.25a4,4,0,0,0-1.8-3.38,9.47,9.47,0,0,0-3.91-1v-2.12l11.28-.67.46.47v26a2.82,2.82,0,0,0,1.8,3,10.59,10.59,0,0,0,2.92.72Zm-8.3-38.23a4.26,4.26,0,0,1-4.05-4.32,4.34,4.34,0,0,1,4.05-4.44A4.21,4.21,0,0,1,362,341.6a4.45,4.45,0,0,1-4.25,4.58Z"/>
  <path class="cls-2" d="M669.59,321.48a13,13,0,0,1-5.24,1.26c-3.39,0-5.45-1.65-6-4.64h-.2c-2.85,3.12-5.84,4.78-10.35,4.78-4.78,0-8.23-3.19-8.23-8a8.67,8.67,0,0,1,2.06-5.91,12.63,12.63,0,0,1,4.65-3c1-.33,2.92-1,5.9-2a38.86,38.86,0,0,0,6-2.39v-3.1a10.57,10.57,0,0,0-.93-3.91,5.34,5.34,0,0,0-5.17-2.92,7.05,7.05,0,0,0-4.58,1.52c0,.87.59,2.86.59,4.25s-1.46,3-3.84,3c-2.2,0-3.19-1.79-3.19-3.72s1.52-3.85,3.85-5.24a14.76,14.76,0,0,1,7.56-2.19c3.65,0,6.24.33,8.43,2s3.39,4.25,3.39,8.56c0,6.1-.2,10.35-.2,16a3.34,3.34,0,0,0,1.79,3.31,10.72,10.72,0,0,0,3.65.34Zm-11.28-17.1c-3.72,1.13-6.31,2-8.7,3.58a7.24,7.24,0,0,0-3.51,6.18c0,3.51,2.12,5.18,5,5.18a8.8,8.8,0,0,0,7-3.72Z"/>
  <path class="cls-2" d="M707.42,322.1H691.75V320a15.5,15.5,0,0,0,3.12-.4c1.26-.33,1.79-1.33,1.79-2.92V300.2c0-4.51-2.52-7.11-5.5-7.11a10.36,10.36,0,0,0-5.71,1.86,9,9,0,0,0-2.59,3v18.39a2.76,2.76,0,0,0,1.79,2.92,7.87,7.87,0,0,0,3.12.73v2.12H672.1V320a13.6,13.6,0,0,0,2.92-.4c1.26-.33,1.79-1.33,1.79-2.92V297a4.26,4.26,0,0,0-1.79-3.59,7.63,7.63,0,0,0-3.25-.79v-2.09l10.61-.66.47.46v4.45H683a34,34,0,0,1,4.18-3.59,11.87,11.87,0,0,1,6.57-1.85c6.11,0,9,4.18,9,10.55v16.59a2.72,2.72,0,0,0,1.73,2.93,6.88,6.88,0,0,0,2.92.66Z"/>
  <g>
    <path class="cls-2" d="M178.1,340.74a11.83,11.83,0,0,0-5.51,1.46c-1.53,1-2,4.24-2,8.76v20a13.17,13.17,0,0,1-5.78,11.28A19,19,0,0,1,154,385.56c-5.51,0-9.89-1.6-12.81-4a11.91,11.91,0,0,1-4.38-9.23V345.12a3.2,3.2,0,0,0-1.86-3.32,12.32,12.32,0,0,0-4.18-1.06v-2.33h19.18v2.33a16.3,16.3,0,0,0-4.31.79c-1.53.47-1.86,1.86-1.86,3.25v25.43a13.65,13.65,0,0,0,2,7.63c1.66,2.39,4.38,4,9.43,4,4.78,0,7.9-1.66,9.75-4.12a11.94,11.94,0,0,0,2.46-7.5V351.36c0-4.78-.73-8-2.06-8.83a7,7,0,0,0-3.12-1.26,17.77,17.77,0,0,0-3-.53v-2.33H178.1Z"/>
    <path class="cls-2" d="M212.51,384.41H196.85v-2.13a14.8,14.8,0,0,0,3.12-.39c1.26-.33,1.79-1.33,1.79-2.92V362.48c0-4.52-2.52-7.11-5.51-7.11a10.36,10.36,0,0,0-5.71,1.86,8.78,8.78,0,0,0-2.58,3v18.39a2.76,2.76,0,0,0,1.79,2.92,7.7,7.7,0,0,0,3.12.72v2.13H177.2v-2.11a13,13,0,0,0,2.92-.39c1.27-.33,1.8-1.33,1.8-2.92V359.25a4.24,4.24,0,0,0-1.8-3.58,7.64,7.64,0,0,0-3.25-.8v-2.12l10.62-.66.47.46V357h.14a33.26,33.26,0,0,1,4.18-3.59,11.87,11.87,0,0,1,6.57-1.85c6.11,0,9,4.18,9,10.55V378.7a2.72,2.72,0,0,0,1.72,2.92,6.57,6.57,0,0,0,2.92.66Z"/>
    <path class="cls-2" d="M264.47,354.41a6.35,6.35,0,0,0-5,3.85c-2.59,5.84-5.24,12.08-8.17,19-.86,2.06-1.92,5-2.72,7.44H246c-4-10.09-7.3-17.93-11-26.69a6.23,6.23,0,0,0-5-3.38v-2.15h14.73v2.26a9.72,9.72,0,0,0-2.39.4c-1,.2-1.46.53-1.46,1,0,.19.27.73.47,1.45.86,2.2,2.12,5.31,3.72,9.23s3,7.1,4,9.56c1.59-3.72,4-9.36,6.77-16.2a8.46,8.46,0,0,0,.93-3.18c0-.73-.87-1.4-1.86-1.73a9.6,9.6,0,0,0-2.59-.73v-2.06h12.21Z"/>
    <path class="cls-2" d="M292.94,376.91c-2.66,5-7.3,8.36-13.14,8.36-5.11,0-9-1.92-11.55-5a19.57,19.57,0,0,1-3.72-12.08,18.25,18.25,0,0,1,3.92-11.48,13.31,13.31,0,0,1,10.65-5.15c4.71,0,8,1.52,10.09,4.11a15,15,0,0,1,2.92,9.62v2.13H271c0,4.24.73,7.63,2.52,10.22a9.39,9.39,0,0,0,8.17,4.05c3.78,0,6.37-1.6,9-6.17Zm-7.17-12.21c0-2.39-.33-5.51-1.33-7.37a5.68,5.68,0,0,0-5.37-3.32c-4.51,0-7.83,4-8.1,10.69Z"/>
    <path class="cls-2" d="M317.1,360.78c-2.39,0-3.71-1.46-3.71-3a9.22,9.22,0,0,1,.33-2.45c-2.06,0-5.18,1.72-7,4.71v18.59a2.72,2.72,0,0,0,1.79,2.92,15.15,15.15,0,0,0,4.32.72v2.13H295.92v-2.12a13,13,0,0,0,2.92-.39c1.26-.33,1.79-1.33,1.79-2.92V359.25a4.4,4.4,0,0,0-1.79-3.58,7.64,7.64,0,0,0-3.25-.8v-2.12l10.62-.66.46.46V357h.14c2.65-3.45,6.3-5.31,9-5.31a4.55,4.55,0,0,1,4.65,4.91C320.41,358.72,319.28,360.78,317.1,360.78Z"/>
    <path class="cls-2" d="M346.36,375.18a9.09,9.09,0,0,1-3.39,7.31,12.8,12.8,0,0,1-8.56,2.78,15.13,15.13,0,0,1-8.5-2.85l-.66,2.06h-2.39l-.33-11.09h2.19a14.76,14.76,0,0,0,3.18,6,9.2,9.2,0,0,0,7,3.39c4.18,0,6.51-1.93,6.51-5.44a4.63,4.63,0,0,0-2.12-4,20.5,20.5,0,0,0-6.11-2.59,19.81,19.81,0,0,1-6.57-3.05,8.55,8.55,0,0,1-3.25-6.71,8.81,8.81,0,0,1,2.92-6.63,11.07,11.07,0,0,1,7.83-2.72,16.93,16.93,0,0,1,7,1.66l.73-1.73h2.33l.53,10.29h-2.26c-.86-4.58-4.11-7.77-8.43-7.77-3.52,0-5.71,2.13-5.71,4.58a4.41,4.41,0,0,0,2,4,30.14,30.14,0,0,0,6.11,2.52,21.19,21.19,0,0,1,7.17,3.58A8,8,0,0,1,346.36,375.18Z"/>
    <path class="cls-2" d="M387.37,383c-2.86,1.13-5,2.05-8.63,2.05-5.31,0-7.3-2.85-7.3-7.69V355.67h-5.78v-3.05h5.91v-10h5.91v10h9.16v3.05h-9.1v17.81c0,2.73.07,4.38.87,5.71s2,1.92,4.31,1.92a20.73,20.73,0,0,0,4.65-.53Z"/>
    <path class="cls-2" d="M392.8,391.18a4.2,4.2,0,0,1,3.12,1.39,12.72,12.72,0,0,1,1.93,2.73c1.13-.6,2.39-2.13,3.85-4.59a39.91,39.91,0,0,0,3.32-6.43c-2.06-5.11-4-9.69-5.65-13.74S396,362.31,394.2,358c-.8-2.05-3.06-3.12-5-3.38v-2.13h14.53v2.26a8.82,8.82,0,0,0-2.32.4c-.86.2-1.33.53-1.33.86a6.76,6.76,0,0,0,.47,1.59c.86,2.13,2.12,5.18,3.78,9.23s3,7.24,3.92,9.69c1.92-4.58,3.91-9.22,6.5-15.93a12.24,12.24,0,0,0,1.13-3.58c0-.6-.53-1.13-1.53-1.6a8.48,8.48,0,0,0-2.78-.86v-2.06h11.88v2a7,7,0,0,0-4.91,3.78c-2.59,6-4.85,11.42-6.91,16.33s-3.53,8.49-4.53,10.81c-2.72,6.05-4.71,9.16-6.77,11.09s-3.45,2.32-5.25,2.32c-3.38,0-5.37-1.85-5.37-4S391,391.18,392.8,391.18Z"/>
  </g>
  <g>
    <path class="cls-1" d="M173.1,495.67A13.89,13.89,0,0,0,171,496a6.46,6.46,0,0,0-2.27.86,3.6,3.6,0,0,0-1.22,2.45,27.72,27.72,0,0,0-.34,4.55v16a10.53,10.53,0,0,1-1.26,5.3,11.17,11.17,0,0,1-3.34,3.7,13.84,13.84,0,0,1-4.3,2,16.64,16.64,0,0,1-4.33.61,18.47,18.47,0,0,1-5.9-.87,13.34,13.34,0,0,1-4.34-2.34,10,10,0,0,1-2.62-3.37,9.52,9.52,0,0,1-.88-4v-21.7a3.39,3.39,0,0,0-.29-1.51,2.73,2.73,0,0,0-1.21-1.12A5.61,5.61,0,0,0,137,496a14.93,14.93,0,0,0-1.65-.27v-1.83h15.28v1.83a14.3,14.3,0,0,0-1.83.23,11.43,11.43,0,0,0-1.61.39,1.84,1.84,0,0,0-1.18,1,4.21,4.21,0,0,0-.3,1.57v20.26a16.05,16.05,0,0,0,.33,3.09,8.17,8.17,0,0,0,1.28,3,7.62,7.62,0,0,0,2.75,2.36,10.3,10.3,0,0,0,4.76.91,11.15,11.15,0,0,0,4.77-.91,8,8,0,0,0,3-2.38,8.64,8.64,0,0,0,1.47-2.92,10.32,10.32,0,0,0,.44-3.07v-15a21.1,21.1,0,0,0-.41-4.69,3.94,3.94,0,0,0-1.21-2.39,6.92,6.92,0,0,0-2.47-1,16.06,16.06,0,0,0-2.4-.42v-1.83h15Z"/>
    <path class="cls-1" d="M203.51,530.53H191v-1.71l1.31-.1a4.72,4.72,0,0,0,1.18-.21,1.78,1.78,0,0,0,1.07-.81,2.83,2.83,0,0,0,.35-1.51V513.07a6.13,6.13,0,0,0-1.29-4.18,4,4,0,0,0-3.12-1.48,7,7,0,0,0-2.51.43,8.51,8.51,0,0,0-2,1,5.94,5.94,0,0,0-1.37,1.28c-.26.35-.5.71-.73,1.09v14.67a2.71,2.71,0,0,0,.36,1.44,2.27,2.27,0,0,0,1.08.88,5.1,5.1,0,0,0,1.18.39,9.82,9.82,0,0,0,1.31.18v1.71H175.35v-1.71l1.23-.1a5,5,0,0,0,1.09-.21,1.77,1.77,0,0,0,1.08-.81,2.83,2.83,0,0,0,.35-1.51V510.48a3.35,3.35,0,0,0-.38-1.61,3.15,3.15,0,0,0-1.05-1.21,3.64,3.64,0,0,0-1.16-.45,9.91,9.91,0,0,0-1.45-.19v-1.71l8.48-.57.37.36v3.6H184c.41-.41.93-.91,1.55-1.49a13.94,13.94,0,0,1,1.76-1.41,9.18,9.18,0,0,1,2.27-1,9.59,9.59,0,0,1,3-.42,6.46,6.46,0,0,1,5.45,2.29,9.66,9.66,0,0,1,1.77,6.09V526a3.1,3.1,0,0,0,.26,1.5,2.11,2.11,0,0,0,1.06.87,7.08,7.08,0,0,0,1.07.36,9,9,0,0,0,1.26.15Z"/>
    <path class="cls-1" d="M219,530.53H206.69v-1.71l1.23-.1a5,5,0,0,0,1.09-.21,1.8,1.8,0,0,0,1.08-.81,2.83,2.83,0,0,0,.35-1.51V510.48a3,3,0,0,0-.38-1.51,3.16,3.16,0,0,0-1-1.15,4.77,4.77,0,0,0-1.42-.53,9.56,9.56,0,0,0-1.7-.27v-1.71l9-.57.37.36v20.79a3,3,0,0,0,.34,1.5,2.1,2.1,0,0,0,1.09.88,9.71,9.71,0,0,0,1.11.38,7.24,7.24,0,0,0,1.21.19Zm-3.24-35.87a3.73,3.73,0,0,1-1,2.58,3.08,3.08,0,0,1-4.68.05,3.5,3.5,0,0,1-1-2.39,3.65,3.65,0,0,1,1-2.49,3,3,0,0,1,2.29-1.06,3.3,3.3,0,0,1,3.36,3.26v.05Z"/>
    <path class="cls-1" d="M247.34,506.61a6.53,6.53,0,0,0-2.24.87,5,5,0,0,0-1.8,2.24c-1,2.31-2.07,4.71-3.16,7.22s-2.21,5.15-3.38,7.9c-.35.8-.71,1.74-1.1,2.82s-.75,2.13-1.08,3.13h-2q-2.47-6.1-4.48-11.11t-4.32-10.2a3.89,3.89,0,0,0-1.68-1.9,6.75,6.75,0,0,0-2.31-.84V505h11.8v1.81a9.27,9.27,0,0,0-1.94.33q-1.17.29-1.17.81c0,.14.08.27.13.4a6.34,6.34,0,0,1,.26.73c.71,1.76,1.7,4.21,3,7.37s2.34,5.69,3.15,7.62c.62-1.48,1.4-3.33,2.34-5.53s1.95-4.67,3-7.39c.17-.46.33-.9.49-1.3a3.44,3.44,0,0,0,.23-1.23,1,1,0,0,0-.42-.79,4.22,4.22,0,0,0-1-.6,5.86,5.86,0,0,0-1.16-.39,7,7,0,0,0-.93-.18V505h9.76Z"/>
    <path class="cls-1" d="M271.1,524.53a13,13,0,0,1-4.29,4.86,10.75,10.75,0,0,1-6.18,1.81,12.54,12.54,0,0,1-5.39-1.09,10.58,10.58,0,0,1-3.82-2.94,12.77,12.77,0,0,1-2.24-4.35,18.64,18.64,0,0,1-.73-5.25,15.47,15.47,0,0,1,.79-4.87,13.81,13.81,0,0,1,2.31-4.31,11.29,11.29,0,0,1,3.66-3,10.55,10.55,0,0,1,4.9-1.12,11.67,11.67,0,0,1,4.78.88,8.46,8.46,0,0,1,3.24,2.4A9.47,9.47,0,0,1,269.9,511a14.6,14.6,0,0,1,.58,4.26v1.71H253.59a20.6,20.6,0,0,0,.48,4.56,11.2,11.2,0,0,0,1.51,3.6,7.25,7.25,0,0,0,2.64,2.37,8.08,8.08,0,0,0,3.88.87,7.11,7.11,0,0,0,4-1.08,10.61,10.61,0,0,0,3.22-3.88Zm-5.71-9.72a20.15,20.15,0,0,0-.25-3.1,8.85,8.85,0,0,0-.79-2.75,5.1,5.1,0,0,0-1.63-1.94,4.39,4.39,0,0,0-2.66-.75,5.58,5.58,0,0,0-4.51,2.26,10.57,10.57,0,0,0-2,6.28Z"/>
    <path class="cls-1" d="M293.57,508.32a4.2,4.2,0,0,1-.65,2.34,2.19,2.19,0,0,1-2,1,3,3,0,0,1-2.21-.75,2.27,2.27,0,0,1-.76-1.66,5.55,5.55,0,0,1,.09-1c.06-.31.12-.62.17-.93a5.86,5.86,0,0,0-2.85,1,8.66,8.66,0,0,0-2.76,2.79V526a2.8,2.8,0,0,0,.35,1.47,2.09,2.09,0,0,0,1.09.85,6.44,6.44,0,0,0,1.67.39q1,.14,1.77.18v1.71H274.1v-1.71l1.23-.1a5,5,0,0,0,1.09-.21,1.77,1.77,0,0,0,1.08-.81,2.83,2.83,0,0,0,.35-1.51V510.48a3.47,3.47,0,0,0-.38-1.58,3.07,3.07,0,0,0-1.05-1.24,3.64,3.64,0,0,0-1.16-.45,9.91,9.91,0,0,0-1.45-.19v-1.71l8.48-.57.37.36v3.6h.13a11.37,11.37,0,0,1,3.51-3.22,7.53,7.53,0,0,1,3.6-1.09,3.54,3.54,0,0,1,2.65,1.06A3.94,3.94,0,0,1,293.57,508.32Z"/>
    <path class="cls-1" d="M312.58,518a6.33,6.33,0,0,1,1.62,2.15,6.89,6.89,0,0,1,.57,3,7.23,7.23,0,0,1-2.65,5.79,10.19,10.19,0,0,1-6.86,2.25,10.51,10.51,0,0,1-4.1-.8,11.67,11.67,0,0,1-2.68-1.47l-.51,1.68H296l-.26-8.87h1.78a10.48,10.48,0,0,0,.88,2.36,11.81,11.81,0,0,0,1.63,2.44,9.2,9.2,0,0,0,2.42,1.92,6.42,6.42,0,0,0,3.17.78,5.74,5.74,0,0,0,3.82-1.14,4,4,0,0,0,1.35-3.23,3.74,3.74,0,0,0-.43-1.88,4,4,0,0,0-1.25-1.38,9.48,9.48,0,0,0-2.1-1.08c-.82-.31-1.75-.63-2.76-.94a26.71,26.71,0,0,1-2.71-1,11,11,0,0,1-2.54-1.49,7.45,7.45,0,0,1-1.87-2.23,6.43,6.43,0,0,1-.72-3.1,7,7,0,0,1,2.33-5.3,8.74,8.74,0,0,1,6.23-2.17,12.58,12.58,0,0,1,3.06.39,10.38,10.38,0,0,1,2.55.93l.6-1.35h1.89l.39,8.2H311.7a8.17,8.17,0,0,0-2.34-4.48,6.1,6.1,0,0,0-4.38-1.73,4.89,4.89,0,0,0-3.34,1.07,3.33,3.33,0,0,0-1.21,2.58,4.3,4.3,0,0,0,.4,1.94,3.55,3.55,0,0,0,1.2,1.32,10.68,10.68,0,0,0,2,1c.79.3,1.76.63,2.91,1a23.47,23.47,0,0,1,3.16,1.28A10.28,10.28,0,0,1,312.58,518Z"/>
    <path class="cls-1" d="M331,530.53H318.68v-1.71l1.23-.1a5,5,0,0,0,1.1-.21,1.78,1.78,0,0,0,1.07-.81,2.83,2.83,0,0,0,.35-1.51V510.48a3,3,0,0,0-.38-1.51,3.35,3.35,0,0,0-1-1.15,4.73,4.73,0,0,0-1.43-.53,9.56,9.56,0,0,0-1.7-.27v-1.71l9-.57.36.36v20.79a3,3,0,0,0,.34,1.5,2.17,2.17,0,0,0,1.1.88,8.94,8.94,0,0,0,1.1.38,7.24,7.24,0,0,0,1.21.19Zm-3.24-35.87a3.75,3.75,0,0,1-1,2.58,3.07,3.07,0,0,1-2.4,1.1,3,3,0,0,1-2.29-1,3.45,3.45,0,0,1-1-2.39,3.6,3.6,0,0,1,1-2.49,3,3,0,0,1,2.29-1.06,3.38,3.38,0,0,1,3.4,3.31Z"/>
    <path class="cls-1" d="M349.89,529.42q-1.68.69-3.18,1.17a12,12,0,0,1-3.67.48c-2.14,0-3.64-.54-4.52-1.61a7.16,7.16,0,0,1-1.3-4.57V507.62h-4.6v-2.48h4.7V497.2H342v7.94h7.32v2.48H342.1v14.25q0,1.33.12,2.67a5.11,5.11,0,0,0,.55,1.88,2.79,2.79,0,0,0,1.24,1.14,5.49,5.49,0,0,0,2.23.38,13.66,13.66,0,0,0,1.9-.11,8.73,8.73,0,0,0,1.77-.3Z"/>
    <path class="cls-1" d="M350.48,538.86a3.11,3.11,0,0,1,.71-2.11,2.28,2.28,0,0,1,1.78-.82,3.13,3.13,0,0,1,1.42.31,4,4,0,0,1,1.06.8,5.51,5.51,0,0,1,.82,1.05c.3.44.53.81.7,1.1a10.34,10.34,0,0,0,3.09-3.64,28.68,28.68,0,0,0,2.6-5.16q-2.46-6.12-4.45-11t-4.11-9.91a3.68,3.68,0,0,0-1.65-1.85,6.78,6.78,0,0,0-2.33-.84v-1.71h11.64v1.81a8.44,8.44,0,0,0-1.86.33c-.73.19-1.09.42-1.09.68a2.31,2.31,0,0,0,.12.52q.12.36.27.75,1,2.55,3,7.37c1.34,3.21,2.38,5.79,3.12,7.72l2.42-5.73q1.26-3,2.81-7l.52-1.35a4.26,4.26,0,0,0,.34-1.49c0-.45-.4-.86-1.18-1.25a6.45,6.45,0,0,0-2.24-.71v-1.66h9.47v1.61a6.42,6.42,0,0,0-2,.89,4.67,4.67,0,0,0-1.89,2.16q-3.06,7.13-5.47,13t-3.63,8.64a47.11,47.11,0,0,1-2.91,5.65,16.31,16.31,0,0,1-2.49,3.19,7.45,7.45,0,0,1-2.16,1.47,5.63,5.63,0,0,1-2,.37,4.84,4.84,0,0,1-3.17-1A2.82,2.82,0,0,1,350.48,538.86Z"/>
    <path class="cls-1" d="M410.24,493.6a3,3,0,0,1-.62,2,2.23,2.23,0,0,1-1.89.8,2.91,2.91,0,0,1-1.41-.34,4.23,4.23,0,0,1-1.12-.9,9.66,9.66,0,0,1-1-1.29c-.29-.49-.54-.87-.75-1.17-1.15,0-2,.86-2.67,2.42a21.32,21.32,0,0,0-1,7.44v2.61h6.57v2.48h-6.57V526a2.9,2.9,0,0,0,.35,1.47,2.11,2.11,0,0,0,1.1.85,8,8,0,0,0,1.66.38c.68.09,1.28.16,1.78.19v1.71H391.31v-1.71l1.23-.1a5,5,0,0,0,1.1-.21,1.78,1.78,0,0,0,1.07-.81,2.74,2.74,0,0,0,.35-1.51v-18.6h-5v-2.48h5v-1.66a14.22,14.22,0,0,1,3-9.41,9.42,9.42,0,0,1,7.53-3.6,5.52,5.52,0,0,1,3.47.91A2.68,2.68,0,0,1,410.24,493.6Z"/>
    <path class="cls-1" d="M433.36,517.48a17,17,0,0,1-.85,5.29,12.65,12.65,0,0,1-2.44,4.41,11.36,11.36,0,0,1-4.14,3.08,13.26,13.26,0,0,1-5.28,1,11.73,11.73,0,0,1-8.54-3.59,12.94,12.94,0,0,1-2.68-4.23,14.88,14.88,0,0,1-1-5.6,14,14,0,0,1,3.48-9.77,12.75,12.75,0,0,1,18-.19A13.22,13.22,0,0,1,433.36,517.48Zm-5.35,0a21.63,21.63,0,0,0-.39-4.09,12.73,12.73,0,0,0-1.17-3.66,7.21,7.21,0,0,0-2.17-2.58,5.58,5.58,0,0,0-3.29-1,5.85,5.85,0,0,0-3.41,1,7.26,7.26,0,0,0-2.29,2.69,12.29,12.29,0,0,0-1.17,3.59,24.46,24.46,0,0,0,.07,8.49,13.55,13.55,0,0,0,1.28,3.77,7.4,7.4,0,0,0,2.21,2.6,5.65,5.65,0,0,0,3.31.94,5.76,5.76,0,0,0,5.13-3.13c1.26-2,1.89-4.9,1.89-8.58Z"/>
    <path class="cls-1" d="M456.55,508.32a4.19,4.19,0,0,1-.64,2.34,2.19,2.19,0,0,1-2,1,3,3,0,0,1-2.21-.75,2.32,2.32,0,0,1-.77-1.66,5.55,5.55,0,0,1,.09-1c.06-.31.12-.62.17-.93a5.76,5.76,0,0,0-2.84,1,8.69,8.69,0,0,0-2.77,2.79V526a2.9,2.9,0,0,0,.35,1.47,2.11,2.11,0,0,0,1.1.85,6.06,6.06,0,0,0,1.67.39q1,.14,1.77.18v1.71H437v-1.71l1.23-.1a5,5,0,0,0,1.1-.21,1.78,1.78,0,0,0,1.07-.81,2.83,2.83,0,0,0,.35-1.51V510.48a3.46,3.46,0,0,0-.37-1.58,3.1,3.1,0,0,0-1-1.24,4,4,0,0,0-1.17-.45,9.78,9.78,0,0,0-1.44-.19v-1.71l8.48-.57.36.36v3.6h.13a11.68,11.68,0,0,1,3.57-3.18,7.5,7.5,0,0,1,3.59-1.09,3.5,3.5,0,0,1,2.65,1.06A4,4,0,0,1,456.55,508.32Z"/>
    <path class="cls-1" d="M487.25,529.42q-1.68.69-3.18,1.17a12,12,0,0,1-3.68.48c-2.13,0-3.64-.54-4.51-1.61a7.16,7.16,0,0,1-1.3-4.57V507.62H470v-2.48h4.71V497.2h4.71v7.94h7.31v2.48h-7.26v14.25q0,1.33.12,2.67a5.11,5.11,0,0,0,.55,1.88,2.79,2.79,0,0,0,1.24,1.14,5.49,5.49,0,0,0,2.23.38,13.66,13.66,0,0,0,1.9-.11,8.73,8.73,0,0,0,1.77-.3Z"/>
    <path class="cls-1" d="M517.53,530.53H505v-1.71l1.31-.1a4.71,4.71,0,0,0,1.19-.21,1.8,1.8,0,0,0,1.08-.81,2.83,2.83,0,0,0,.35-1.51V513.07a6.13,6.13,0,0,0-1.29-4.18,4,4,0,0,0-3.12-1.48,7.11,7.11,0,0,0-2.5.43,8.92,8.92,0,0,0-2.06,1,6.12,6.12,0,0,0-1.35,1.29c-.31.43-.55.79-.73,1.08v14.67a2.9,2.9,0,0,0,.35,1.44,2.27,2.27,0,0,0,1.08.88,5,5,0,0,0,1.17.39,10.26,10.26,0,0,0,1.34.18v1.71H489.32v-1.71l1.23-.11a5.56,5.56,0,0,0,1.08-.2,1.88,1.88,0,0,0,1.08-.81,3,3,0,0,0,.35-1.52V496.48a4,4,0,0,0-.4-1.76,3,3,0,0,0-1-1.32,3.63,3.63,0,0,0-1.64-.48c-.79-.1-1.42-.16-1.91-.2v-1.65l9.44-.57.36.39v17.79H498c.57-.57,1.09-1.07,1.55-1.51a13.66,13.66,0,0,1,1.84-1.39,9.92,9.92,0,0,1,2.32-1,10.21,10.21,0,0,1,3-.42,6.51,6.51,0,0,1,5.26,2.16,9.32,9.32,0,0,1,1.84,6.22V526a3.11,3.11,0,0,0,.27,1.5,2.19,2.19,0,0,0,1.08.87,9,9,0,0,0,1.08.34,7.9,7.9,0,0,0,1.27.17Z"/>
    <path class="cls-1" d="M543.26,524.53a12.91,12.91,0,0,1-4.3,4.86,10.75,10.75,0,0,1-6.18,1.81,12.54,12.54,0,0,1-5.39-1.09,10.54,10.54,0,0,1-3.81-2.94,12.77,12.77,0,0,1-2.24-4.35,18.65,18.65,0,0,1-.74-5.25,15.77,15.77,0,0,1,.79-4.87,14,14,0,0,1,2.32-4.31,11.29,11.29,0,0,1,3.66-3,10.55,10.55,0,0,1,4.9-1.12,11.83,11.83,0,0,1,4.78.88,8.35,8.35,0,0,1,3.23,2.4,9.47,9.47,0,0,1,1.77,3.42,14.28,14.28,0,0,1,.59,4.26v1.71H525.75a20.6,20.6,0,0,0,.48,4.56,11.2,11.2,0,0,0,1.51,3.6,7.16,7.16,0,0,0,2.64,2.37,8.08,8.08,0,0,0,3.88.87,7.11,7.11,0,0,0,4-1.08,10.71,10.71,0,0,0,3.22-3.88Zm-5.72-9.72a20.13,20.13,0,0,0-.24-3.1,9.43,9.43,0,0,0-.79-2.75,5.1,5.1,0,0,0-1.63-1.94,4.42,4.42,0,0,0-2.67-.75,5.58,5.58,0,0,0-4.51,2.26,10.55,10.55,0,0,0-2,6.28Z"/>
    <path class="cls-1" d="M575.8,531.41a15.68,15.68,0,0,1-6.29-1.3,16.12,16.12,0,0,1-5.34-3.72,18.12,18.12,0,0,1-3.67-5.91,21.94,21.94,0,0,1-1.37-7.9,22.69,22.69,0,0,1,1.35-8,18.62,18.62,0,0,1,3.72-6.17,16.29,16.29,0,0,1,5.55-4,17,17,0,0,1,6.85-1.4,16.57,16.57,0,0,1,4.9.68,18.34,18.34,0,0,1,4.19,1.88l1.06-1.75h2.07l.23,13.08h-2.12a30,30,0,0,0-1.24-4.15,15.61,15.61,0,0,0-1.94-3.79,9.2,9.2,0,0,0-2.94-2.75,7.49,7.49,0,0,0-3.9-1,10,10,0,0,0-4.66,1.12,10.69,10.69,0,0,0-3.73,3.28,16.34,16.34,0,0,0-2.36,5.33,29.28,29.28,0,0,0-.85,7.22,22.39,22.39,0,0,0,.89,6.46,16.92,16.92,0,0,0,2.55,5.16,12.17,12.17,0,0,0,3.91,3.44,10.36,10.36,0,0,0,5.05,1.25,10.94,10.94,0,0,0,3.85-.66,10.14,10.14,0,0,0,3-1.75,13.6,13.6,0,0,0,2.27-2.58,13.81,13.81,0,0,0,1.6-3.16l1.94.93q-2.22,5.46-5.89,7.8A15.9,15.9,0,0,1,575.8,531.41Z"/>
    <path class="cls-1" d="M617.86,517.48a16.7,16.7,0,0,1-.86,5.29,12.47,12.47,0,0,1-2.43,4.41,11.36,11.36,0,0,1-4.14,3.08,13.26,13.26,0,0,1-5.28,1,11.74,11.74,0,0,1-8.55-3.59,12.75,12.75,0,0,1-2.67-4.23,14.88,14.88,0,0,1-1-5.6,14,14,0,0,1,3.48-9.77,12.74,12.74,0,0,1,18-.19A13.22,13.22,0,0,1,617.86,517.48Zm-5.36,0a22.06,22.06,0,0,0-.4-4,12.12,12.12,0,0,0-1.16-3.66,7.06,7.06,0,0,0-2.18-2.58,5.44,5.44,0,0,0-3.29-1,5.79,5.79,0,0,0-3.4,1,7.38,7.38,0,0,0-2.3,2.69,12.27,12.27,0,0,0-1.16,3.59,24.26,24.26,0,0,0-.34,3.9,26.11,26.11,0,0,0,.4,4.59,13.57,13.57,0,0,0,1.29,3.77,7.3,7.3,0,0,0,2.21,2.6,5.62,5.62,0,0,0,3.3.94,5.75,5.75,0,0,0,5.13-3.13q1.9-3.11,1.9-8.62Z"/>
    <path class="cls-1" d="M665.15,530.53H652.74v-1.71l1.2-.1a4.72,4.72,0,0,0,1.07-.21,1.8,1.8,0,0,0,1.08-.81,2.83,2.83,0,0,0,.35-1.51V513a6.23,6.23,0,0,0-1.23-4.15,3.85,3.85,0,0,0-3.07-1.46,7.14,7.14,0,0,0-2.37.39,7.49,7.49,0,0,0-2,1.09,6.57,6.57,0,0,0-1.25,1.22,11.94,11.94,0,0,0-.76,1.1v14.72a3.15,3.15,0,0,0,.31,1.48,2,2,0,0,0,1.06.9,8.3,8.3,0,0,0,1.07.34,7.66,7.66,0,0,0,1.25.17v1.71h-12.2v-1.71l1.15-.1a4.24,4.24,0,0,0,1-.21,1.88,1.88,0,0,0,1.08-.81,2.84,2.84,0,0,0,.34-1.51V513a6.23,6.23,0,0,0-1.23-4.15,3.85,3.85,0,0,0-3.07-1.46,7.17,7.17,0,0,0-2.38.4,8.13,8.13,0,0,0-2,1.1,6.16,6.16,0,0,0-1.27,1.28l-.78,1.07v14.61a2.92,2.92,0,0,0,.36,1.48,2.29,2.29,0,0,0,1.09.9,4.59,4.59,0,0,0,1.11.39,6.94,6.94,0,0,0,1.27.18v1.71H621.5v-1.71l1.23-.1a5,5,0,0,0,1.1-.21,1.78,1.78,0,0,0,1.07-.81,2.74,2.74,0,0,0,.35-1.51V510.36a3,3,0,0,0-.37-1.49,3.25,3.25,0,0,0-1-1.12,4.38,4.38,0,0,0-1.22-.51,7.57,7.57,0,0,0-1.5-.24v-1.71l8.54-.57.36.36v3.65h.18c.43-.43,1-.94,1.58-1.53a16.73,16.73,0,0,1,1.73-1.42,8.16,8.16,0,0,1,2.26-1,9.82,9.82,0,0,1,2.94-.42A6.86,6.86,0,0,1,643,505.7a7.41,7.41,0,0,1,2.56,3.22l1.64-1.59a14.65,14.65,0,0,1,1.88-1.47,8.69,8.69,0,0,1,2.31-1.08,9.59,9.59,0,0,1,3-.42,6.5,6.5,0,0,1,5.11,2.12q1.89,2.13,1.89,6.52v13a3.15,3.15,0,0,0,.31,1.48,2,2,0,0,0,1.06.9,7.19,7.19,0,0,0,1.18.34,9.64,9.64,0,0,0,1.3.17Z"/>
    <path class="cls-1" d="M711.8,530.53H699.39v-1.71l1.2-.1a4.72,4.72,0,0,0,1.07-.21,1.78,1.78,0,0,0,1.07-.81,2.74,2.74,0,0,0,.35-1.51V513a6.31,6.31,0,0,0-1.22-4.15,3.85,3.85,0,0,0-3.07-1.46,7.16,7.16,0,0,0-2.38.39,7.78,7.78,0,0,0-2,1.09,6.57,6.57,0,0,0-1.25,1.22c-.27.35-.53.72-.77,1.1v14.72a3.42,3.42,0,0,0,.31,1.48,2,2,0,0,0,1.06.9,9,9,0,0,0,1.08.34,7.52,7.52,0,0,0,1.25.17v1.71H683.9v-1.71l1.15-.1a4.24,4.24,0,0,0,1-.21,1.78,1.78,0,0,0,1.07-.81,2.74,2.74,0,0,0,.35-1.51V513a6.23,6.23,0,0,0-1.23-4.15,3.85,3.85,0,0,0-3.07-1.46,7.22,7.22,0,0,0-2.39.4,8.31,8.31,0,0,0-2,1.1,6.16,6.16,0,0,0-1.27,1.28l-.78,1.07v14.61a2.92,2.92,0,0,0,.36,1.48,2.23,2.23,0,0,0,1.09.9,4.59,4.59,0,0,0,1.11.39,6.94,6.94,0,0,0,1.27.18v1.71H668.15v-1.71l1.23-.1a5,5,0,0,0,1.1-.21,1.78,1.78,0,0,0,1.07-.81,2.83,2.83,0,0,0,.35-1.51V510.36a2.9,2.9,0,0,0-.38-1.49,3.25,3.25,0,0,0-1-1.12,4.38,4.38,0,0,0-1.22-.51,7.57,7.57,0,0,0-1.5-.24v-1.71l8.54-.57.36.36v3.65h.18c.43-.43,1-.94,1.58-1.53a14.67,14.67,0,0,1,1.73-1.42,8.16,8.16,0,0,1,2.26-1,9.82,9.82,0,0,1,2.94-.42,6.86,6.86,0,0,1,4.26,1.34,7.47,7.47,0,0,1,2.56,3.22l1.64-1.59a13.9,13.9,0,0,1,1.87-1.47,9.17,9.17,0,0,1,2.31-1.08,9.89,9.89,0,0,1,3-.42,6.49,6.49,0,0,1,5.07,2.12Q708,508.61,708,513v13a3.15,3.15,0,0,0,.31,1.48,2,2,0,0,0,1.06.9,6.81,6.81,0,0,0,1.17.34,9.79,9.79,0,0,0,1.31.17Z"/>
    <path class="cls-1" d="M739.7,517.48a17,17,0,0,1-.85,5.29,12.34,12.34,0,0,1-2.44,4.41,11.36,11.36,0,0,1-4.14,3.08,13.26,13.26,0,0,1-5.28,1,11.73,11.73,0,0,1-8.54-3.59,12.94,12.94,0,0,1-2.68-4.23,14.88,14.88,0,0,1-1-5.6,14,14,0,0,1,3.48-9.77,12.75,12.75,0,0,1,18-.19A13.22,13.22,0,0,1,739.7,517.48Zm-5.35,0a21.63,21.63,0,0,0-.39-4.09,12.73,12.73,0,0,0-1.17-3.66,7.21,7.21,0,0,0-2.17-2.58,5.58,5.58,0,0,0-3.29-1,5.85,5.85,0,0,0-3.41,1,7.26,7.26,0,0,0-2.29,2.69,12,12,0,0,0-1.17,3.59,25.21,25.21,0,0,0,.07,8.49,13.55,13.55,0,0,0,1.28,3.77,7.4,7.4,0,0,0,2.21,2.6,5.65,5.65,0,0,0,3.31.94,5.76,5.76,0,0,0,5.13-3.13c1.26-2,1.89-4.9,1.89-8.58Z"/>
    <path class="cls-1" d="M771.53,530.53H759.1v-1.71l1.3-.1a4.72,4.72,0,0,0,1.18-.21,1.78,1.78,0,0,0,1.07-.81,2.83,2.83,0,0,0,.35-1.51V513.07a6.12,6.12,0,0,0-1.28-4.18,4,4,0,0,0-3.13-1.48,7,7,0,0,0-2.51.43,8.51,8.51,0,0,0-2,1,5.71,5.71,0,0,0-1.36,1.28c-.26.35-.51.71-.74,1.09v14.67a2.71,2.71,0,0,0,.36,1.44,2.29,2.29,0,0,0,1.09.88,4.88,4.88,0,0,0,1.17.39,9.82,9.82,0,0,0,1.31.18v1.71H743.37v-1.71l1.23-.1a5,5,0,0,0,1.1-.21,1.78,1.78,0,0,0,1.07-.81,2.83,2.83,0,0,0,.35-1.51V510.48a3.34,3.34,0,0,0-.37-1.61,3.09,3.09,0,0,0-1-1.21,4,4,0,0,0-1.17-.45,9.78,9.78,0,0,0-1.44-.19v-1.71l8.48-.57.36.36v3.6h.12c.41-.41.93-.91,1.55-1.49a13.94,13.94,0,0,1,1.76-1.41,9.57,9.57,0,0,1,2.27-1,9.89,9.89,0,0,1,3-.42,6.43,6.43,0,0,1,5.44,2.29,9.66,9.66,0,0,1,1.77,6.09V526a3.19,3.19,0,0,0,.21,1.5,2.11,2.11,0,0,0,1.06.87,7.2,7.2,0,0,0,1.08.36,8.88,8.88,0,0,0,1.25.15Z"/>
    <path class="cls-1" d="M823.61,515.89c-.42.05-1,.14-1.67.25a6.27,6.27,0,0,0-1.69.48,2.26,2.26,0,0,0-1.1,1.1,4.09,4.09,0,0,0-.32,1.66v7c0,.73.06,1.32.09,1.78a38,38,0,0,1-6.82,2.38,28.52,28.52,0,0,1-6.7.83,17.86,17.86,0,0,1-6.77-1.32,17,17,0,0,1-5.69-3.75,18.07,18.07,0,0,1-3.9-6,20.58,20.58,0,0,1-1.45-7.87A21.69,21.69,0,0,1,789,504.7a18.52,18.52,0,0,1,3.92-6.23,17.42,17.42,0,0,1,5.86-4A18.43,18.43,0,0,1,806,493a17.62,17.62,0,0,1,5.4.75,20,20,0,0,1,4.06,1.81l1.06-1.75h2.07l.23,12.82h-2.12a33.79,33.79,0,0,0-1.35-4.17,14.11,14.11,0,0,0-2.07-3.69,9.46,9.46,0,0,0-3.09-2.6,9.27,9.27,0,0,0-4.36-1,10.59,10.59,0,0,0-5,1.13,10.86,10.86,0,0,0-3.78,3.35,16.06,16.06,0,0,0-2.43,5.36,28.34,28.34,0,0,0-.85,7.16,25.29,25.29,0,0,0,.84,6.59,16.51,16.51,0,0,0,2.45,5.34,11.61,11.61,0,0,0,4,3.63,11.19,11.19,0,0,0,5.46,1.32,12,12,0,0,0,4.16-.7,7.45,7.45,0,0,0,2.65-1.48,17.58,17.58,0,0,0,.22-2.71v-4.33a5.76,5.76,0,0,0-.29-1.93,2.05,2.05,0,0,0-1.23-1.23,8.4,8.4,0,0,0-2.32-.58c-1-.13-1.73-.21-2.29-.25V514h16.09Z"/>
    <path class="cls-1" d="M850.71,517.48a16.7,16.7,0,0,1-.86,5.29,12.47,12.47,0,0,1-2.43,4.41,11.36,11.36,0,0,1-4.14,3.08,13.26,13.26,0,0,1-5.28,1,11.73,11.73,0,0,1-8.54-3.59,12.94,12.94,0,0,1-2.68-4.23,14.88,14.88,0,0,1-1-5.6,14,14,0,0,1,3.48-9.77,12.75,12.75,0,0,1,18-.19A13.22,13.22,0,0,1,850.71,517.48Zm-5.35,0a21.63,21.63,0,0,0-.39-4.09,12.73,12.73,0,0,0-1.17-3.66,7.21,7.21,0,0,0-2.17-2.58,5.58,5.58,0,0,0-3.29-1,5.85,5.85,0,0,0-3.41,1,7.26,7.26,0,0,0-2.29,2.69,11.91,11.91,0,0,0-1.17,3.59,24.46,24.46,0,0,0,.07,8.49,13.55,13.55,0,0,0,1.28,3.77,7.3,7.3,0,0,0,2.21,2.6,5.65,5.65,0,0,0,3.31.94,5.75,5.75,0,0,0,5.12-3.13c1.26-2,1.9-4.9,1.9-8.58Z"/>
    <path class="cls-1" d="M879.26,517.48a16.7,16.7,0,0,1-.86,5.29,12.47,12.47,0,0,1-2.43,4.41,11.36,11.36,0,0,1-4.14,3.08,13.26,13.26,0,0,1-5.28,1,11.74,11.74,0,0,1-8.55-3.59,12.94,12.94,0,0,1-2.68-4.23,15.32,15.32,0,0,1-1-5.6,14,14,0,0,1,3.48-9.77,12.74,12.74,0,0,1,18-.19A13.19,13.19,0,0,1,879.26,517.48Zm-5.36,0a21.63,21.63,0,0,0-.39-4.09,12.12,12.12,0,0,0-1.16-3.66,7.06,7.06,0,0,0-2.18-2.58,5.44,5.44,0,0,0-3.29-1,5.79,5.79,0,0,0-3.4,1,7.12,7.12,0,0,0-2.3,2.69,12.27,12.27,0,0,0-1.16,3.59,24.26,24.26,0,0,0-.34,3.9,25.19,25.19,0,0,0,.4,4.59,14,14,0,0,0,1.28,3.77,7.43,7.43,0,0,0,2.22,2.6,5.62,5.62,0,0,0,3.3.94,5.75,5.75,0,0,0,5.13-3.13c1.26-2,1.89-4.9,1.89-8.58Z"/>
    <path class="cls-1" d="M910.85,530.06l-8.92.57-.39-.36v-2.38h-.2a10.6,10.6,0,0,1-3.32,2.46,9.22,9.22,0,0,1-4.07.95,9.57,9.57,0,0,1-4.19-1,10.53,10.53,0,0,1-3.53-2.72,13.61,13.61,0,0,1-2.41-4.3,16.51,16.51,0,0,1-.89-5.53,14.7,14.7,0,0,1,1-5.25,13.9,13.9,0,0,1,2.64-4.34,11.52,11.52,0,0,1,3.86-2.77,11.07,11.07,0,0,1,4.66-1,13.72,13.72,0,0,1,3.5.46,12.25,12.25,0,0,1,3,1.15v-8.89a5.28,5.28,0,0,0-.36-2,2.94,2.94,0,0,0-1-1.36,4.85,4.85,0,0,0-2-.71,23.39,23.39,0,0,0-2.65-.33v-1.6l10.45-.57.38.39V525.3a3.24,3.24,0,0,0,.35,1.53,3.33,3.33,0,0,0,1,1.08,3.46,3.46,0,0,0,1.43.38c.62.06,1.19.09,1.7.11Zm-9.36-4.47V510.67a6.57,6.57,0,0,0-.67-1.45,5.87,5.87,0,0,0-1.16-1.42,6.28,6.28,0,0,0-1.75-1.07,5.87,5.87,0,0,0-2.35-.43,5.34,5.34,0,0,0-2.85.8,7.79,7.79,0,0,0-2.31,2.3,12.27,12.27,0,0,0-1.51,3.69,21.11,21.11,0,0,0-.56,4.95,18,18,0,0,0,.41,3.94,10.7,10.7,0,0,0,1.4,3.3,7.14,7.14,0,0,0,2.31,2.33,6.24,6.24,0,0,0,3.34.88,6,6,0,0,0,3.42-.91,11.13,11.13,0,0,0,2.28-2Z"/>
  </g>
</svg>
