<svg width="105" height="56" viewBox="0 0 105 56" fill="none" xmlns="http://www.w3.org/2000/svg">
<g clip-path="url(#clip0)">
<path d="M8.27826 37.642H4.4045V27.9853H1.76562V24.8412H4.4044V22.604C4.4044 19.9529 5.57153 18.0515 9.4348 18.0515C10.2519 18.0515 11.5347 18.2162 11.5347 18.2162V21.1356H10.1873C8.81448 21.1356 8.27846 21.5532 8.27846 22.7077V24.8412H11.4833L11.1979 27.9853H8.27836L8.27826 37.642ZM17.1667 24.5899C17.1102 24.5899 17.0522 24.592 16.9947 24.5934C13.4027 24.5934 11.7593 27.2953 11.7593 31.1307C11.7593 35.9623 13.891 37.8961 17.0228 37.8961C18.8145 37.8961 19.9917 37.1419 20.7073 35.7345V37.6434H24.3918V24.8425H20.7073V26.8111C20.123 25.5446 18.9129 24.605 17.1667 24.5899ZM18.1035 27.6148C19.6122 27.6148 20.5177 28.6671 20.5177 30.457L20.5212 32.2851C20.5212 33.4915 19.7733 34.9029 18.1035 34.9029C15.5365 34.9029 15.6051 32.1311 15.6051 31.208C15.6051 28.1026 16.9728 27.6148 18.1035 27.6148ZM25.8797 31.2436C25.8797 29.6881 25.8053 24.5983 32.4366 24.5983C35.0985 24.5983 36.21 25.4447 36.21 25.4447L35.3166 28.2155C35.3166 28.2155 34.2066 27.6043 32.7601 27.6043C30.9075 27.6043 29.7253 28.6783 29.7253 30.5679L29.7274 31.9229C29.7274 33.7386 30.868 34.9506 32.7639 34.9506C34.0816 34.9506 35.2962 34.3336 35.2962 34.3336L36.1873 37.0466C36.1873 37.0466 35.171 37.8983 32.4552 37.8983C26.1412 37.8983 25.8798 33.3318 25.8798 31.2436H25.8797ZM57.8135 24.5934C61.4056 24.5934 63.0749 27.2953 63.0749 31.1307C63.0749 35.9623 60.9431 37.8961 57.8114 37.8961C56.0196 37.8961 54.6951 37.142 53.9796 35.7345V37.6434L50.3414 37.6419V18.4407L54.2042 18.1038V26.6377C54.7617 25.1447 56.5939 24.5934 57.8136 24.5934H57.8135ZM56.7306 27.6148C55.2219 27.6148 54.2042 28.6671 54.2042 30.457L54.2006 32.2851C54.1983 33.4915 54.9054 34.9029 56.7306 34.9029C59.2976 34.9029 59.229 32.1311 59.229 31.208C59.229 28.1026 57.8614 27.6148 56.7306 27.6148ZM42.9122 24.604C38.8381 24.604 36.6872 26.8253 36.6872 30.7728V31.5062C36.6872 36.6296 39.7077 37.9487 43.3087 37.9487C46.8089 37.9487 48.3932 36.9697 48.3932 36.9697L47.6704 34.3626C47.6704 34.3626 45.8067 35.1555 43.7718 35.1555C41.6623 35.1555 40.7551 34.6179 40.5225 32.5906H48.702V30.499C48.702 26.217 46.2881 24.6039 42.9121 24.6039L42.9122 24.604ZM43.0104 27.2146C44.4206 27.2146 45.3345 28.0794 45.2843 30.085H40.5296C40.6121 27.9742 41.5975 27.2147 43.0104 27.2147V27.2146ZM70.7771 24.5865C66.5933 24.5865 64.3907 26.9442 64.3907 31.1693C64.3907 36.9664 68.1875 37.8996 70.7841 37.8996C74.5854 37.8996 77.1144 35.8531 77.1144 31.2219C77.1144 26.4018 74.2708 24.5865 70.7771 24.5865ZM70.7245 27.6252C72.5642 27.6252 73.2931 29.0021 73.2931 30.5693V31.9168C73.2931 33.8154 72.2731 34.9135 70.7175 34.9135C69.2626 34.9135 68.2401 33.8863 68.2401 31.9168V30.5693C68.2401 28.4688 69.4568 27.6252 70.7245 27.6252ZM84.8096 24.5865C80.6258 24.5865 78.4233 26.9442 78.4233 31.1693C78.4233 36.9664 82.22 37.8996 84.8166 37.8996C88.6178 37.8996 91.1469 35.8531 91.1469 31.2219C91.1469 26.4018 88.3032 24.5865 84.8096 24.5865ZM84.757 27.6252C86.5967 27.6252 87.3256 29.0021 87.3256 30.5693V31.9168C87.3256 33.8154 86.3055 34.9135 84.75 34.9135C83.2951 34.9135 82.2727 33.8863 82.2727 31.9168V30.5693C82.2727 28.4688 83.4893 27.6252 84.757 27.6252ZM92.6066 37.642V18.4407L96.4806 18.1038V30.9738L100.324 24.8412H104.415L100.406 31.1927L104.57 37.642H100.467L96.4806 31.3798V37.642H92.6066Z" fill="#D5D8DD"/>
</g>
<defs>
<clipPath id="clip0">
<rect width="104" height="56" fill="white" transform="translate(0.714355)"/>
</clipPath>
</defs>
</svg>
