<svg width="109" height="56" viewBox="0 0 109 56" fill="none" xmlns="http://www.w3.org/2000/svg">
<g clip-path="url(#clip0)">
<path d="M12.9087 17.9741V26.4491H5.12271V17.9741H1.42871V38.2051H5.12371V30.0051H12.9077V38.2051H16.6037V17.9741H12.9087ZM28.4307 31.6661C28.4307 32.477 28.1086 33.2547 27.5352 33.8281C26.9618 34.4015 26.1841 34.7236 25.3732 34.7236C24.5623 34.7236 23.7846 34.4015 23.2112 33.8281C22.6378 33.2547 22.3157 32.477 22.3157 31.6661V23.0001H18.8107V31.6661C18.8107 33.4049 19.5014 35.0724 20.7309 36.3019C21.9604 37.5314 23.628 38.2221 25.3667 38.2221C27.1055 38.2221 28.773 37.5314 30.0025 36.3019C31.232 35.0724 31.9227 33.4049 31.9227 31.6661V23.0001H28.4307V31.6661ZM54.4017 23.8931C54.4017 22.1161 55.5767 21.5531 56.8637 21.5531C57.9017 21.5531 59.2717 22.3431 60.1687 23.3011L62.4637 20.5951C61.3177 19.0451 58.9937 17.9741 57.0907 17.9741C53.2877 17.9741 50.5377 20.2011 50.5377 23.8931C50.5377 30.7431 58.9097 28.5691 58.9097 32.4031C58.9097 33.5851 57.7617 34.6291 56.4477 34.6291C54.3747 34.6291 53.7027 33.6161 52.7507 32.5441L50.2027 35.1931C51.8327 37.1931 53.8427 38.2091 56.2497 38.2091C59.8627 38.2091 62.7687 35.9551 62.7687 32.4311C62.7687 24.8271 54.3957 27.1901 54.3957 23.8931H54.4017ZM106.196 34.9731C104.125 34.9731 103.536 34.0771 103.536 32.7051V26.6301H106.756V23.5521H103.536V19.4911L99.9817 21.0861V33.4601C99.9817 36.6251 102.166 38.2201 105.16 38.2201C105.63 38.2281 106.1 38.1901 106.562 38.1081L107.429 34.9161C107.038 34.9431 106.589 34.9701 106.196 34.9701V34.9731ZM41.7727 23.1011C40.0367 23.1011 38.8247 23.6051 37.6527 24.7541V18.0951H34.1427V30.4381C34.1427 35.0581 37.4827 38.2241 41.2367 38.2241C45.4007 38.2241 49.0637 35.0021 49.0637 30.6641C49.0637 26.3801 45.6927 23.1041 41.7727 23.1041V23.1011ZM41.7507 34.6911C41.2276 34.6911 40.7096 34.5881 40.2263 34.3879C39.743 34.1877 39.3039 33.8943 38.934 33.5244C38.564 33.1545 38.2706 32.7153 38.0704 32.232C37.8702 31.7487 37.7672 31.2307 37.7672 30.7076C37.7672 30.1845 37.8702 29.6665 38.0704 29.1832C38.2706 28.6999 38.564 28.2608 38.934 27.8909C39.3039 27.521 39.743 27.2275 40.2263 27.0273C40.7096 26.8272 41.2276 26.7241 41.7507 26.7241C42.8072 26.7241 43.8204 27.1438 44.5675 27.8909C45.3145 28.6379 45.7342 29.6511 45.7342 30.7076C45.7342 31.7641 45.3145 32.7773 44.5675 33.5244C43.8204 34.2714 42.8072 34.6911 41.7507 34.6911ZM79.8927 30.4801C79.8927 26.1341 76.2377 22.9201 72.0657 22.9201C68.3127 22.9201 64.9717 26.0851 64.9717 30.7061V43.0561H68.4817V36.3881C69.6517 37.5351 70.8657 38.0411 72.5997 38.0411C76.5197 38.0411 79.8917 34.7651 79.8917 30.4801H79.8927ZM76.5687 30.4361C76.5687 31.4926 76.149 32.5058 75.402 33.2529C74.6549 33.9999 73.6417 34.4196 72.5852 34.4196C71.5287 34.4196 70.5155 33.9999 69.7684 33.2529C69.0214 32.5058 68.6017 31.4926 68.6017 30.4361C68.6017 29.3796 69.0214 28.3664 69.7684 27.6194C70.5155 26.8723 71.5287 26.4526 72.5852 26.4526C73.6417 26.4526 74.6549 26.8723 75.402 27.6194C76.149 28.3664 76.5687 29.3796 76.5687 30.4361Z" fill="#D5D8DD"/>
<path d="M91.2347 22.75V19.223C91.7008 19.0052 92.0954 18.6595 92.3726 18.2261C92.6499 17.7927 92.7983 17.2895 92.8007 16.775V16.694C92.8007 15.194 91.5847 13.978 90.0847 13.978H90.0037C89.2834 13.978 88.5925 14.2642 88.0832 14.7735C87.5738 15.2829 87.2877 15.9737 87.2877 16.694V16.775C87.2901 17.2895 87.4385 17.7927 87.7157 18.2261C87.993 18.6595 88.3876 19.0052 88.8537 19.223V22.75C87.5141 22.9552 86.2526 23.5106 85.1967 24.36L75.5237 16.826C75.5927 16.577 75.6287 16.321 75.6327 16.064C75.6339 15.4588 75.4555 14.8667 75.1202 14.3628C74.7848 13.8589 74.3076 13.4657 73.7488 13.2331C73.19 13.0004 72.5747 12.9388 71.9809 13.0558C71.387 13.1729 70.8412 13.4635 70.4125 13.8908C69.9838 14.3181 69.6914 14.8629 69.5724 15.4564C69.4534 16.0499 69.5131 16.6653 69.7439 17.2249C69.9747 17.7845 70.3663 18.263 70.8691 18.6C71.3719 18.937 71.9634 19.1173 72.5687 19.118C73.0982 19.1156 73.6179 18.9742 74.0757 18.708L83.6007 26.12C82.745 27.4127 82.2986 28.9332 82.3197 30.4832C82.3407 32.0333 82.8282 33.5411 83.7187 34.81L80.8217 37.708C80.5875 37.6332 80.3435 37.5934 80.0977 37.59C79.6008 37.5904 79.1153 37.7381 78.7023 38.0144C78.2893 38.2907 77.9676 38.6832 77.7776 39.1423C77.5876 39.6014 77.538 40.1065 77.6351 40.5938C77.7321 41.0811 77.9714 41.5287 78.3227 41.88C78.6741 42.2313 79.1216 42.4706 79.6089 42.5677C80.0962 42.6647 80.6013 42.6151 81.0605 42.4251C81.5196 42.2352 81.9121 41.9134 82.1883 41.5004C82.4646 41.0875 82.6123 40.6019 82.6127 40.105C82.6095 39.8592 82.5697 39.6152 82.4947 39.381L85.3607 36.514C86.2953 37.2336 87.3822 37.7296 88.5381 37.9642C89.694 38.1987 90.8882 38.1656 92.0293 37.8673C93.1705 37.5691 94.2282 37.0135 95.1214 36.2433C96.0147 35.4731 96.7198 34.5087 97.1828 33.4239C97.6457 32.3391 97.8542 31.1627 97.7923 29.9849C97.7304 28.807 97.3997 27.659 96.8256 26.6287C96.2515 25.5984 95.4491 24.7132 94.48 24.0409C93.5109 23.3686 92.4008 22.927 91.2347 22.75ZM90.0467 34.35C89.517 34.3646 88.9898 34.2729 88.4962 34.0802C88.0026 33.8876 87.5526 33.598 87.1728 33.2285C86.793 32.859 86.4911 32.4172 86.285 31.929C86.0788 31.4409 85.9726 30.9164 85.9726 30.3865C85.9726 29.8567 86.0788 29.3322 86.285 28.8441C86.4911 28.3559 86.793 27.9141 87.1728 27.5446C87.5526 27.1751 88.0026 26.8855 88.4962 26.6928C88.9898 26.5002 89.517 26.4085 90.0467 26.423C91.0733 26.459 92.0458 26.8919 92.7596 27.6307C93.4733 28.3695 93.8724 29.3564 93.8729 30.3836C93.8734 31.4108 93.4753 32.3981 92.7623 33.1376C92.0494 33.8771 91.0772 34.3111 90.0507 34.348" fill="#D5D8DD"/>
</g>
<defs>
<clipPath id="clip0">
<rect width="106" height="31" fill="white" transform="translate(1.42871 13)"/>
</clipPath>
</defs>
</svg>
