<svg width="28" height="28" viewBox="0 0 28 28" fill="none" xmlns="http://www.w3.org/2000/svg">
<path fill-rule="evenodd" clip-rule="evenodd" d="M13.9998 26C20.6272 26 25.9998 20.6274 25.9998 14C25.9998 7.37258 20.6272 2 13.9998 2C7.37234 2 1.99976 7.37258 1.99976 14C1.99976 20.6274 7.37234 26 13.9998 26Z" fill="#AA006D"/>
<path fill-rule="evenodd" clip-rule="evenodd" d="M11.6667 17.0169L19.0084 9.6752C19.464 9.21959 20.2027 9.21959 20.6583 9.6752C21.1139 10.1308 21.1139 10.8695 20.6583 11.3251L12.4916 19.4918C12.036 19.9474 11.2973 19.9474 10.8417 19.4918L7.34171 15.9918C6.8861 15.5362 6.8861 14.7975 7.34171 14.3419C7.79732 13.8863 8.53601 13.8863 8.99162 14.3419L11.6667 17.0169Z" fill="white"/>
</svg>
