<svg width="120" height="120" viewBox="0 0 120 120" fill="none" xmlns="http://www.w3.org/2000/svg">
<path opacity="0.1" d="M120 60C120 93.1371 93.1371 120 60 120C26.8629 120 0 93.1371 0 60C0 26.8629 26.8629 0 60 0C93.1371 0 120 26.8629 120 60ZM4.8 60C4.8 90.4861 29.5139 115.2 60 115.2C90.4861 115.2 115.2 90.4861 115.2 60C115.2 29.5139 90.4861 4.8 60 4.8C29.5139 4.8 4.8 29.5139 4.8 60Z" fill="white"/>
<path d="M60 2.4C60 1.07452 61.075 -0.00501306 62.3994 0.0479747C74.5437 0.533845 86.2757 4.69877 96.0252 12.0189C106.416 19.8202 113.993 30.7834 117.618 43.2605C121.243 55.7376 120.719 69.0543 116.127 81.2085C111.534 93.3627 103.12 103.698 92.1496 110.66C81.1793 117.622 68.2454 120.834 55.2924 119.815C42.3395 118.796 30.0675 113.599 20.3213 105.007C10.5751 96.4142 3.88144 84.8903 1.24663 72.1672C-1.22569 60.2288 0.00100413 47.8401 4.73217 36.6447C5.24813 35.4238 6.68263 34.9107 7.88197 35.4751C9.0813 36.0395 9.59085 37.4675 9.07913 38.6902C4.78811 48.9434 3.68539 60.2734 5.9469 71.1938C8.37093 82.899 14.5291 93.5011 23.4956 101.406C32.4621 109.311 43.7523 114.092 55.6691 115.03C67.5858 115.968 79.4849 113.012 89.5776 106.607C99.6704 100.202 107.411 90.6937 111.637 79.5118C115.862 68.3299 116.343 56.0786 113.008 44.5997C109.673 33.1208 102.702 23.0346 93.1432 15.8574C84.225 9.16144 73.5038 5.33512 62.3994 4.85215C61.0752 4.79455 60 3.72548 60 2.4Z" fill="white"/>
</svg>
