<svg width="81" height="56" viewBox="0 0 81 56" fill="none" xmlns="http://www.w3.org/2000/svg">
<path d="M20.3695 51.7298V48.5524C20.388 48.2851 20.3494 48.017 20.2561 47.7659C20.1629 47.5148 20.0173 47.2864 19.8288 47.096C19.6404 46.9056 19.4136 46.7575 19.1635 46.6617C18.9134 46.5658 18.6457 46.5243 18.3783 46.54C18.0283 46.5171 17.6785 46.5885 17.3656 46.7469C17.0526 46.9052 16.7878 47.1447 16.599 47.4403C16.4268 47.1536 16.1805 46.9186 15.886 46.7601C15.5915 46.6017 15.2597 46.5256 14.9255 46.54C14.6343 46.5253 14.3443 46.5869 14.0842 46.7188C13.8241 46.8507 13.603 47.0483 13.4428 47.292V46.6671H12.3413V51.7298H13.4534V48.9442C13.4297 48.7711 13.4446 48.5949 13.4969 48.4282C13.5493 48.2615 13.6378 48.1084 13.7562 47.9799C13.8746 47.8514 14.0199 47.7506 14.1818 47.6848C14.3437 47.619 14.5181 47.5897 14.6925 47.5991C15.4233 47.5991 15.794 48.0758 15.794 48.9336V51.7509H16.9061V48.9442C16.8834 48.7713 16.899 48.5955 16.9517 48.4292C17.0044 48.2629 17.093 48.1102 17.2112 47.9819C17.3294 47.8536 17.4743 47.7529 17.6357 47.6867C17.7971 47.6206 17.9711 47.5907 18.1453 47.5991C18.8973 47.5991 19.2574 48.0758 19.2574 48.9336V51.7509L20.3695 51.7298ZM36.8231 46.6671H35.012V45.1314H33.8999V46.6671H32.8937V47.6733H33.9211V50.0034C33.9211 51.179 34.3765 51.878 35.6792 51.878C36.1659 51.8794 36.6431 51.7436 37.0561 51.4862L36.7384 50.5435C36.443 50.7197 36.1077 50.8181 35.764 50.8295C35.2344 50.8295 35.0332 50.4906 35.0332 49.9822V47.6733H36.8337L36.8231 46.6671ZM46.2176 46.54C45.949 46.5321 45.6833 46.5968 45.4484 46.7273C45.2136 46.8578 45.0182 47.0492 44.8831 47.2814V46.6671H43.7922V51.7298H44.8937V48.8913C44.8937 48.0546 45.2538 47.5886 45.9528 47.5886C46.1884 47.5853 46.4223 47.6285 46.6412 47.7156L46.9802 46.6565C46.7286 46.5664 46.4636 46.5199 46.1964 46.5188L46.2176 46.54ZM32.0146 47.0696C31.3911 46.6989 30.6743 46.5151 29.9493 46.54C28.6678 46.54 27.8311 47.1543 27.8311 48.1605C27.8311 48.9866 28.4454 49.495 29.5786 49.6539L30.1082 49.728C30.7119 49.8127 30.9979 49.9716 30.9979 50.2576C30.9979 50.6494 30.5954 50.8719 29.8434 50.8719C29.2385 50.8894 28.6454 50.7028 28.1594 50.3423L27.6298 51.2002C28.2715 51.6482 29.04 51.8784 29.8222 51.8568C31.2838 51.8568 32.1311 51.1684 32.1311 50.2046C32.1311 49.2408 31.4639 48.8489 30.3624 48.69L29.8328 48.6159C29.3562 48.5524 28.9749 48.457 28.9749 48.1181C28.9749 47.7792 29.335 47.525 29.9387 47.525C30.4967 47.5315 31.0437 47.681 31.5274 47.9592L32.0146 47.0696ZM61.5167 46.54C61.2482 46.5321 60.9824 46.5968 60.7476 46.7273C60.5127 46.8578 60.3174 47.0492 60.1822 47.2814V46.6671H59.1231V51.7298H60.2193V48.8913C60.2193 48.0546 60.5794 47.5886 61.2784 47.5886C61.514 47.5853 61.7479 47.6285 61.9669 47.7156L62.3058 46.6565C62.0542 46.5664 61.7892 46.5199 61.522 46.5188L61.5167 46.54ZM47.3297 49.1878C47.3166 49.5436 47.3779 49.8982 47.5097 50.2289C47.6415 50.5596 47.8409 50.8592 48.0951 51.1084C48.3493 51.3577 48.6528 51.5511 48.986 51.6763C49.3193 51.8015 49.675 51.8558 50.0305 51.8357C50.6918 51.8693 51.3418 51.6539 51.8522 51.232L51.3226 50.3423C50.9418 50.6327 50.4775 50.7924 49.9987 50.7977C49.5915 50.7648 49.2117 50.5798 48.9347 50.2795C48.6578 49.9792 48.504 49.5857 48.504 49.1772C48.504 48.7688 48.6578 48.3752 48.9347 48.075C49.2117 47.7747 49.5915 47.5897 49.9987 47.5568C50.4775 47.5621 50.9418 47.7218 51.3226 48.0122L51.8522 47.1225C51.3418 46.7006 50.6918 46.4852 50.0305 46.5188C49.675 46.4987 49.3193 46.553 48.986 46.6782C48.6528 46.8034 48.3493 46.9968 48.0951 47.2461C47.8409 47.4953 47.6415 47.7949 47.5097 48.1256C47.3779 48.4563 47.3166 48.8109 47.3297 49.1667V49.1878ZM57.6456 46.6671H56.5441V47.2814C56.3571 47.0407 56.1154 46.848 55.8392 46.719C55.563 46.5901 55.26 46.5288 54.9554 46.54C54.2532 46.54 53.5797 46.819 53.0831 47.3155C52.5866 47.8121 52.3076 48.4856 52.3076 49.1878C52.3076 49.8901 52.5866 50.5636 53.0831 51.0601C53.5797 51.5567 54.2532 51.8357 54.9554 51.8357C55.26 51.8469 55.563 51.7855 55.8392 51.6566C56.1154 51.5277 56.3571 51.335 56.5441 51.0943V51.7086H57.6456V46.6671ZM53.5468 49.1878C53.5643 48.8898 53.6687 48.6035 53.8469 48.364C54.0252 48.1246 54.2696 47.9425 54.55 47.8401C54.8304 47.7378 55.1347 47.7198 55.4253 47.7882C55.7158 47.8566 55.9801 48.0084 56.1854 48.2251C56.3907 48.4418 56.5282 48.7138 56.581 49.0076C56.6337 49.3015 56.5993 49.6043 56.4821 49.8788C56.3649 50.1534 56.1699 50.3876 55.9212 50.5528C55.6726 50.7179 55.381 50.8068 55.0825 50.8083C54.8728 50.811 54.6649 50.7702 54.4717 50.6886C54.2785 50.607 54.1044 50.4863 53.9601 50.334C53.8159 50.1818 53.7047 50.0014 53.6336 49.8042C53.5624 49.6069 53.5329 49.3971 53.5468 49.1878ZM40.2547 46.54C39.5524 46.5498 38.8828 46.8382 38.3932 47.3418C37.9036 47.8453 37.6341 48.5227 37.6439 49.2249C37.6537 49.9272 37.9421 50.5967 38.4457 51.0863C38.9492 51.576 39.6266 51.8455 40.3288 51.8357C41.0889 51.8734 41.8361 51.6282 42.4259 51.1472L41.8963 50.3317C41.4782 50.6671 40.9601 50.8534 40.4241 50.8613C40.0603 50.8912 39.6991 50.7788 39.4165 50.5476C39.134 50.3164 38.9523 49.9846 38.9096 49.6221H42.6695C42.6695 49.4844 42.6695 49.3467 42.6695 49.1984C42.6695 47.6097 41.6845 46.5506 40.2653 46.5506L40.2547 46.54ZM40.2547 47.525C40.4195 47.5215 40.5834 47.5505 40.737 47.6103C40.8906 47.6702 41.031 47.7597 41.15 47.8738C41.269 47.9879 41.3643 48.1243 41.4306 48.2753C41.4969 48.4262 41.5328 48.5888 41.5362 48.7536H38.8884C38.9076 48.4136 39.0591 48.0947 39.3105 47.8651C39.5619 47.6355 39.8932 47.5134 40.2335 47.525H40.2547ZM67.845 44.6336H66.7859V47.2814C66.5989 47.0407 66.3572 46.848 66.081 46.719C65.8048 46.5901 65.5018 46.5288 65.1972 46.54C64.495 46.54 63.8215 46.819 63.3249 47.3155C62.8283 47.8121 62.5494 48.4856 62.5494 49.1878C62.5494 49.8901 62.8283 50.5636 63.3249 51.0601C63.8215 51.5567 64.495 51.8357 65.1972 51.8357C65.5018 51.8469 65.8048 51.7855 66.081 51.6566C66.3572 51.5277 66.5989 51.335 66.7859 51.0943V51.7086H67.845V44.6336ZM63.7462 49.1984C63.7638 48.9004 63.8681 48.6141 64.0463 48.3746C64.2246 48.1352 64.469 47.9531 64.7494 47.8507C65.0299 47.7484 65.3341 47.7303 65.6247 47.7988C65.9153 47.8672 66.1795 48.019 66.3848 48.2357C66.5902 48.4524 66.7277 48.7244 66.7804 49.0182C66.8331 49.312 66.7987 49.6149 66.6815 49.8894C66.5643 50.164 66.3694 50.3982 66.1207 50.5634C65.872 50.7285 65.5805 50.8174 65.2819 50.8189C65.0723 50.8216 64.8643 50.7808 64.6711 50.6992C64.478 50.6175 64.3038 50.4968 64.1596 50.3446C64.0153 50.1924 63.9041 50.012 63.833 49.8148C63.7618 49.6175 63.7323 49.4077 63.7462 49.1984ZM26.5548 49.1984V46.6671H25.4798V47.2814C25.2927 47.0407 25.0511 46.848 24.7749 46.719C24.4986 46.5901 24.1957 46.5288 23.8911 46.54C23.1888 46.54 22.5154 46.819 22.0188 47.3155C21.5222 47.8121 21.2433 48.4856 21.2433 49.1878C21.2433 49.8901 21.5222 50.5636 22.0188 51.0601C22.5154 51.5567 23.1888 51.8357 23.8911 51.8357C24.1957 51.8469 24.4986 51.7855 24.7749 51.6566C25.0511 51.5277 25.2927 51.335 25.4798 51.0943V51.7086H26.5813L26.5548 49.1984ZM22.456 49.1984C22.4735 48.9004 22.5779 48.6141 22.7561 48.3746C22.9344 48.1352 23.1788 47.9531 23.4592 47.8507C23.7396 47.7484 24.0439 47.7303 24.3345 47.7988C24.625 47.8672 24.8893 48.019 25.0946 48.2357C25.2999 48.4524 25.4374 48.7244 25.4902 49.0182C25.5429 49.312 25.5085 49.6149 25.3913 49.8894C25.2741 50.164 25.0791 50.3982 24.8304 50.5634C24.5818 50.7285 24.2902 50.8174 23.9917 50.8189C23.7834 50.8194 23.5771 50.777 23.3859 50.6944C23.1946 50.6118 23.0223 50.4907 22.8798 50.3388C22.7373 50.1868 22.6275 50.0072 22.5573 49.811C22.4872 49.6148 22.4581 49.4063 22.4719 49.1984H22.456ZM69.6826 50.9937C69.7518 50.9945 69.8202 51.0089 69.8839 51.036C69.9428 51.0614 69.9966 51.0973 70.0427 51.1419C70.0893 51.1876 70.127 51.2415 70.1539 51.3008C70.1804 51.3628 70.1948 51.4293 70.1963 51.4967C70.1961 51.5643 70.1816 51.6311 70.1539 51.6927C70.1295 51.7534 70.0914 51.8078 70.0427 51.8516C69.998 51.8991 69.9439 51.937 69.8839 51.9628C69.8198 51.9881 69.7515 52.0007 69.6826 51.9998C69.6148 52.0016 69.5473 51.9894 69.4844 51.9639C69.4216 51.9383 69.3646 51.9001 69.3172 51.8516C69.2685 51.8078 69.2305 51.7534 69.206 51.6927C69.18 51.6307 69.1674 51.5639 69.169 51.4967C69.168 51.4296 69.1806 51.3629 69.206 51.3008C69.233 51.2415 69.2707 51.1876 69.3172 51.1419C69.3656 51.0976 69.4211 51.0618 69.4814 51.036C69.55 51.0068 69.624 50.9923 69.6985 50.9937H69.6826ZM69.6826 51.8886C69.7335 51.8966 69.7853 51.8966 69.8362 51.8886C69.88 51.8653 69.9209 51.8368 69.958 51.8039C69.9939 51.7672 70.0226 51.7241 70.0427 51.6768C70.0512 51.626 70.0512 51.5741 70.0427 51.5232C70.0508 51.4723 70.0508 51.4205 70.0427 51.3696C70.0226 51.324 69.9939 51.2826 69.958 51.2478C69.9223 51.2132 69.8811 51.1846 69.8362 51.1631C69.7368 51.128 69.6284 51.128 69.5291 51.1631C69.4818 51.1832 69.4387 51.2119 69.402 51.2478C69.3661 51.2826 69.3373 51.324 69.3172 51.3696C69.3003 51.4191 69.2914 51.471 69.2907 51.5232C69.2909 51.5755 69.2998 51.6275 69.3172 51.6768C69.3373 51.7241 69.3661 51.7672 69.402 51.8039C69.44 51.8381 69.4828 51.8667 69.5291 51.8886C69.5851 51.8984 69.6425 51.8984 69.6985 51.8886H69.6826ZM69.7144 51.2637C69.7632 51.2598 69.8119 51.2729 69.8521 51.3008C69.868 51.3145 69.8805 51.3316 69.8888 51.3509C69.897 51.3702 69.9008 51.3911 69.8998 51.412C69.9005 51.4296 69.8976 51.4472 69.8912 51.4636C69.8848 51.48 69.8751 51.4949 69.8627 51.5073C69.8322 51.5356 69.7929 51.5524 69.7515 51.555L69.905 51.7298H69.7832L69.6403 51.555H69.5979V51.7298H69.4973V51.2637H69.7144ZM69.5979 51.3485V51.4756H69.7091C69.7298 51.4817 69.7519 51.4817 69.7727 51.4756C69.7803 51.4702 69.7865 51.4631 69.7909 51.4548C69.7952 51.4465 69.7974 51.4373 69.7974 51.4279C69.7974 51.4186 69.7952 51.4093 69.7909 51.401C69.7865 51.3927 69.7803 51.3856 69.7727 51.3802C69.7519 51.3741 69.7298 51.3741 69.7091 51.3802L69.5979 51.3485ZM68.9995 34.8896V34.2753H69.2484V34.1535H68.6182V34.2753H68.9042V34.8896H68.9995ZM70.2228 34.8896V34.1535H70.0321L69.8097 34.683L69.5873 34.1535H69.4337V34.8896H69.5714V34.36L69.778 34.8419H69.9209L70.1275 34.36V34.8896H70.2228ZM38.2847 38.5965L38.7454 38.9778C35.873 40.8832 32.5378 41.9741 29.0946 42.1345C25.6514 42.295 22.2292 41.5189 19.192 39.889C16.1549 38.259 13.6165 35.8361 11.8469 32.8781C10.0773 29.9201 9.14282 26.5377 9.14282 23.0908C9.14282 19.6439 10.0773 16.2615 11.8469 13.3036C13.6165 10.3456 16.1549 7.92267 19.192 6.29271C22.2292 4.66275 25.6514 3.8867 29.0946 4.04714C32.5378 4.20759 35.873 5.29853 38.7454 7.20387L38.2847 7.58516C36.0668 9.51243 34.2883 11.8933 33.0696 14.5669C31.8508 17.2405 31.2202 20.1446 31.2202 23.0829C31.2202 26.0212 31.8508 28.9253 33.0696 31.5989C34.2883 34.2725 36.0668 36.6534 38.2847 38.5806V38.5965ZM51.7727 4.01589C48.0178 4.00767 44.3448 5.11344 41.2185 7.19328L41.6792 7.57457C43.8987 9.50087 45.6785 11.8814 46.8983 14.5552C48.1181 17.2289 48.7493 20.1335 48.7493 23.0723C48.7493 26.0111 48.1181 28.9157 46.8983 31.5894C45.6785 34.2632 43.8987 36.6437 41.6792 38.57L41.2185 38.9513C43.6964 40.595 46.5245 41.6363 49.4767 41.9919C52.4289 42.3475 55.4234 42.0076 58.2208 40.9994C61.0182 39.9912 63.5409 38.3426 65.5875 36.1853C67.634 34.0281 69.1475 31.422 70.0071 28.5754C70.8667 25.7288 71.0485 22.7206 70.538 19.7913C70.0275 16.8619 68.8388 14.0925 67.0669 11.7045C65.2951 9.31651 62.9892 7.37608 60.3336 6.03831C57.678 4.70053 54.7463 4.0025 51.7727 4V4.01589ZM39.9899 8.09884C39.7463 8.28948 39.5027 8.49072 39.2697 8.69195C37.2118 10.4815 35.5619 12.6917 34.4312 15.1734C33.3005 17.6551 32.7154 20.3505 32.7154 23.0776C32.7154 25.8047 33.3005 28.5001 34.4312 30.9818C35.5619 33.4635 37.2118 35.6737 39.2697 37.4633C39.5027 37.6645 39.7463 37.8657 39.9899 38.0617C40.2388 37.8657 40.4771 37.6645 40.7101 37.4633C42.7679 35.6737 44.4179 33.4635 45.5486 30.9818C46.6793 28.5001 47.2643 25.8047 47.2643 23.0776C47.2643 20.3505 46.6793 17.6551 45.5486 15.1734C44.4179 12.6917 42.7679 10.4815 40.7101 8.69195C40.4771 8.49072 40.2388 8.28948 39.9899 8.09884Z" fill="#D5D8DD"/>
</svg>
