<svg width="85" height="56" viewBox="0 0 85 56" fill="none" xmlns="http://www.w3.org/2000/svg">
<path d="M2.28564 7V47H43.0954L83.0404 7.00488H2.28564V7Z" fill="#D5D8DD"/>
<path fill-rule="evenodd" clip-rule="evenodd" d="M54.767 41.717C53.3254 41.717 52.0972 42.834 52.0972 44.3445C52.0972 45.8657 53.3254 47.0001 54.767 47.0001C56.188 47.0001 57.3802 45.8657 57.3802 44.3445C57.3794 42.8332 56.188 41.717 54.767 41.717ZM53.7447 45.8575V42.8307H54.881C55.5965 42.8307 55.9599 43.0906 55.9599 43.687C55.9599 44.2315 55.6047 44.4889 55.1649 44.5433L56.0453 45.8567H55.5341L54.7104 44.5433H54.1992V45.8575H53.7447ZM54.8228 43.23H54.1984L54.1976 44.1721H54.7374C55.1255 44.1721 55.4759 44.1309 55.4759 43.6582C55.4759 43.2803 55.1304 43.23 54.8228 43.23ZM56.8682 44.3437C56.8682 43.1005 55.9427 42.1452 54.767 42.1452C53.5707 42.1452 52.6083 43.1005 52.6083 44.3437C52.6083 45.6084 53.5707 46.5422 54.767 46.5422C55.9427 46.5422 56.8682 45.6084 56.8682 44.3437Z" fill="#D5D8DD"/>
<path fill-rule="evenodd" clip-rule="evenodd" d="M51.1756 25.8707H49.4212V19.4413H51.1764C53.5195 19.4413 55.3838 20.2145 55.3838 22.6148C55.3838 25.0934 53.5187 25.8707 51.1756 25.8707ZM32.2881 30.4666C31.3592 30.4666 30.4881 30.2969 29.7351 30.0131L32.2629 22.0268H32.3166L34.7924 30.0343C34.0466 30.3018 33.1983 30.4658 32.2906 30.4658M50.7108 14.2174H42.7422V33.2005L35.7807 14.2174H28.8802L22.9323 30.0882C22.3038 26.0876 18.1673 24.7027 14.9157 23.6702C12.7721 22.9794 10.491 21.964 10.5113 20.8393C10.5293 19.9193 11.7366 19.067 14.1187 19.1942C15.7241 19.2758 17.1399 19.4054 19.9502 20.7667L22.719 15.9351C20.1546 14.6228 16.6001 13.7982 13.6929 13.7925H13.675C10.2834 13.7925 7.4576 14.9001 5.70399 16.7131C4.48607 17.9814 3.82664 19.5857 3.79651 21.3718C3.75174 23.8186 4.65052 25.5542 6.53276 26.9432C8.12517 28.112 10.1572 28.8648 11.9515 29.4283C14.1651 30.1126 15.9724 30.7096 15.9521 31.982C15.9342 32.4452 15.7616 32.8799 15.427 33.2233C14.8758 33.7967 14.0291 34.0096 12.8576 34.0357C10.5993 34.0805 8.92463 33.7282 6.25759 32.1492L3.79651 37.0485C6.45623 38.5655 9.60361 39.4529 12.8169 39.4529H13.2329C16.0286 39.399 18.2862 38.5989 20.091 37.1463L20.3833 36.8911L19.5863 39.0377H26.823L28.0385 35.3349C29.3101 35.7655 30.7584 36.0078 32.2914 36.0078C33.7877 36.0078 35.1986 35.7818 36.4475 35.37L37.6165 39.0377H49.4245V31.3678H52.0011C58.2234 31.3678 61.9081 28.1951 61.9081 22.8701C61.9081 16.944 58.3301 14.2256 50.7116 14.2256" fill="#2D333A"/>
</svg>
