<svg width="210" height="120" viewBox="0 0 210 120" fill="none" xmlns="http://www.w3.org/2000/svg">
<mask id="mask0" mask-type="alpha" maskUnits="userSpaceOnUse" x="3" y="0" width="72" height="79">
<path fill-rule="evenodd" clip-rule="evenodd" d="M3.75 0H74.6443V78.0804H3.75V0Z" fill="white"/>
</mask>
<g mask="url(#mask0)">
<path fill-rule="evenodd" clip-rule="evenodd" d="M29.0248 78.0803C28.9819 78.0803 28.9389 78.0726 28.8975 78.0543C21.5108 75.0116 15.2287 69.9023 10.7292 63.2823C6.12075 56.4988 3.70761 48.5683 3.75056 40.3429C3.80733 29.5484 8.06291 19.4107 15.7349 11.7994C23.4054 4.18957 33.5857 -0.000244141 44.398 -0.000244141H44.6174C55.9835 0.0593267 66.8818 4.91358 74.5246 13.3192C74.5983 13.3803 74.6443 13.4704 74.6443 13.5743C74.6443 13.7576 74.494 13.9103 74.3083 13.9057H74.3068C74.2255 13.9057 74.1442 13.8767 74.0798 13.8171C66.845 7.14061 57.4317 3.43348 47.5721 3.38307H47.3619C36.8948 3.38307 27.0428 7.43847 19.6208 14.8039C12.1942 22.1708 8.07365 31.9816 8.01996 42.431C7.94172 57.1938 16.0494 70.6125 29.1798 77.454C29.3378 77.538 29.4022 77.7289 29.327 77.8893C29.2703 78.01 29.1506 78.0803 29.0248 78.0803" fill="white"/>
</g>
<path fill-rule="evenodd" clip-rule="evenodd" d="M64.8215 32.0986C64.8215 31.4021 65.1207 30.7758 65.5963 30.3359C65.7788 30.1694 65.9828 30.0304 66.2084 29.925C66.5198 29.7784 66.868 29.6929 67.2377 29.6929H74.6137V30.3054C74.6137 30.6781 74.356 30.9927 74.0062 31.0798L73.5444 31.1501C73.1241 31.2234 72.7037 31.3272 72.2926 31.4632C71.3859 31.7519 71.1313 32.4377 71.1313 33.2686V34.6143V46.5713C71.1313 51.5187 73.3803 53.6846 77.5883 53.6846C81.6859 53.6846 84.1527 51.1216 84.1527 46.3192V32.1078C84.1527 30.7789 85.2342 29.702 86.5689 29.702L89.7246 29.6929V30.3054C89.7246 30.6781 89.4653 30.9927 89.1171 31.0798L88.9299 31.1073C88.419 31.1776 87.902 31.2967 87.4019 31.4632C86.4953 31.7519 86.2422 32.4377 86.2422 33.2686L86.256 46.9684C86.256 49.6766 85.3125 51.8792 83.4639 53.5777C81.6138 55.238 79.1469 56.069 76.0649 56.069C68.9191 56.069 64.8215 52.675 64.8215 46.9317V32.0986Z" fill="white"/>
<path fill-rule="evenodd" clip-rule="evenodd" d="M61.0761 38.7551C61.0991 38.8086 61.1282 38.8575 61.1574 38.9064L61.073 38.749C61.0745 38.7506 61.0761 38.7536 61.0761 38.7551" fill="white"/>
<path fill-rule="evenodd" clip-rule="evenodd" d="M63.4746 48.8283C62.9193 48.4602 62.1676 48.6099 61.7994 49.1628H61.8009C59.7974 52.123 57.461 53.5771 54.4679 53.5771C52.1837 53.5771 50.2983 52.818 48.9559 50.9774C47.6504 49.2789 46.779 46.4638 46.779 42.526C46.779 35.4844 49.1369 31.4046 53.5981 31.4046C57.0237 31.4046 59.3249 33.679 61.0738 38.7486L61.1566 38.9059C61.3637 39.2496 61.7334 39.4833 62.1614 39.494H62.189H62.884L62.8978 32.0278C62.8748 31.3649 62.5833 30.7707 62.1261 30.3491C61.9451 30.1826 61.7411 30.0436 61.5156 29.9382C61.2026 29.7916 60.8544 29.7061 60.4862 29.7061H53.3803C49.499 29.7061 45.9813 31.0792 43.6249 33.4269C41.1566 35.8464 39.7437 39.2404 39.7437 43.1049C39.7437 47.006 41.1566 50.3634 43.516 52.566C45.8724 54.8419 49.2106 56.0684 52.8725 56.0684C55.9207 56.0684 58.0961 55.2741 59.9447 53.9743C61.6506 52.818 62.9208 51.1576 63.9349 49.0986L63.4746 48.8283Z" fill="white"/>
<path fill-rule="evenodd" clip-rule="evenodd" d="M37.4153 44.0327C37.2143 43.9456 36.9995 43.8906 36.774 43.8601C36.6651 43.8448 36.5547 43.8265 36.4427 43.8265H28.9563L28.9624 44.2068C28.9624 44.7292 29.2968 45.1706 29.7647 45.3356C29.8721 45.3738 29.9887 45.3982 30.1099 45.4028C30.1283 45.4043 30.1498 45.4089 30.1697 45.4089C30.1498 45.4089 30.1283 45.4043 30.1099 45.4028C30.6607 45.5174 31.2313 45.6671 31.6409 45.8488C32.5476 46.2826 32.7654 46.8249 32.7654 47.6558V52.7468C31.8941 53.5778 30.1912 54.3002 28.1217 54.3002C23.6606 54.3002 21.1569 49.8935 21.1569 42.5266C21.1569 35.5935 23.7342 31.4037 28.2675 31.4037C31.8956 31.4037 34.2581 33.7392 35.9778 38.737C35.9824 38.7477 35.9855 38.7568 35.9901 38.7675C36.1696 39.1876 36.5838 39.4824 37.0686 39.4931H37.7697V32.1094C37.7697 31.4128 37.4705 30.7851 36.9949 30.3467C36.8139 30.1802 36.6083 30.0397 36.3828 29.9358C36.0745 29.7907 35.7324 29.7067 35.3688 29.7036L28.0143 29.7067C23.8063 29.7067 20.2886 31.0081 17.8571 33.426C15.3918 35.7737 14.0847 39.2044 14.0847 43.1055C14.0847 47.2938 15.5375 50.5794 17.966 52.7468C20.3239 54.9494 23.6253 56.069 27.2519 56.069C29.2109 56.069 31.351 55.7437 33.6353 55.1296C35.47 54.6363 36.9474 54.0971 38.0811 53.5487L38.2636 53.4601C38.6119 53.2555 38.8481 52.8858 38.8573 52.4581V52.4322V46.2322C38.8573 45.2501 38.2636 44.4069 37.4153 44.0327" fill="white"/>
<path fill-rule="evenodd" clip-rule="evenodd" d="M42.8513 67.242C42.6288 67.2848 42.1563 67.3306 41.9216 67.4482C41.6255 67.5796 41.5227 67.8591 41.5227 68.2119V69.0047V70.1656C41.5381 70.3565 41.5381 70.5322 41.5519 70.665C40.2678 71.2378 39.0145 71.5464 37.7887 71.5464C36.4755 71.5464 35.2068 71.0332 34.3063 70.1365C33.4058 69.2399 32.8152 67.9034 32.8152 66.3011C32.8152 64.7584 33.346 63.4066 34.291 62.4229C35.2207 61.4667 36.52 60.9092 37.9513 60.9092C39.1173 60.9092 39.9426 61.2177 40.5931 61.6133L40.8876 61.1291H41.4644L41.5227 64.6851H40.9321C40.7403 63.906 40.4596 63.1133 39.9871 62.51C39.5161 61.9081 38.8519 61.511 37.9069 61.511C36.8882 61.511 36.0767 61.9372 35.4861 62.7589C34.8954 63.5379 34.5717 64.7736 34.5717 66.2278C34.5717 67.5215 34.8816 68.7114 35.4861 69.5332C36.0767 70.4008 36.9925 70.9155 38.114 70.9155C38.9546 70.9155 39.7217 70.5917 40.0178 70.3137C40.0914 69.799 40.0761 69.2537 40.0761 68.9024V68.3448C40.0761 67.9477 40.0024 67.6086 39.6481 67.4757C39.3382 67.3153 38.6739 67.2573 38.3794 67.242V66.7273H42.8513V67.242Z" fill="white"/>
<path fill-rule="evenodd" clip-rule="evenodd" d="M46.6566 71.3127H43.188V70.8408C43.4089 70.8285 43.6759 70.798 43.8523 70.7552C44.1039 70.6804 44.2511 70.4589 44.2511 70.1076V62.6139C44.2511 62.2748 44.0885 61.951 43.8523 61.7753C43.6759 61.6577 43.099 61.5538 42.8198 61.5416V61.0696L45.4907 60.9077L45.5935 61.0116V70.019C45.5935 70.3566 45.7116 70.5628 45.9923 70.6804C46.2133 70.7827 46.405 70.8285 46.6566 70.8408V71.3127Z" fill="white"/>
<path fill-rule="evenodd" clip-rule="evenodd" d="M110.166 71.3127H106.697V70.8408C106.918 70.8285 107.185 70.798 107.362 70.7552C107.613 70.6804 107.76 70.4589 107.76 70.1076V62.6139C107.76 62.2748 107.598 61.951 107.362 61.7753C107.185 61.6577 106.608 61.5538 106.328 61.5416V61.0696L109 60.9077L109.103 61.0116V70.019C109.103 70.3566 109.221 70.5628 109.502 70.6804C109.723 70.7827 109.914 70.8285 110.166 70.8408V71.3127Z" fill="white"/>
<path fill-rule="evenodd" clip-rule="evenodd" d="M51.6147 67.3883C50.7878 67.6388 50.2125 67.8297 49.6817 68.1825C49.2092 68.4911 48.8993 68.9478 48.8993 69.5496C48.8993 70.3271 49.3718 70.6952 50.0054 70.6952C50.6988 70.6952 51.2173 70.3271 51.5702 69.8719L51.6147 67.3883ZM54.1229 71.1794C53.6657 71.3566 53.3865 71.459 52.957 71.459C52.2053 71.459 51.7466 71.0924 51.6285 70.4295H51.5855C50.9504 71.1199 50.2861 71.4895 49.2828 71.4895C48.2197 71.4895 47.4526 70.7838 47.4526 69.7253C47.4526 69.1815 47.6153 68.7569 47.9098 68.4178C48.1614 68.123 48.6047 67.8878 48.9438 67.7564C49.1647 67.6816 49.5927 67.5365 50.257 67.315C50.9212 67.095 51.3631 66.9178 51.6008 66.7865V66.0808C51.6008 65.9632 51.5548 65.5523 51.3922 65.2132C51.202 64.8619 50.8767 64.5671 50.2416 64.5671C49.7845 64.5671 49.3856 64.7443 49.223 64.9046C49.223 65.0971 49.3565 65.537 49.3565 65.8456C49.3565 66.1831 49.0312 66.5069 48.5004 66.5069C48.0141 66.5069 47.7932 66.1098 47.7932 65.6852C47.7932 65.2575 48.1307 64.8313 48.6477 64.5228C49.0757 64.2433 49.74 64.0386 50.3306 64.0386C51.1421 64.0386 51.7174 64.1119 52.2053 64.48C52.6916 64.8313 52.957 65.4194 52.957 66.3756C52.957 67.7274 52.914 68.6668 52.914 69.9162C52.914 70.2843 53.0306 70.489 53.3114 70.6509C53.4448 70.7258 53.8145 70.7258 54.1229 70.7258V71.1794Z" fill="white"/>
<path fill-rule="evenodd" clip-rule="evenodd" d="M59.9968 69.2693C59.9968 69.9322 59.7452 70.4592 59.2435 70.8869C58.7572 71.2977 58.1221 71.5039 57.3397 71.5039C56.5128 71.5039 55.7458 71.1068 55.4512 70.8716L55.3024 71.3268H54.7716L54.698 68.8721H55.1843C55.2595 69.2387 55.5387 69.7993 55.8931 70.1949C56.2628 70.6226 56.7936 70.9449 57.4425 70.9449C58.3722 70.9449 58.8892 70.5187 58.8892 69.7397C58.8892 69.3441 58.7265 69.0631 58.4167 68.8446C58.1068 68.6079 57.6343 68.4475 57.059 68.2703C56.6018 68.1542 55.9974 67.9022 55.5985 67.5937C55.1843 67.2423 54.8744 66.7704 54.8744 66.1105C54.8744 65.5377 55.0969 65.0367 55.5249 64.6411C55.9529 64.2439 56.5435 64.0377 57.2661 64.0377C57.8122 64.0377 58.4627 64.2149 58.8309 64.4059L58.9935 64.0225H59.5089L59.6271 66.3014H59.1254C58.9336 65.2887 58.2095 64.583 57.2507 64.583C56.4699 64.583 55.982 65.052 55.982 65.5957C55.982 66.0219 56.1293 66.3014 56.4239 66.4924C56.7199 66.6848 57.1326 66.8299 57.7831 67.0514C58.4167 67.2423 59.0073 67.5356 59.377 67.8442C59.7743 68.197 59.9968 68.6232 59.9968 69.2693" fill="white"/>
<path fill-rule="evenodd" clip-rule="evenodd" d="M63.7586 64.5524C63.3015 64.5524 62.9763 64.7433 62.7845 65.0824C62.5927 65.3909 62.5191 65.8751 62.5191 66.3456C62.5191 67.4026 63.0207 68.1388 63.7725 68.1388C64.5993 68.1388 65.058 67.3873 65.058 66.3884C65.058 65.2581 64.5855 64.5524 63.7586 64.5524M65.6762 71.313C65.4261 71.2672 64.5102 71.2092 63.4042 71.2092C62.3564 71.4001 61.9575 71.8706 61.9575 72.619C61.9575 72.9581 62.091 73.2819 62.4453 73.5309C62.7844 73.7814 63.3443 73.9571 64.1574 73.9571C65.5734 73.9571 66.4447 73.4286 66.4447 72.3105C66.4447 71.782 66.1932 71.4291 65.6762 71.313M67.626 72.0463C67.626 72.7367 67.3146 73.3553 66.7255 73.7815C66.075 74.2367 65.219 74.5009 63.9058 74.5009C61.7658 74.5009 60.7026 73.8701 60.7026 72.6496C60.7026 71.695 61.5587 71.0916 62.7399 71.0336V70.945C62.4592 70.8411 62.1201 70.725 61.8992 70.5479C61.6476 70.3569 61.4866 70.0927 61.4866 69.6955C61.4866 69.1808 61.8409 68.7409 62.562 68.4476V68.33C61.663 67.9023 61.1168 67.2272 61.1168 66.3306C61.1168 65.6692 61.3669 65.1101 61.8701 64.6855C62.3702 64.2593 63.0053 64.0378 63.7877 64.0378C64.2157 64.0378 64.6591 64.1402 65.0871 64.2731H67.5662V64.9497H65.8986V64.994C66.253 65.4064 66.4294 65.9334 66.4294 66.4191C66.4294 67.0362 66.1794 67.5663 65.6624 67.9909C65.1607 68.4171 64.5701 68.6385 63.8905 68.6385H63.0207C62.7997 68.7119 62.5037 68.9028 62.5037 69.2541C62.5037 69.6085 62.7246 69.7841 63.0207 69.8422C63.3014 69.917 63.6696 69.9308 64.0838 69.9445C64.2894 69.9445 64.5701 69.9598 64.9398 69.9903C65.308 70.0041 65.5734 70.0194 65.7207 70.0346C66.1794 70.0484 66.6365 70.2393 67.0047 70.5769C67.3744 70.945 67.626 71.3864 67.626 72.0463" fill="white"/>
<path fill-rule="evenodd" clip-rule="evenodd" d="M73.1289 65.5668C72.8191 64.9787 72.3312 64.5816 71.6087 64.5816C70.8569 64.5816 70.34 64.9634 70.0301 65.5958C69.7202 66.1823 69.6021 66.9781 69.6021 67.6823C69.6021 68.6079 69.734 69.3717 70.0746 70.004C70.4136 70.6074 70.8861 70.9892 71.6087 70.9892C72.8037 70.9892 73.557 69.755 73.557 67.7113C73.557 67.0056 73.4235 66.109 73.1289 65.5668M74.1322 70.4012C73.4832 71.165 72.5965 71.5315 71.5196 71.5315C70.6206 71.5315 69.7784 71.1802 69.1433 70.5326C68.5097 69.8865 68.1108 68.9608 68.1108 67.8C68.1108 66.6971 68.4345 65.7883 69.085 65.0964C69.7339 64.3892 70.5746 64.0378 71.6239 64.0378C72.6119 64.0378 73.4388 64.3769 74.0739 65.0368C74.7228 65.6982 75.0465 66.5948 75.0465 67.6976C75.0465 68.6966 74.7228 69.7108 74.1322 70.4012" fill="white"/>
<path fill-rule="evenodd" clip-rule="evenodd" d="M86.2914 64.6988C85.894 64.7431 85.3617 65.0227 85.1408 65.6107C84.6529 67.0221 84.2694 68.1677 83.7386 69.7394C83.5622 70.2252 83.3704 70.8407 83.237 71.3555H82.6172L80.7134 66.1545L78.7804 71.3555H78.1898C77.8354 70.2985 77.481 69.2537 77.142 68.212C76.8014 67.1672 76.4915 66.2584 76.2261 65.4794C76.0635 65.0227 75.5619 64.7584 75.1646 64.7141V64.2437H78.3217V64.7431C78.0134 64.7431 77.5393 64.8317 77.5393 65.0517C77.5393 65.0975 77.5685 65.2426 77.6283 65.3755C77.9229 66.376 78.2926 67.491 78.8985 69.4752L80.7134 64.3765H81.4068L83.2523 69.4019C83.665 68.1234 84.1083 66.903 84.4167 65.846C84.4765 65.6107 84.5502 65.4198 84.5502 65.1998C84.5502 65.0379 84.3876 64.8898 84.1513 64.8164C83.9749 64.7431 83.7095 64.6988 83.5914 64.6988V64.2437H86.2914V64.6988Z" fill="white"/>
<path fill-rule="evenodd" clip-rule="evenodd" d="M91.2923 70.1508C90.4516 69.2542 89.8901 67.9482 89.8901 66.3154C89.8901 64.6856 90.4209 63.3475 91.3076 62.3929C92.1775 61.452 93.4032 60.9082 94.7609 60.9082C95.7642 60.9082 96.5466 61.1572 97.2998 61.6139L97.5944 61.1297H98.1697L98.2433 64.7589H97.6389C97.5054 64.0532 97.1664 63.1413 96.7537 62.5533C96.295 61.9087 95.6752 61.5115 94.8499 61.5115C93.9187 61.5115 93.0918 61.9209 92.5027 62.7442C91.9566 63.5095 91.616 64.7436 91.616 66.2131C91.616 67.5206 91.9412 68.6234 92.5763 69.4467C93.1808 70.2532 94.023 70.7389 95.0708 70.7389C95.8532 70.7389 96.5174 70.4747 97.0038 70.0775C97.4763 69.6514 97.8444 69.1076 98.0807 68.4752L98.6115 68.741C97.7861 70.7557 96.4285 71.5469 94.54 71.5469C93.3142 71.5469 92.1621 71.0475 91.2923 70.1508" fill="white"/>
<path fill-rule="evenodd" clip-rule="evenodd" d="M103.393 67.3883C102.566 67.6388 101.989 67.8297 101.46 68.1825C100.987 68.4911 100.677 68.9478 100.677 69.5496C100.677 70.3271 101.15 70.6952 101.784 70.6952C102.477 70.6952 102.994 70.3271 103.348 69.8719L103.393 67.3883ZM105.901 71.1794C105.444 71.3566 105.163 71.459 104.735 71.459C103.983 71.459 103.525 71.0924 103.408 70.4295H103.362C102.728 71.1199 102.064 71.4895 101.059 71.4895C99.9978 71.4895 99.2307 70.7838 99.2307 69.7253C99.2307 69.1815 99.3933 68.7569 99.6879 68.4178C99.9395 68.123 100.381 67.8878 100.72 67.7564C100.943 67.6816 101.371 67.5365 102.035 67.315C102.698 67.095 103.141 66.9178 103.377 66.7865V66.0808C103.377 65.9632 103.334 65.5523 103.17 65.2132C102.979 64.8619 102.655 64.5671 102.02 64.5671C101.563 64.5671 101.164 64.7443 101.001 64.9046C101.001 65.0971 101.135 65.537 101.135 65.8456C101.135 66.1831 100.809 66.5069 100.279 66.5069C99.7907 66.5069 99.5697 66.1098 99.5697 65.6852C99.5697 65.2575 99.9088 64.8313 100.426 64.5228C100.854 64.2433 101.518 64.0386 102.109 64.0386C102.92 64.0386 103.496 64.1119 103.983 64.48C104.47 64.8313 104.735 65.4194 104.735 66.3756C104.735 67.7274 104.692 68.6668 104.692 69.9162C104.692 70.2843 104.81 70.489 105.089 70.6509C105.221 70.7258 105.593 70.7258 105.901 70.7258V71.1794Z" fill="white"/>
<path fill-rule="evenodd" clip-rule="evenodd" d="M115.478 66.9482C115.478 66.4182 115.403 65.7277 115.182 65.3169C114.961 64.8892 114.591 64.5822 113.986 64.5822C112.984 64.5822 112.246 65.4635 112.186 66.9482H115.478ZM117.071 69.6517C116.48 70.7683 115.447 71.503 114.15 71.503C113.013 71.503 112.157 71.0769 111.582 70.3864C111.035 69.6808 110.755 68.7566 110.755 67.7119C110.755 66.7878 111.049 65.8759 111.624 65.1702C112.172 64.4798 112.997 64.0383 114.001 64.0383C115.05 64.0383 115.773 64.3759 116.245 64.9487C116.672 65.4787 116.894 66.2134 116.894 67.0795V67.55H112.186C112.186 68.4909 112.349 69.2393 112.747 69.8136C113.116 70.3559 113.72 70.7103 114.562 70.7103C115.403 70.7103 115.98 70.3559 116.57 69.3432L117.071 69.6517Z" fill="white"/>
<path fill-rule="evenodd" clip-rule="evenodd" d="M122.915 65.8013C122.84 65.5523 122.664 65.2437 122.413 65.007C122.117 64.7733 121.749 64.5824 121.261 64.5824C120.686 64.5824 120.184 64.9047 119.815 65.45C119.46 65.9769 119.239 66.846 119.239 67.845C119.239 68.6515 119.387 69.2839 119.743 69.8567C120.08 70.3867 120.612 70.738 121.321 70.738C122.088 70.738 122.575 70.3439 122.915 69.9453V65.8013ZM125.511 71.1793L123.047 71.3427L122.929 71.2389V70.5775L122.871 70.5622C122.383 71.1365 121.586 71.5184 120.819 71.5184C120.006 71.5184 119.21 71.1365 118.664 70.4889C118.089 69.829 117.734 68.8728 117.734 67.7563C117.734 66.742 118.103 65.7874 118.738 65.097C119.328 64.4493 120.229 64.0384 121.114 64.0384C121.778 64.0384 122.456 64.2156 122.915 64.4936V62.7309C122.915 62.3338 122.782 61.981 122.53 61.8053C122.28 61.6297 121.778 61.5686 121.246 61.5258V61.0691L124.155 60.9087L124.273 61.011V69.8565C124.273 70.1956 124.406 70.4156 124.641 70.5775C124.833 70.6951 125.232 70.7104 125.511 70.7104V71.1793Z" fill="white"/>
<path fill-rule="evenodd" clip-rule="evenodd" d="M130.69 65.5668C130.38 64.9787 129.892 64.5816 129.17 64.5816C128.418 64.5816 127.901 64.9634 127.59 65.5958C127.281 66.1823 127.163 66.9781 127.163 67.6823C127.163 68.6079 127.295 69.3717 127.636 70.004C127.973 70.6074 128.447 70.9892 129.17 70.9892C130.365 70.9892 131.118 69.755 131.118 67.7113C131.118 67.0056 130.985 66.109 130.69 65.5668M131.693 70.4012C131.043 71.165 130.159 71.5315 129.081 71.5315C128.18 71.5315 127.34 71.1802 126.705 70.5326C126.071 69.8865 125.672 68.9608 125.672 67.8C125.672 66.6971 125.996 65.7883 126.646 65.0964C127.295 64.3892 128.137 64.0378 129.185 64.0378C130.173 64.0378 131 64.3769 131.634 65.0368C132.284 65.6982 132.609 66.5948 132.609 67.6976C132.609 68.6966 132.284 69.7108 131.693 70.4012" fill="white"/>
<path fill-rule="evenodd" clip-rule="evenodd" d="M140.975 71.3129H137.491V70.8409C137.714 70.8287 138.008 70.8134 138.186 70.7554C138.467 70.6805 138.585 70.459 138.585 70.1077V66.4632C138.585 65.4642 138.024 64.8899 137.361 64.8899C136.844 64.8899 136.43 65.0824 136.091 65.3008C135.781 65.5376 135.589 65.8018 135.515 65.9637V70.0344C135.515 70.372 135.633 70.5629 135.914 70.6805C136.106 70.7828 136.356 70.8287 136.606 70.8409V71.3129H133.125V70.8409C133.345 70.8287 133.596 70.8134 133.774 70.7554C134.053 70.6805 134.171 70.459 134.171 70.1077V65.7438C134.171 65.4062 134.026 65.1251 133.774 64.9495C133.596 64.8471 133.332 64.7891 133.052 64.7738V64.3018L135.412 64.1552L135.515 64.2591V65.2428H135.544C135.781 65.0228 136.164 64.6409 136.474 64.45C136.83 64.2163 137.33 64.0376 137.936 64.0376C139.294 64.0376 139.943 64.9648 139.943 66.3761V70.0481C139.943 70.3872 140.047 70.5782 140.326 70.6958C140.562 70.7981 140.682 70.8287 140.975 70.8409V71.3129Z" fill="white"/>
<path fill-rule="evenodd" clip-rule="evenodd" d="M143.306 62.8476C142.82 62.8476 142.406 62.4077 142.406 61.8929C142.406 61.3629 142.82 60.9077 143.306 60.9077C143.851 60.9077 144.25 61.3491 144.25 61.8334C144.25 62.3771 143.837 62.8476 143.306 62.8476V62.8476ZM145.15 71.3127H141.712V70.8407C141.933 70.8285 142.185 70.8132 142.361 70.7552C142.641 70.6803 142.76 70.4589 142.76 70.1075V65.7436C142.76 65.4335 142.613 65.1708 142.361 64.9936C142.185 64.876 141.786 64.7889 141.49 64.7737V64.3017L144 64.155L144.104 64.2589V70.0189C144.104 70.3565 144.222 70.578 144.501 70.6803C144.724 70.7552 144.9 70.8285 145.15 70.8407V71.3127Z" fill="white"/>
<path fill-rule="evenodd" clip-rule="evenodd" d="M53.2961 76.644C52.8098 76.644 52.3955 76.2026 52.3955 75.6878C52.3955 75.1578 52.8098 74.7026 53.2961 74.7026C53.8422 74.7026 54.2411 75.1456 54.2411 75.6298C54.2411 76.1721 53.8269 76.644 53.2961 76.644V76.644ZM55.1416 85.1076H51.7022V84.6371C51.9231 84.6233 52.1747 84.6081 52.3511 84.55C52.6318 84.4752 52.75 84.2552 52.75 83.9024V79.5385C52.75 79.2284 52.6027 78.9657 52.3511 78.7885C52.1747 78.6709 51.7758 78.5838 51.4797 78.5685V78.0981L53.9895 77.9499L54.0938 78.0538V83.8138C54.0938 84.1529 54.2104 84.3728 54.4912 84.4752C54.7136 84.55 54.89 84.6233 55.1416 84.6371V85.1076Z" fill="white"/>
<path fill-rule="evenodd" clip-rule="evenodd" d="M83.2501 76.6425C82.7638 76.6425 82.3496 76.2026 82.3496 75.6878C82.3496 75.1578 82.7638 74.7026 83.2501 74.7026C83.7963 74.7026 84.1951 75.1456 84.1951 75.6298C84.1951 76.172 83.7809 76.6425 83.2501 76.6425V76.6425ZM85.0957 85.1076H81.6562V84.6356C81.8771 84.6218 82.1287 84.6081 82.3067 84.5485C82.5859 84.4752 82.704 84.2537 82.704 83.9024V79.5385C82.704 79.2284 82.5567 78.9657 82.3067 78.7885C82.1287 78.6709 81.7298 78.5838 81.4353 78.5685V78.0981L83.9436 77.9499L84.0479 78.0538V83.8138C84.0479 84.1514 84.166 84.3728 84.4452 84.4752C84.6676 84.5485 84.8441 84.6218 85.0957 84.6356V85.1076Z" fill="white"/>
<path fill-rule="evenodd" clip-rule="evenodd" d="M150.095 67.3883C149.268 67.6388 148.692 67.8297 148.16 68.1825C147.689 68.4911 147.378 68.9478 147.378 69.5496C147.378 70.3271 147.852 70.6952 148.485 70.6952C149.179 70.6952 149.696 70.3271 150.05 69.8719L150.095 67.3883ZM152.603 71.1794C152.145 71.3566 151.865 71.459 151.437 71.459C150.685 71.459 150.226 71.0924 150.11 70.4295H150.064C149.429 71.1199 148.766 71.4895 147.761 71.4895C146.699 71.4895 145.932 70.7838 145.932 69.7253C145.932 69.1815 146.095 68.7569 146.391 68.4178C146.64 68.123 147.083 67.8878 147.424 67.7564C147.643 67.6816 148.072 67.5365 148.737 67.315C149.401 67.095 149.843 66.9178 150.079 66.7865V66.0808C150.079 65.9632 150.036 65.5523 149.872 65.2132C149.68 64.8619 149.356 64.5671 148.721 64.5671C148.264 64.5671 147.865 64.7443 147.703 64.9046C147.703 65.0971 147.836 65.537 147.836 65.8456C147.836 66.1831 147.511 66.5069 146.98 66.5069C146.492 66.5069 146.273 66.1098 146.273 65.6852C146.273 65.2575 146.61 64.8313 147.127 64.5228C147.557 64.2433 148.22 64.0386 148.81 64.0386C149.622 64.0386 150.197 64.1119 150.685 64.48C151.171 64.8313 151.437 65.4194 151.437 66.3756C151.437 67.7274 151.394 68.6668 151.394 69.9162C151.394 70.2843 151.512 70.489 151.791 70.6509C151.925 70.7258 152.294 70.7258 152.603 70.7258V71.1794Z" fill="white"/>
<path fill-rule="evenodd" clip-rule="evenodd" d="M161.014 71.3129H157.53V70.8409C157.753 70.8287 158.047 70.8134 158.225 70.7554C158.504 70.6805 158.623 70.459 158.623 70.1077V66.4632C158.623 65.4642 158.063 64.8899 157.398 64.8899C156.883 64.8899 156.469 65.0824 156.128 65.3008C155.818 65.5376 155.627 65.8018 155.553 65.9637V70.0344C155.553 70.372 155.673 70.5629 155.952 70.6805C156.144 70.7828 156.394 70.8287 156.645 70.8409V71.3129H153.163V70.8409C153.384 70.8287 153.634 70.8134 153.813 70.7554C154.092 70.6805 154.211 70.459 154.211 70.1077V65.7438C154.211 65.4062 154.063 65.1251 153.813 64.9495C153.634 64.8471 153.37 64.7891 153.089 64.7738V64.3018L155.45 64.1552L155.553 64.2591V65.2428H155.584C155.818 65.0228 156.202 64.6409 156.512 64.45C156.868 64.2163 157.368 64.0376 157.975 64.0376C159.331 64.0376 159.98 64.9648 159.98 66.3761V70.0481C159.98 70.3872 160.085 70.5782 160.364 70.6958C160.6 70.7981 160.72 70.8287 161.014 70.8409V71.3129Z" fill="white"/>
<path fill-rule="evenodd" clip-rule="evenodd" d="M43.3083 75.4386C43.0275 75.4386 42.3939 75.5409 42.0841 75.7609C41.7435 75.9808 41.6407 76.7018 41.6407 77.7007V82.1243C41.6407 83.2561 41.1237 84.0931 40.3567 84.6216C39.6034 85.1517 38.7182 85.3564 37.9512 85.3564C36.7255 85.3564 35.7528 85.005 35.1024 84.4597C34.4535 83.9175 34.1282 83.1813 34.1282 82.4175V76.4085C34.1282 76.0694 34.0546 75.8632 33.7156 75.6723C33.464 75.5409 33.0206 75.4523 32.7859 75.4386V74.9238H37.0507V75.4386C36.7699 75.4386 36.2836 75.5409 36.0919 75.6142C35.7528 75.7181 35.6777 76.0267 35.6777 76.3337V81.9623C35.6777 82.4908 35.7666 83.1385 36.121 83.6517C36.4907 84.1817 37.0952 84.5483 38.2166 84.5483C39.2797 84.5483 39.9731 84.1817 40.3858 83.638C40.7847 83.1232 40.932 82.5504 40.932 81.9761V77.7893C40.932 76.7308 40.7709 76.0267 40.4748 75.8357C40.3122 75.7028 40.0759 75.6142 39.7814 75.5562C39.5006 75.4813 39.2797 75.4523 39.1171 75.4386V74.9238H43.3083V75.4386Z" fill="white"/>
<path fill-rule="evenodd" clip-rule="evenodd" d="M50.9667 85.1076H47.4828V84.6356C47.7052 84.6218 47.9998 84.6081 48.1777 84.5485C48.4569 84.4752 48.5751 84.2552 48.5751 83.9024V80.2579C48.5751 79.2589 48.0151 78.6861 47.3509 78.6861C46.8339 78.6861 46.4212 78.8771 46.0806 79.0955C45.7707 79.3322 45.579 79.598 45.5053 79.7584V83.8291C45.5053 84.1666 45.6235 84.3591 45.9042 84.4752C46.096 84.5775 46.346 84.6218 46.5976 84.6356V85.1076H43.1152V84.6356C43.3361 84.6218 43.5862 84.6081 43.7641 84.5485C44.0449 84.4752 44.163 84.2552 44.163 83.9024V79.5384C44.163 79.2009 44.0157 78.9198 43.7641 78.7442C43.5862 78.6418 43.3208 78.5838 43.04 78.5685V78.0981L45.4026 77.9499L45.5053 78.0538V79.0374H45.5345C45.7707 78.8175 46.1543 78.4371 46.4641 78.2447C46.8185 78.011 47.3217 77.8323 47.9261 77.8323C49.2838 77.8323 49.9327 78.7594 49.9327 80.1708V83.8443C49.9327 84.1819 50.0371 84.3728 50.3178 84.4905C50.5525 84.5928 50.6706 84.6218 50.9667 84.6356V85.1076Z" fill="white"/>
<path fill-rule="evenodd" clip-rule="evenodd" d="M62.5195 78.4652C62.0915 78.5385 61.6788 78.7295 61.3981 79.3175C60.8228 80.6098 60.2322 81.9921 59.5817 83.5211C59.3915 83.9748 59.1552 84.6209 58.9773 85.1662H58.402C57.5015 82.933 56.7789 81.1978 55.952 79.2595C55.7603 78.8043 55.274 78.5676 54.8459 78.5095V78.0391H58.1212V78.5385C57.9893 78.5385 57.8114 78.5676 57.5904 78.6256C57.3695 78.6714 57.2652 78.7447 57.2652 78.8471C57.2652 78.8914 57.325 79.009 57.3695 79.1709C57.5613 79.6551 57.842 80.3455 58.1949 81.2131C58.5646 82.0792 58.8591 82.7864 59.0816 83.3302C59.4344 82.5069 59.9821 81.2574 60.5865 79.7437C60.6893 79.4947 60.7936 79.2732 60.7936 79.038C60.7936 78.8776 60.6019 78.7295 60.3794 78.6562C60.1585 78.5538 59.9223 78.5095 59.8042 78.4958V78.0391H62.5195V78.4652Z" fill="white"/>
<path fill-rule="evenodd" clip-rule="evenodd" d="M67.2559 80.7431C67.2559 80.2131 67.1822 79.5227 66.9613 79.1118C66.7389 78.6856 66.3691 78.3771 65.7647 78.3771C64.7629 78.3771 64.0235 79.2584 63.9637 80.7431H67.2559ZM68.8499 83.4482C68.2593 84.5632 67.2268 85.2979 65.9274 85.2979C64.7907 85.2979 63.9346 84.8718 63.3593 84.1814C62.8132 83.4757 62.5325 82.5516 62.5325 81.5068C62.5325 80.5827 62.8286 79.6708 63.4038 78.9651C63.95 78.2747 64.7769 77.8333 65.7802 77.8333C66.8279 77.8333 67.5505 78.1708 68.023 78.7436C68.451 79.2736 68.6719 80.0099 68.6719 80.8759V81.3464H63.9638C63.9638 82.2858 64.1264 83.0358 64.5253 83.6086C64.8934 84.1508 65.4994 84.5052 66.3416 84.5052C67.1823 84.5052 67.7576 84.1508 68.3482 83.1381L68.8499 83.4482Z" fill="white"/>
<path fill-rule="evenodd" clip-rule="evenodd" d="M74.221 79.8765C73.6887 79.8765 73.3941 79.5526 73.3941 79.2136C73.3941 78.9951 73.4233 78.8317 73.4677 78.6713C73.0106 78.6713 72.3172 79.0532 71.903 79.7146V83.8295C71.903 84.1671 72.0211 84.3718 72.3018 84.4756C72.5381 84.578 72.9799 84.6208 73.2622 84.636V85.108H69.5128V84.636C69.7338 84.6208 69.9853 84.6085 70.1618 84.549C70.4425 84.4756 70.5606 84.2557 70.5606 83.9028V79.5374C70.5606 79.2288 70.4134 78.9203 70.1618 78.7446C69.9853 78.6408 69.7184 78.5827 69.4392 78.569V78.0985L71.8002 77.9503L71.903 78.0542V79.0379H71.9337C72.5243 78.2742 73.3358 77.8633 73.9249 77.8633C74.5309 77.8633 74.9589 78.2894 74.9589 78.9508C74.9589 79.4198 74.7073 79.8765 74.221 79.8765" fill="white"/>
<path fill-rule="evenodd" clip-rule="evenodd" d="M80.728 83.0654C80.728 83.7268 80.4764 84.2553 79.9747 84.6815C79.4884 85.0923 78.8533 85.2986 78.0709 85.2986C77.244 85.2986 76.477 84.9014 76.1824 84.6662L76.0336 85.1229H75.5028L75.4292 82.6683H75.9155C75.9907 83.0349 76.2699 83.5939 76.6243 83.9895C76.994 84.4172 77.5248 84.7395 78.1737 84.7395C79.1034 84.7395 79.6204 84.3133 79.6204 83.5359C79.6204 83.1387 79.4577 82.8592 79.1494 82.6393C78.8395 82.4025 78.3655 82.2421 77.7902 82.0665C77.333 81.9488 76.7286 81.6968 76.3297 81.3883C75.9155 81.037 75.6072 80.5665 75.6072 79.9066C75.6072 79.3323 75.8281 78.8328 76.2561 78.4372C76.6841 78.0386 77.2747 77.8324 77.9973 77.8324C78.5434 77.8324 79.1939 78.0095 79.5621 78.2005L79.7247 77.8186H80.2401L80.3583 80.096H79.8581C79.6649 79.0833 78.9423 78.3777 77.9819 78.3777C77.1996 78.3777 76.7132 78.8466 76.7132 79.3919C76.7132 79.8165 76.8605 80.096 77.1551 80.2885C77.4511 80.4794 77.8638 80.6245 78.5143 80.846C79.1494 81.037 79.7385 81.3302 80.1082 81.6388C80.5055 81.9916 80.728 82.4178 80.728 83.0654" fill="white"/>
<path fill-rule="evenodd" clip-rule="evenodd" d="M89.8465 84.7989C89.2114 85.0494 88.7405 85.2541 87.9289 85.2541C86.7477 85.2541 86.3043 84.6217 86.3043 83.551V78.7441H85.0203V78.0689H86.3335V75.8633H87.6482V78.0689H89.6855V78.7441H87.662V82.6971C87.662 83.3005 87.6773 83.6671 87.8537 83.9603C88.0164 84.2567 88.2971 84.3865 88.8141 84.3865C89.0503 84.3865 89.6548 84.3437 89.8465 84.2689V84.7989Z" fill="white"/>
<path fill-rule="evenodd" clip-rule="evenodd" d="M91.0555 86.6053C91.3654 86.6053 91.5725 86.7382 91.749 86.9138C91.9116 87.0467 92.0742 87.3553 92.177 87.5187C92.4286 87.3858 92.7093 87.0467 93.033 86.5029C93.3736 85.9592 93.6098 85.4902 93.7724 85.0778C93.3137 83.9475 92.8857 82.9333 92.5175 82.0367C92.1478 81.14 91.7643 80.2129 91.3654 79.2582C91.1875 78.8046 90.6874 78.5678 90.2578 78.5098V78.0393H93.4902V78.5388C93.3582 78.5388 93.1803 78.5678 92.9732 78.6258C92.7829 78.6717 92.6802 78.745 92.6802 78.8168C92.6802 78.8764 92.7231 79.0092 92.7829 79.1712C92.9732 79.6401 93.2554 80.3183 93.6236 81.2134C93.9933 82.11 94.2879 82.8157 94.4935 83.3594C94.923 82.3452 95.3648 81.3157 95.9416 79.831C96.0137 79.6401 96.1917 79.2735 96.1917 79.0383C96.1917 78.9069 96.0736 78.7893 95.8527 78.6854C95.6302 78.5831 95.4247 78.5098 95.2329 78.4945V78.0393H97.8746V78.4807C97.5785 78.5235 97.0032 78.8046 96.7823 79.3178C96.207 80.6406 95.7054 81.8457 95.2467 82.9333C94.8033 84.0208 94.4658 84.8136 94.2434 85.3268C93.639 86.6648 93.1956 87.3553 92.7384 87.7814C92.2813 88.1938 91.9714 88.2946 91.5725 88.2946C90.8193 88.2946 90.3775 87.8853 90.3775 87.4148C90.3775 86.9444 90.6567 86.6053 91.0555 86.6053" fill="white"/>
<path fill-rule="evenodd" clip-rule="evenodd" d="M42.1958 109.741C42.0884 109.745 41.932 109.768 41.7249 109.81C41.5178 109.851 41.349 109.913 41.2186 109.999C41.0882 110.088 40.9977 110.268 40.9486 110.541C40.898 110.818 40.8734 111.154 40.8734 111.551V115.082C40.8734 115.533 40.7799 115.924 40.5912 116.257C40.404 116.587 40.157 116.86 39.8502 117.074C39.5464 117.282 39.2273 117.428 38.8929 117.519C38.5569 117.607 38.2363 117.653 37.9295 117.653C37.4386 117.653 37.0014 117.589 36.6178 117.461C36.2359 117.334 35.9137 117.16 35.6529 116.943C35.3952 116.724 35.2019 116.475 35.0715 116.196C34.9411 115.915 34.8766 115.623 34.8766 115.316V110.514C34.8766 110.381 34.8536 110.269 34.8107 110.179C34.7662 110.091 34.6772 110.007 34.5422 109.93C34.4471 109.877 34.3244 109.834 34.174 109.8C34.0252 109.77 33.9025 109.748 33.8074 109.741V109.334H37.2054V109.741C37.098 109.745 36.963 109.762 36.7989 109.793C36.6363 109.823 36.5166 109.851 36.4399 109.878C36.3095 109.924 36.222 110 36.1791 110.106C36.1346 110.214 36.1131 110.33 36.1131 110.456V114.94C36.1131 115.159 36.1361 115.385 36.1852 115.625C36.2328 115.863 36.3264 116.084 36.469 116.291C36.6178 116.501 36.8219 116.672 37.0781 116.805C37.3358 116.94 37.6886 117.005 38.1366 117.005C38.5585 117.005 38.9113 116.94 39.1967 116.805C39.482 116.672 39.7075 116.497 39.8732 116.278C40.0297 116.074 40.1417 115.858 40.2061 115.632C40.2721 115.408 40.3043 115.182 40.3043 114.952V111.623C40.3043 111.199 40.2736 110.854 40.2122 110.585C40.1509 110.315 40.0604 110.139 39.9422 110.055C39.8072 109.961 39.6247 109.886 39.393 109.832C39.1598 109.779 38.9834 109.748 38.8607 109.741V109.334H42.1958V109.741Z" fill="white"/>
<path fill-rule="evenodd" clip-rule="evenodd" d="M48.9635 117.459H46.1914V117.08C46.2804 117.072 46.377 117.065 46.4813 117.057C46.5872 117.049 46.6746 117.036 46.7437 117.011C46.8511 116.978 46.9308 116.918 46.9815 116.831C47.0336 116.745 47.0597 116.634 47.0597 116.496V113.594C47.0597 113.193 46.9646 112.884 46.7744 112.666C46.5841 112.449 46.3525 112.339 46.0809 112.339C45.8769 112.339 45.6897 112.372 45.521 112.435C45.3522 112.498 45.2019 112.575 45.0715 112.666C44.9442 112.754 44.8445 112.847 44.7693 112.95C44.6941 113.05 44.6389 113.131 44.6051 113.193V116.438C44.6051 116.568 44.6312 116.675 44.6849 116.759C44.7386 116.845 44.8199 116.909 44.9273 116.955C45.0071 116.993 45.0945 117.022 45.1881 117.04C45.2832 117.058 45.3799 117.072 45.4796 117.08V117.459H42.7013V117.08C42.7903 117.072 42.8808 117.065 42.9744 117.057C43.068 117.049 43.1493 117.036 43.2183 117.011C43.3272 116.978 43.4055 116.918 43.4576 116.832C43.5098 116.745 43.5359 116.634 43.5359 116.496V113.015C43.5359 112.885 43.5067 112.766 43.4515 112.656C43.3963 112.548 43.318 112.461 43.2183 112.392C43.1462 112.345 43.0603 112.313 42.9606 112.291C42.8609 112.271 42.7535 112.256 42.6384 112.249V111.871L44.5238 111.744L44.6051 111.825V112.621H44.6343C44.7263 112.528 44.8399 112.42 44.9779 112.291C45.116 112.163 45.2464 112.059 45.3691 111.98C45.5118 111.888 45.6805 111.812 45.8754 111.751C46.0717 111.689 46.2911 111.659 46.5366 111.659C47.0812 111.659 47.4846 111.827 47.747 112.165C48.0093 112.504 48.1412 112.953 48.1412 113.513V116.451C48.1412 116.585 48.1643 116.692 48.2103 116.774C48.2563 116.855 48.3345 116.919 48.4465 116.967C48.5386 117.004 48.6168 117.031 48.6843 117.045C48.7518 117.06 48.8439 117.072 48.9635 117.08V117.459Z" fill="white"/>
<path fill-rule="evenodd" clip-rule="evenodd" d="M51.6889 109.517C51.6889 109.735 51.6168 109.926 51.4726 110.087C51.33 110.249 51.152 110.33 50.9418 110.33C50.7455 110.33 50.5767 110.253 50.4325 110.099C50.2883 109.943 50.2177 109.768 50.2177 109.569C50.2177 109.358 50.2883 109.175 50.4325 109.019C50.5767 108.863 50.7455 108.785 50.9418 108.785C51.1597 108.785 51.3392 108.857 51.4788 109.005C51.6199 109.152 51.6889 109.323 51.6889 109.517V109.517ZM52.4085 117.458H49.6717V117.08C49.7591 117.072 49.8496 117.064 49.9432 117.058C50.0383 117.05 50.1196 117.035 50.1887 117.011C50.2961 116.977 50.3758 116.918 50.4265 116.832C50.4786 116.745 50.5047 116.634 50.5047 116.496V113.015C50.5047 112.893 50.4771 112.781 50.4219 112.679C50.3651 112.58 50.2884 112.494 50.1887 112.425C50.115 112.38 50.0107 112.341 49.8711 112.308C49.7346 112.277 49.6072 112.256 49.4922 112.248V111.871L51.4942 111.744L51.574 111.825V116.427C51.574 116.56 51.6 116.673 51.6522 116.759C51.7028 116.847 51.7841 116.913 51.8931 116.954C51.9774 116.989 52.0603 117.015 52.1385 117.038C52.2198 117.058 52.3088 117.072 52.4085 117.08V117.458Z" fill="white"/>
<path fill-rule="evenodd" clip-rule="evenodd" d="M58.709 112.162C58.5372 112.194 58.3731 112.255 58.2181 112.348C58.0632 112.443 57.9297 112.608 57.8177 112.843C57.5922 113.355 57.359 113.889 57.1166 114.444C56.8758 114.998 56.6242 115.582 56.3634 116.193C56.2867 116.368 56.2054 116.578 56.1195 116.817C56.032 117.057 55.9538 117.288 55.8801 117.509H55.4322C55.0671 116.613 54.7326 115.796 54.4258 115.058C54.119 114.317 53.8014 113.561 53.4716 112.787C53.3949 112.611 53.2706 112.475 53.1003 112.377C52.9301 112.279 52.7582 112.218 52.5864 112.192V111.812H55.2097V112.214C55.0947 112.218 54.9505 112.241 54.7787 112.286C54.6053 112.328 54.5194 112.388 54.5194 112.466C54.5194 112.476 54.5286 112.507 54.5485 112.554C54.5669 112.602 54.5869 112.655 54.6053 112.716C54.7633 113.106 54.9842 113.65 55.2711 114.348C55.558 115.046 55.7912 115.608 55.9707 116.034C56.1087 115.705 56.2821 115.299 56.4907 114.81C56.6993 114.322 56.9249 113.778 57.1672 113.175C57.2056 113.072 57.2409 112.976 57.2762 112.886C57.3099 112.796 57.3283 112.706 57.3283 112.614C57.3283 112.55 57.2961 112.492 57.2332 112.44C57.1703 112.388 57.0936 112.344 57.0062 112.305C56.9172 112.267 56.8313 112.24 56.7469 112.22C56.6625 112.2 56.5935 112.188 56.5398 112.18V111.812H58.709V112.162Z" fill="white"/>
<path fill-rule="evenodd" clip-rule="evenodd" d="M62.7226 113.977C62.7226 113.763 62.7042 113.536 62.6674 113.293C62.6321 113.05 62.5738 112.845 62.4925 112.682C62.4035 112.506 62.2839 112.364 62.1305 112.254C61.977 112.144 61.7791 112.089 61.5383 112.089C61.1364 112.089 60.8019 112.254 60.535 112.587C60.2681 112.922 60.1238 113.383 60.1008 113.977H62.7226ZM63.9945 116.129C63.7552 116.58 63.4376 116.939 63.0403 117.206C62.6399 117.473 62.1827 117.606 61.6658 117.606C61.2086 117.606 60.8082 117.527 60.4661 117.366C60.1225 117.206 59.8402 116.989 59.6177 116.714C59.3953 116.438 59.2296 116.119 59.1207 115.752C59.0118 115.385 58.9565 114.999 58.9565 114.59C58.9565 114.223 59.0148 113.864 59.133 113.51C59.2496 113.158 59.4214 112.841 59.6469 112.557C59.8647 112.288 60.1363 112.068 60.46 111.903C60.7837 111.736 61.1472 111.654 61.5492 111.654C61.9634 111.654 62.3178 111.718 62.6138 111.846C62.9084 111.976 63.1477 112.155 63.3318 112.379C63.5082 112.595 63.6401 112.845 63.7261 113.135C63.812 113.426 63.8564 113.742 63.8564 114.079V114.457H60.101C60.101 114.829 60.1363 115.165 60.2068 115.469C60.2789 115.77 60.3894 116.036 60.5443 116.265C60.6931 116.488 60.8895 116.662 61.1304 116.791C61.3712 116.919 61.6596 116.983 61.9925 116.983C62.3346 116.983 62.6276 116.904 62.8762 116.745C63.1232 116.584 63.3609 116.299 63.5911 115.883L63.9945 116.129Z" fill="white"/>
<path fill-rule="evenodd" clip-rule="evenodd" d="M68.9901 112.541C68.9901 112.735 68.9425 112.907 68.8459 113.058C68.7508 113.208 68.6035 113.284 68.4041 113.284C68.1893 113.284 68.0251 113.229 67.9116 113.118C67.7996 113.008 67.7429 112.886 67.7429 112.753C67.7429 112.667 67.749 112.591 67.7628 112.522C67.7751 112.454 67.7889 112.385 67.7996 112.318C67.6201 112.318 67.4084 112.389 67.1676 112.534C66.9252 112.68 66.7212 112.886 66.5524 113.152V116.439C66.5524 116.573 66.5785 116.682 66.6291 116.766C66.6813 116.85 66.7626 116.912 66.8746 116.955C66.9697 116.993 67.0939 117.022 67.2443 117.039C67.3962 117.059 67.5281 117.073 67.6385 117.08V117.459H64.6486V117.08C64.7376 117.073 64.8281 117.065 64.9217 117.057C65.0168 117.05 65.0981 117.034 65.1671 117.011C65.2745 116.976 65.3527 116.917 65.4049 116.833C65.4571 116.746 65.4831 116.634 65.4831 116.497V113.016C65.4831 112.896 65.4555 112.78 65.4003 112.666C65.3435 112.551 65.2668 112.46 65.1671 112.391C65.0935 112.345 65.0076 112.313 64.9079 112.292C64.8081 112.27 64.7008 112.255 64.5857 112.249V111.872L66.4711 111.745L66.5524 111.824V112.622H66.5816C66.8178 112.311 67.0832 112.076 67.3747 111.916C67.6662 111.755 67.9331 111.676 68.1739 111.676C68.4148 111.676 68.6112 111.754 68.763 111.911C68.9149 112.067 68.9901 112.276 68.9901 112.541" fill="white"/>
<path fill-rule="evenodd" clip-rule="evenodd" d="M73.2163 114.693C73.3743 114.831 73.494 114.988 73.5784 115.168C73.6627 115.348 73.7042 115.567 73.7042 115.827C73.7042 116.349 73.5078 116.777 73.1166 117.11C72.7223 117.441 72.2145 117.606 71.5886 117.606C71.2588 117.606 70.9551 117.548 70.6774 117.429C70.3997 117.311 70.2018 117.203 70.0837 117.104L69.9671 117.475H69.536L69.4792 115.512H69.875C69.9057 115.662 69.9717 115.836 70.0714 116.034C70.1711 116.234 70.2908 116.413 70.4335 116.574C70.5823 116.743 70.7618 116.885 70.9704 117C71.179 117.114 71.4153 117.172 71.6761 117.172C72.0427 117.172 72.3265 117.088 72.526 116.922C72.7254 116.755 72.8251 116.515 72.8251 116.204C72.8251 116.045 72.7944 115.906 72.73 115.79C72.6671 115.674 72.5751 115.57 72.4508 115.484C72.325 115.396 72.1701 115.316 71.986 115.245C71.8019 115.174 71.5963 115.106 71.3708 115.037C71.1898 114.982 70.9903 114.91 70.7694 114.815C70.5485 114.724 70.3614 114.612 70.2033 114.487C70.0346 114.353 69.8965 114.189 69.7891 113.995C69.6817 113.8 69.6281 113.572 69.6281 113.308C69.6281 112.845 69.7999 112.454 70.1466 112.133C70.4918 111.812 70.952 111.654 71.5319 111.654C71.7543 111.654 71.9814 111.681 72.213 111.738C72.4447 111.797 72.6334 111.864 72.7791 111.945L72.911 111.647H73.3252L73.4111 113.462H73.0153C72.934 113.056 72.7607 112.726 72.4953 112.471C72.2284 112.216 71.9031 112.089 71.5211 112.089C71.2051 112.089 70.9581 112.167 70.7786 112.324C70.5976 112.483 70.5086 112.672 70.5086 112.895C70.5086 113.068 70.5378 113.21 70.5976 113.325C70.6574 113.439 70.7464 113.537 70.8645 113.616C70.9796 113.693 71.1238 113.765 71.2987 113.832C71.4736 113.897 71.6883 113.974 71.9461 114.058C72.1977 114.139 72.437 114.23 72.661 114.339C72.8865 114.446 73.0706 114.563 73.2163 114.693" fill="white"/>
<path fill-rule="evenodd" clip-rule="evenodd" d="M76.5916 109.517C76.5916 109.735 76.5195 109.926 76.3753 110.087C76.2326 110.249 76.0547 110.33 75.8445 110.33C75.6481 110.33 75.4779 110.253 75.3352 110.099C75.191 109.943 75.1204 109.768 75.1204 109.569C75.1204 109.358 75.191 109.175 75.3352 109.019C75.4779 108.863 75.6481 108.785 75.8445 108.785C76.0624 108.785 76.2418 108.857 76.3814 109.005C76.521 109.152 76.5916 109.323 76.5916 109.517V109.517ZM77.3096 117.458H74.5727V117.08C74.6617 117.072 74.7522 117.064 74.8458 117.058C74.9394 117.05 75.0222 117.035 75.0897 117.011C75.1986 116.977 75.2784 116.918 75.329 116.832C75.3812 116.745 75.4073 116.634 75.4073 116.496V113.015C75.4073 112.893 75.3781 112.781 75.3229 112.679C75.2677 112.58 75.1894 112.494 75.0897 112.425C75.0176 112.38 74.9118 112.341 74.7737 112.308C74.6372 112.277 74.5098 112.256 74.3948 112.248V111.871L76.3968 111.744L76.4765 111.825V116.427C76.4765 116.56 76.5011 116.673 76.5533 116.759C76.6054 116.847 76.6867 116.913 76.7956 116.954C76.88 116.989 76.9613 117.015 77.0411 117.038C77.1224 117.058 77.2114 117.072 77.3096 117.08V117.458Z" fill="white"/>
<path fill-rule="evenodd" clip-rule="evenodd" d="M81.5132 117.213C81.2647 117.315 81.0284 117.402 80.806 117.472C80.5835 117.544 80.312 117.578 79.9898 117.578C79.5143 117.578 79.1798 117.459 78.9865 117.22C78.7932 116.982 78.6966 116.646 78.6966 116.211V112.386H77.6733V111.836H78.7196V110.078H79.7658V111.836H81.392V112.386H79.7766V115.54C79.7766 115.777 79.7858 115.974 79.8027 116.133C79.8195 116.29 79.861 116.429 79.9269 116.547C79.9883 116.66 80.0788 116.742 80.2031 116.799C80.3258 116.858 80.4899 116.886 80.697 116.886C80.7922 116.886 80.9333 116.877 81.1205 116.861C81.3061 116.843 81.4365 116.82 81.5132 116.794V117.213Z" fill="white"/>
<mask id="mask1" mask-type="alpha" maskUnits="userSpaceOnUse" x="81" y="111" width="7" height="9">
<path fill-rule="evenodd" clip-rule="evenodd" d="M81.5537 111.813H87.6318V120H81.5537V111.813Z" fill="white"/>
</mask>
<g mask="url(#mask1)">
<path fill-rule="evenodd" clip-rule="evenodd" d="M81.6458 119.301C81.6458 119.11 81.6979 118.954 81.8038 118.835C81.9096 118.714 82.04 118.655 82.198 118.655C82.3192 118.655 82.4251 118.678 82.5141 118.722C82.6015 118.768 82.6797 118.826 82.7488 118.899C82.8071 118.956 82.8684 119.034 82.9329 119.133C82.9988 119.231 83.051 119.312 83.0878 119.376C83.2796 119.272 83.5097 119.004 83.7751 118.569C84.042 118.135 84.2338 117.755 84.3534 117.427C83.9899 116.524 83.66 115.714 83.3655 115.003C83.0694 114.288 82.761 113.548 82.4389 112.786C82.3668 112.611 82.2441 112.475 82.0707 112.377C81.8989 112.279 81.7255 112.218 81.5537 112.192V111.813H84.1417V112.213C84.0267 112.218 83.8886 112.242 83.7275 112.285C83.5664 112.33 83.4867 112.38 83.4867 112.438C83.4867 112.459 83.4959 112.499 83.5128 112.551C83.5296 112.604 83.5496 112.659 83.5726 112.717C83.7183 113.096 83.9408 113.64 84.2384 114.35C84.536 115.062 84.7676 115.632 84.9318 116.058C85.1036 115.65 85.2846 115.227 85.4703 114.792C85.6559 114.355 85.8645 113.839 86.0946 113.243C86.1207 113.171 86.1591 113.072 86.2097 112.944C86.2603 112.815 86.2849 112.707 86.2849 112.614C86.2849 112.516 86.1974 112.423 86.0241 112.336C85.8492 112.252 85.6835 112.2 85.5255 112.18V111.813H87.6318V112.168C87.5168 112.187 87.3649 112.253 87.1762 112.366C86.989 112.478 86.8494 112.638 86.7574 112.843C86.3017 113.897 85.8967 114.857 85.5408 115.724C85.1865 116.59 84.918 117.228 84.7339 117.636C84.4915 118.17 84.2767 118.586 84.0865 118.887C83.8963 119.186 83.7122 119.421 83.5312 119.593C83.3547 119.754 83.1952 119.861 83.0525 119.916C82.9083 119.971 82.7595 120 82.6061 120C82.307 120 82.0722 119.929 81.902 119.788C81.7317 119.648 81.6458 119.484 81.6458 119.301" fill="white"/>
</g>
<path fill-rule="evenodd" clip-rule="evenodd" d="M94.9335 109.283C94.9335 109.454 94.8874 109.599 94.7954 109.718C94.7033 109.836 94.5637 109.896 94.3766 109.896C94.2569 109.896 94.1526 109.871 94.0621 109.822C93.9731 109.77 93.8887 109.705 93.812 109.621C93.7353 109.537 93.6648 109.442 93.5988 109.335C93.5344 109.228 93.4791 109.141 93.4331 109.077C93.1754 109.088 92.9775 109.266 92.8379 109.611C92.6967 109.955 92.6277 110.505 92.6277 111.26V111.837H94.0882V112.385H92.6277V116.439C92.6277 116.572 92.6538 116.682 92.7059 116.765C92.7581 116.85 92.8379 116.913 92.9499 116.954C93.0419 116.989 93.1646 117.015 93.3181 117.038C93.4715 117.059 93.6034 117.073 93.7154 117.079V117.46H90.7239V117.079C90.8129 117.073 90.9034 117.065 90.9985 117.058C91.0921 117.05 91.1734 117.035 91.2424 117.012C91.3498 116.977 91.4296 116.917 91.4817 116.83C91.5324 116.746 91.5584 116.633 91.5584 116.497V112.385H90.437V111.837H91.5584V111.476C91.5584 110.62 91.7809 109.925 92.2288 109.393C92.6753 108.863 93.2337 108.596 93.9041 108.596C94.2462 108.596 94.5024 108.663 94.6757 108.797C94.8475 108.93 94.9335 109.092 94.9335 109.283" fill="white"/>
<path fill-rule="evenodd" clip-rule="evenodd" d="M98.8839 114.59C98.8839 114.305 98.8548 114.001 98.7965 113.681C98.7397 113.364 98.6538 113.095 98.5372 112.872C98.4145 112.637 98.2534 112.446 98.054 112.302C97.8546 112.16 97.6106 112.088 97.3222 112.088C97.0277 112.088 96.7745 112.16 96.5644 112.305C96.3557 112.452 96.1855 112.649 96.0551 112.902C95.9323 113.134 95.8464 113.4 95.7958 113.697C95.7467 113.994 95.7206 114.283 95.7206 114.561C95.7206 114.928 95.7513 115.265 95.8111 115.577C95.8694 115.888 95.9645 116.166 96.0965 116.409C96.2269 116.655 96.391 116.848 96.5874 116.985C96.7853 117.124 97.0307 117.194 97.3222 117.194C97.8024 117.194 98.1829 116.964 98.4636 116.503C98.7428 116.04 98.8839 115.403 98.8839 114.59M100.074 114.578C100.074 114.975 100.01 115.366 99.8842 115.749C99.7569 116.133 99.5774 116.458 99.3427 116.724C99.0773 117.031 98.7705 117.257 98.4222 117.407C98.0724 117.555 97.6812 117.63 97.2486 117.63C96.8866 117.63 96.5445 117.561 96.2177 117.425C95.891 117.292 95.601 117.094 95.3479 116.834C95.0994 116.579 94.8999 116.267 94.7526 115.898C94.6038 115.53 94.5317 115.117 94.5317 114.659C94.5317 113.778 94.7895 113.055 95.3049 112.494C95.8204 111.934 96.4969 111.653 97.3345 111.653C98.1277 111.653 98.7843 111.919 99.2997 112.452C99.8152 112.983 100.074 113.692 100.074 114.578" fill="white"/>
<path fill-rule="evenodd" clip-rule="evenodd" d="M105.231 112.541C105.231 112.735 105.183 112.907 105.088 113.058C104.992 113.208 104.844 113.284 104.645 113.284C104.432 113.284 104.266 113.229 104.154 113.118C104.041 113.008 103.985 112.886 103.985 112.753C103.985 112.667 103.99 112.591 104.004 112.522C104.018 112.454 104.03 112.385 104.042 112.318C103.861 112.318 103.651 112.389 103.41 112.534C103.168 112.68 102.962 112.886 102.793 113.152V116.439C102.793 116.573 102.819 116.682 102.872 116.766C102.922 116.85 103.005 116.912 103.116 116.955C103.212 116.993 103.336 117.022 103.487 117.039C103.639 117.059 103.769 117.073 103.881 117.08V117.459H100.891V117.08C100.979 117.073 101.071 117.065 101.164 117.057C101.258 117.05 101.339 117.034 101.408 117.011C101.515 116.976 101.595 116.917 101.647 116.833C101.698 116.746 101.724 116.634 101.724 116.497V113.016C101.724 112.896 101.696 112.78 101.641 112.666C101.586 112.551 101.508 112.46 101.408 112.391C101.334 112.345 101.249 112.313 101.149 112.292C101.049 112.27 100.943 112.255 100.827 112.249V111.872L102.714 111.745L102.793 111.824V112.622H102.823C103.06 112.311 103.324 112.076 103.616 111.916C103.907 111.755 104.174 111.676 104.415 111.676C104.657 111.676 104.854 111.754 105.006 111.911C105.156 112.067 105.231 112.276 105.231 112.541" fill="white"/>
<path fill-rule="evenodd" clip-rule="evenodd" d="M112.056 117.213C111.808 117.315 111.572 117.402 111.349 117.472C111.128 117.544 110.855 117.578 110.533 117.578C110.058 117.578 109.723 117.459 109.53 117.22C109.337 116.982 109.238 116.646 109.238 116.211V112.386H108.215V111.836H109.263V110.078H110.308V111.836H111.937V112.386H110.32V115.54C110.32 115.777 110.329 115.974 110.346 116.133C110.363 116.29 110.404 116.429 110.47 116.547C110.532 116.66 110.622 116.742 110.746 116.799C110.869 116.858 111.033 116.886 111.24 116.886C111.335 116.886 111.477 116.877 111.662 116.861C111.848 116.843 111.98 116.82 112.056 116.794V117.213Z" fill="white"/>
<path fill-rule="evenodd" clip-rule="evenodd" d="M118.789 117.459H116.002V117.08C116.089 117.072 116.187 117.064 116.295 117.057C116.4 117.049 116.489 117.035 116.558 117.011C116.666 116.977 116.746 116.918 116.796 116.831C116.848 116.745 116.875 116.634 116.875 116.496V113.594C116.875 113.192 116.779 112.884 116.589 112.665C116.399 112.448 116.167 112.339 115.894 112.339C115.695 112.339 115.509 112.372 115.339 112.435C115.169 112.497 115.015 112.575 114.88 112.665C114.75 112.762 114.65 112.856 114.581 112.953C114.512 113.047 114.458 113.128 114.418 113.192V116.438C114.418 116.568 114.446 116.675 114.497 116.759C114.549 116.845 114.629 116.909 114.736 116.954C114.82 116.993 114.908 117.022 114.997 117.04C115.087 117.058 115.185 117.072 115.294 117.08V117.459H112.516V117.08C112.605 117.072 112.696 117.064 112.791 117.054C112.886 117.045 112.966 117.031 113.03 117.011C113.136 116.977 113.217 116.918 113.269 116.831C113.323 116.745 113.351 116.634 113.351 116.496V109.918C113.351 109.789 113.322 109.659 113.26 109.53C113.2 109.4 113.125 109.302 113.029 109.236C112.959 109.187 112.837 109.152 112.663 109.131C112.49 109.109 112.349 109.096 112.24 109.088V108.722L114.34 108.595L114.418 108.682V112.621H114.443C114.569 112.494 114.684 112.383 114.788 112.285C114.892 112.189 115.029 112.085 115.198 111.98C115.343 111.888 115.515 111.812 115.712 111.75C115.911 111.689 116.134 111.659 116.377 111.659C116.885 111.659 117.275 111.819 117.546 112.137C117.82 112.456 117.956 112.914 117.956 113.513V116.45C117.956 116.585 117.981 116.692 118.028 116.774C118.076 116.855 118.157 116.919 118.267 116.967C118.358 117 118.438 117.026 118.508 117.043C118.58 117.06 118.674 117.072 118.789 117.08V117.459Z" fill="white"/>
<path fill-rule="evenodd" clip-rule="evenodd" d="M123.24 113.977C123.24 113.763 123.222 113.536 123.186 113.293C123.148 113.05 123.09 112.845 123.011 112.682C122.922 112.506 122.801 112.364 122.648 112.254C122.494 112.144 122.298 112.089 122.056 112.089C121.654 112.089 121.319 112.254 121.052 112.587C120.785 112.922 120.641 113.383 120.618 113.977H123.24ZM124.51 116.129C124.274 116.58 123.955 116.939 123.556 117.206C123.157 117.473 122.699 117.606 122.183 117.606C121.726 117.606 121.327 117.527 120.983 117.366C120.641 117.206 120.358 116.989 120.137 116.714C119.913 116.438 119.747 116.119 119.638 115.752C119.529 115.385 119.474 114.999 119.474 114.59C119.474 114.223 119.532 113.864 119.649 113.51C119.765 113.158 119.939 112.841 120.164 112.557C120.384 112.288 120.654 112.068 120.977 111.903C121.301 111.736 121.665 111.654 122.066 111.654C122.481 111.654 122.835 111.718 123.131 111.846C123.426 111.976 123.665 112.155 123.849 112.379C124.026 112.595 124.157 112.845 124.243 113.135C124.329 113.426 124.372 113.742 124.372 114.079V114.457H120.618C120.618 114.829 120.654 115.165 120.724 115.469C120.795 115.77 120.907 116.036 121.062 116.265C121.21 116.488 121.407 116.662 121.648 116.791C121.889 116.919 122.177 116.983 122.51 116.983C122.85 116.983 123.145 116.904 123.393 116.745C123.64 116.584 123.878 116.299 124.108 115.883L124.51 116.129Z" fill="white"/>
<path fill-rule="evenodd" clip-rule="evenodd" d="M131.746 117.653C131.262 117.653 130.794 117.558 130.347 117.367C129.902 117.176 129.507 116.901 129.161 116.541C128.821 116.182 128.548 115.745 128.345 115.227C128.141 114.709 128.042 114.126 128.042 113.477C128.042 112.827 128.14 112.238 128.339 111.708C128.539 111.181 128.815 110.726 129.166 110.344C129.516 109.965 129.927 109.672 130.402 109.467C130.878 109.261 131.384 109.157 131.924 109.157C132.326 109.157 132.69 109.207 133.015 109.305C133.342 109.406 133.652 109.543 133.946 109.724L134.183 109.336H134.643L134.693 112.232H134.222C134.161 111.949 134.069 111.642 133.946 111.312C133.824 110.982 133.681 110.703 133.515 110.474C133.331 110.214 133.115 110.011 132.862 109.863C132.609 109.718 132.319 109.644 131.993 109.644C131.622 109.644 131.277 109.727 130.956 109.89C130.637 110.054 130.361 110.298 130.126 110.619C129.905 110.927 129.732 111.32 129.605 111.798C129.477 112.275 129.415 112.808 129.415 113.397C129.415 113.917 129.48 114.392 129.612 114.825C129.744 115.261 129.933 115.641 130.18 115.968C130.424 116.293 130.714 116.547 131.05 116.73C131.384 116.915 131.759 117.005 132.171 117.005C132.481 117.005 132.768 116.958 133.027 116.86C133.288 116.762 133.514 116.634 133.705 116.475C133.897 116.305 134.066 116.115 134.21 115.902C134.356 115.687 134.474 115.455 134.568 115.203L134.999 115.409C134.669 116.214 134.232 116.79 133.689 117.135C133.144 117.48 132.497 117.653 131.746 117.653" fill="white"/>
<path fill-rule="evenodd" clip-rule="evenodd" d="M139.908 114.59C139.908 114.305 139.879 114.001 139.822 113.681C139.764 113.364 139.68 113.095 139.563 112.872C139.44 112.637 139.279 112.446 139.08 112.302C138.879 112.16 138.635 112.088 138.347 112.088C138.052 112.088 137.799 112.16 137.59 112.305C137.382 112.452 137.21 112.649 137.079 112.902C136.957 113.134 136.872 113.4 136.82 113.697C136.771 113.994 136.745 114.283 136.745 114.561C136.745 114.928 136.776 115.265 136.836 115.577C136.895 115.888 136.991 116.166 137.121 116.409C137.251 116.655 137.415 116.848 137.613 116.985C137.811 117.124 138.055 117.194 138.347 117.194C138.828 117.194 139.207 116.964 139.49 116.503C139.769 116.04 139.908 115.403 139.908 114.59M141.099 114.578C141.099 114.975 141.034 115.366 140.909 115.749C140.781 116.133 140.602 116.458 140.369 116.724C140.103 117.031 139.796 117.257 139.447 117.407C139.098 117.555 138.707 117.63 138.273 117.63C137.913 117.63 137.569 117.561 137.244 117.425C136.917 117.292 136.625 117.094 136.372 116.834C136.124 116.579 135.924 116.267 135.779 115.898C135.63 115.53 135.556 115.117 135.556 114.659C135.556 113.778 135.814 113.055 136.331 112.494C136.846 111.934 137.523 111.653 138.359 111.653C139.154 111.653 139.809 111.919 140.324 112.452C140.84 112.983 141.099 113.692 141.099 114.578" fill="white"/>
<path fill-rule="evenodd" clip-rule="evenodd" d="M151.616 117.459H148.855V117.08C148.944 117.072 149.033 117.065 149.124 117.057C149.214 117.049 149.292 117.036 149.361 117.011C149.47 116.978 149.548 116.918 149.601 116.831C149.653 116.745 149.677 116.634 149.677 116.496V113.582C149.677 113.185 149.587 112.879 149.406 112.662C149.222 112.449 148.996 112.339 148.723 112.339C148.536 112.339 148.36 112.369 148.195 112.426C148.03 112.482 147.878 112.563 147.741 112.666C147.628 112.751 147.536 112.841 147.462 112.937C147.387 113.035 147.33 113.116 147.292 113.182V116.438C147.292 116.573 147.315 116.683 147.361 116.768C147.407 116.854 147.485 116.919 147.597 116.967C147.685 117 147.764 117.026 147.835 117.043C147.905 117.06 147.999 117.072 148.114 117.08V117.459H145.411V117.08C145.5 117.072 145.584 117.065 145.667 117.057C145.75 117.049 145.827 117.036 145.896 117.011C146.002 116.978 146.081 116.918 146.134 116.831C146.186 116.745 146.212 116.634 146.212 116.496V113.582C146.212 113.185 146.12 112.879 145.937 112.662C145.755 112.449 145.526 112.339 145.255 112.339C145.064 112.339 144.889 112.369 144.724 112.429C144.558 112.488 144.408 112.569 144.268 112.672C144.158 112.756 144.063 112.85 143.986 112.956C143.911 113.06 143.851 113.139 143.812 113.193V116.428C143.812 116.557 143.84 116.666 143.894 116.755C143.947 116.842 144.029 116.909 144.135 116.955C144.216 116.993 144.297 117.022 144.382 117.04C144.468 117.058 144.56 117.072 144.664 117.08V117.459H141.91V117.08C141.998 117.072 142.09 117.065 142.183 117.057C142.277 117.049 142.358 117.036 142.427 117.011C142.535 116.978 142.614 116.918 142.667 116.832C142.717 116.745 142.743 116.634 142.743 116.496V112.991C142.743 112.87 142.716 112.76 142.66 112.662C142.605 112.566 142.527 112.482 142.427 112.413C142.355 112.369 142.265 112.333 142.157 112.302C142.05 112.273 141.938 112.256 141.823 112.249V111.871L143.722 111.744L143.802 111.825V112.632H143.843C143.937 112.536 144.055 112.424 144.193 112.294C144.331 112.165 144.46 112.059 144.578 111.98C144.711 111.888 144.879 111.812 145.081 111.751C145.282 111.689 145.5 111.659 145.733 111.659C146.101 111.659 146.417 111.758 146.681 111.954C146.947 112.149 147.137 112.388 147.252 112.666C147.388 112.533 147.51 112.415 147.617 112.314C147.721 112.212 147.861 112.105 148.033 111.99C148.179 111.891 148.349 111.812 148.547 111.751C148.743 111.689 148.962 111.659 149.203 111.659C149.68 111.659 150.059 111.816 150.34 112.128C150.619 112.441 150.759 112.922 150.759 113.571V116.438C150.759 116.573 150.782 116.683 150.828 116.768C150.874 116.854 150.952 116.919 151.064 116.967C151.152 117 151.239 117.026 151.326 117.043C151.411 117.06 151.509 117.072 151.616 117.08V117.459Z" fill="white"/>
<path fill-rule="evenodd" clip-rule="evenodd" d="M161.988 117.459H159.228V117.08C159.317 117.072 159.405 117.065 159.495 117.057C159.586 117.049 159.665 117.036 159.734 117.011C159.842 116.978 159.92 116.918 159.974 116.831C160.024 116.745 160.05 116.634 160.05 116.496V113.582C160.05 113.185 159.96 112.879 159.777 112.662C159.595 112.449 159.368 112.339 159.096 112.339C158.907 112.339 158.733 112.369 158.568 112.426C158.403 112.482 158.251 112.563 158.113 112.666C158.001 112.751 157.909 112.841 157.834 112.937C157.758 113.035 157.703 113.116 157.665 113.182V116.438C157.665 116.573 157.686 116.683 157.734 116.768C157.78 116.854 157.858 116.919 157.969 116.967C158.056 117 158.136 117.026 158.208 117.043C158.278 117.06 158.372 117.072 158.487 117.08V117.459H155.784V117.08C155.873 117.072 155.957 117.065 156.04 117.057C156.123 117.049 156.198 117.036 156.267 117.011C156.375 116.978 156.454 116.918 156.507 116.831C156.557 116.745 156.583 116.634 156.583 116.496V113.582C156.583 113.185 156.493 112.879 156.31 112.662C156.128 112.449 155.899 112.339 155.628 112.339C155.437 112.339 155.261 112.369 155.097 112.429C154.931 112.488 154.779 112.569 154.641 112.672C154.531 112.756 154.436 112.85 154.357 112.956C154.282 113.06 154.224 113.139 154.186 113.193V116.428C154.186 116.557 154.213 116.666 154.267 116.755C154.321 116.842 154.4 116.909 154.508 116.955C154.589 116.993 154.67 117.022 154.755 117.04C154.839 117.058 154.933 117.072 155.037 117.08V117.459H152.283V117.08C152.369 117.072 152.461 117.065 152.556 117.057C152.65 117.049 152.731 117.036 152.8 117.011C152.908 116.978 152.987 116.918 153.038 116.832C153.09 116.745 153.116 116.634 153.116 116.496V112.991C153.116 112.87 153.089 112.76 153.032 112.662C152.977 112.566 152.9 112.482 152.8 112.413C152.727 112.369 152.636 112.333 152.53 112.302C152.423 112.273 152.311 112.256 152.196 112.249V111.871L154.093 111.744L154.173 111.825V112.632H154.215C154.31 112.536 154.426 112.424 154.564 112.294C154.703 112.165 154.831 112.059 154.95 111.98C155.085 111.888 155.252 111.812 155.453 111.751C155.655 111.689 155.873 111.659 156.106 111.659C156.474 111.659 156.79 111.758 157.054 111.954C157.32 112.149 157.508 112.388 157.623 112.666C157.762 112.533 157.883 112.415 157.989 112.314C158.094 112.212 158.232 112.105 158.404 111.99C158.55 111.891 158.722 111.812 158.918 111.751C159.116 111.689 159.335 111.659 159.576 111.659C160.053 111.659 160.432 111.816 160.713 112.128C160.992 112.441 161.13 112.922 161.13 113.571V116.438C161.13 116.573 161.155 116.683 161.199 116.768C161.247 116.854 161.325 116.919 161.437 116.967C161.525 117 161.612 117.026 161.698 117.043C161.784 117.06 161.882 117.072 161.988 117.08V117.459Z" fill="white"/>
<path fill-rule="evenodd" clip-rule="evenodd" d="M167.002 114.59C167.002 114.305 166.973 114.001 166.915 113.681C166.858 113.364 166.772 113.095 166.656 112.872C166.533 112.637 166.373 112.446 166.172 112.302C165.973 112.16 165.729 112.088 165.441 112.088C165.146 112.088 164.893 112.16 164.683 112.305C164.476 112.452 164.304 112.649 164.173 112.902C164.051 113.134 163.965 113.4 163.914 113.697C163.865 113.994 163.839 114.283 163.839 114.561C163.839 114.928 163.87 115.265 163.93 115.577C163.988 115.888 164.084 116.166 164.215 116.409C164.345 116.655 164.509 116.848 164.707 116.985C164.905 117.124 165.149 117.194 165.441 117.194C165.921 117.194 166.301 116.964 166.582 116.503C166.861 116.04 167.002 115.403 167.002 114.59M168.191 114.578C168.191 114.975 168.128 115.366 168.003 115.749C167.875 116.133 167.696 116.458 167.463 116.724C167.197 117.031 166.89 117.257 166.541 117.407C166.192 117.555 165.8 117.63 165.367 117.63C165.005 117.63 164.663 117.561 164.336 117.425C164.011 117.292 163.719 117.094 163.466 116.834C163.218 116.579 163.018 116.267 162.873 115.898C162.724 115.53 162.65 115.117 162.65 114.659C162.65 113.778 162.908 113.055 163.423 112.494C163.94 111.934 164.615 111.653 165.453 111.653C166.248 111.653 166.903 111.919 167.418 112.452C167.934 112.983 168.191 113.692 168.191 114.578" fill="white"/>
<path fill-rule="evenodd" clip-rule="evenodd" d="M175.271 117.459H172.499V117.08C172.587 117.072 172.683 117.065 172.79 117.057C172.894 117.049 172.982 117.036 173.051 117.011C173.158 116.978 173.238 116.918 173.29 116.831C173.341 116.745 173.368 116.634 173.368 116.496V113.594C173.368 113.193 173.272 112.884 173.081 112.666C172.891 112.449 172.661 112.339 172.388 112.339C172.184 112.339 171.997 112.372 171.828 112.435C171.659 112.498 171.511 112.575 171.379 112.666C171.253 112.754 171.15 112.847 171.076 112.95C171.001 113.05 170.948 113.131 170.912 113.193V116.438C170.912 116.568 170.94 116.675 170.994 116.759C171.046 116.845 171.127 116.909 171.234 116.955C171.314 116.993 171.403 117.022 171.495 117.04C171.59 117.058 171.687 117.072 171.787 117.08V117.459H169.008V117.08C169.097 117.072 169.188 117.065 169.283 117.057C169.375 117.049 169.458 117.036 169.527 117.011C169.633 116.978 169.714 116.918 169.765 116.832C169.817 116.745 169.843 116.634 169.843 116.496V113.015C169.843 112.885 169.814 112.766 169.759 112.656C169.703 112.548 169.625 112.461 169.527 112.392C169.453 112.345 169.367 112.313 169.268 112.291C169.168 112.271 169.061 112.256 168.946 112.249V111.871L170.831 111.744L170.912 111.825V112.621H170.941C171.032 112.528 171.147 112.42 171.285 112.291C171.423 112.163 171.554 112.059 171.676 111.98C171.819 111.888 171.986 111.812 172.182 111.751C172.377 111.689 172.6 111.659 172.844 111.659C173.388 111.659 173.792 111.827 174.054 112.165C174.316 112.504 174.448 112.953 174.448 113.513V116.451C174.448 116.585 174.471 116.692 174.517 116.774C174.563 116.855 174.642 116.919 174.754 116.967C174.846 117.004 174.924 117.031 174.991 117.045C175.059 117.06 175.153 117.072 175.271 117.08V117.459Z" fill="white"/>
<path fill-rule="evenodd" clip-rule="evenodd" d="M186.851 114.217C186.758 114.229 186.635 114.248 186.48 114.272C186.325 114.297 186.199 114.332 186.104 114.378C185.989 114.436 185.908 114.517 185.86 114.622C185.811 114.726 185.788 114.85 185.788 114.99V115.621C185.788 116.079 185.791 116.388 185.796 116.547C185.8 116.708 185.808 116.84 185.816 116.942C185.306 117.173 184.799 117.347 184.292 117.469C183.786 117.591 183.291 117.652 182.803 117.652C182.281 117.652 181.779 117.556 181.296 117.361C180.813 117.167 180.391 116.889 180.032 116.53C179.667 116.166 179.379 115.725 179.162 115.205C178.949 114.688 178.84 114.107 178.84 113.466C178.84 112.847 178.944 112.273 179.148 111.744C179.354 111.214 179.644 110.754 180.02 110.366C180.383 109.985 180.818 109.687 181.322 109.476C181.827 109.264 182.365 109.157 182.941 109.157C183.401 109.157 183.801 109.213 184.142 109.323C184.484 109.433 184.785 109.568 185.046 109.723L185.282 109.335H185.74L185.794 112.173H185.322C185.24 111.86 185.141 111.553 185.023 111.249C184.903 110.945 184.749 110.675 184.562 110.432C184.374 110.192 184.143 110.001 183.873 109.858C183.603 109.716 183.28 109.644 182.904 109.644C182.493 109.644 182.126 109.726 181.804 109.893C181.482 110.058 181.201 110.305 180.963 110.634C180.73 110.951 180.549 111.347 180.423 111.821C180.296 112.294 180.233 112.824 180.233 113.408C180.233 113.924 180.296 114.41 180.42 114.866C180.544 115.323 180.725 115.716 180.963 116.049C181.201 116.389 181.5 116.657 181.856 116.852C182.214 117.046 182.617 117.144 183.071 117.144C183.409 117.144 183.717 117.092 183.996 116.988C184.272 116.886 184.47 116.777 184.584 116.663C184.616 116.464 184.633 116.264 184.634 116.061C184.636 115.859 184.637 115.687 184.637 115.546V115.099C184.637 114.94 184.614 114.798 184.571 114.672C184.525 114.549 184.436 114.457 184.298 114.4C184.171 114.344 184.001 114.301 183.783 114.272C183.567 114.245 183.396 114.226 183.274 114.217V113.8H186.851V114.217Z" fill="white"/>
<path fill-rule="evenodd" clip-rule="evenodd" d="M191.687 114.59C191.687 114.305 191.657 114.001 191.6 113.681C191.541 113.364 191.457 113.095 191.34 112.872C191.218 112.637 191.057 112.446 190.857 112.302C190.656 112.16 190.414 112.088 190.125 112.088C189.829 112.088 189.578 112.16 189.368 112.305C189.159 112.452 188.989 112.649 188.858 112.902C188.736 113.134 188.65 113.4 188.599 113.697C188.548 113.994 188.524 114.283 188.524 114.561C188.524 114.928 188.555 115.265 188.613 115.577C188.673 115.888 188.768 116.166 188.9 116.409C189.03 116.655 189.193 116.848 189.391 116.985C189.589 117.124 189.834 117.194 190.125 117.194C190.606 117.194 190.986 116.964 191.267 116.503C191.546 116.04 191.687 115.403 191.687 114.59M192.876 114.578C192.876 114.975 192.813 115.366 192.686 115.749C192.56 116.133 192.379 116.458 192.146 116.724C191.881 117.031 191.574 117.257 191.224 117.407C190.876 117.555 190.485 117.63 190.05 117.63C189.69 117.63 189.346 117.561 189.021 117.425C188.694 117.292 188.404 117.094 188.151 116.834C187.901 116.579 187.703 116.267 187.556 115.898C187.407 115.53 187.333 115.117 187.333 114.659C187.333 113.778 187.591 113.055 188.108 112.494C188.624 111.934 189.3 111.653 190.136 111.653C190.931 111.653 191.588 111.919 192.103 112.452C192.618 112.983 192.876 113.692 192.876 114.578" fill="white"/>
<path fill-rule="evenodd" clip-rule="evenodd" d="M198.035 114.59C198.035 114.305 198.004 114.001 197.947 113.681C197.891 113.364 197.805 113.095 197.688 112.872C197.565 112.637 197.404 112.446 197.205 112.302C197.006 112.16 196.762 112.088 196.473 112.088C196.177 112.088 195.925 112.16 195.715 112.305C195.507 112.452 195.336 112.649 195.206 112.902C195.083 113.134 194.997 113.4 194.947 113.697C194.896 113.994 194.872 114.283 194.872 114.561C194.872 114.928 194.902 115.265 194.961 115.577C195.02 115.888 195.115 116.166 195.247 116.409C195.378 116.655 195.54 116.848 195.738 116.985C195.936 117.124 196.182 117.194 196.473 117.194C196.953 117.194 197.334 116.964 197.615 116.503C197.894 116.04 198.035 115.403 198.035 114.59M199.224 114.578C199.224 114.975 199.161 115.366 199.034 115.749C198.908 116.133 198.727 116.458 198.494 116.724C198.228 117.031 197.921 117.257 197.572 117.407C197.223 117.555 196.832 117.63 196.4 117.63C196.038 117.63 195.695 117.561 195.369 117.425C195.042 117.292 194.752 117.094 194.499 116.834C194.249 116.579 194.051 116.267 193.904 115.898C193.756 115.53 193.681 115.117 193.681 114.659C193.681 113.778 193.939 113.055 194.456 112.494C194.971 111.934 195.648 111.653 196.484 111.653C197.279 111.653 197.935 111.919 198.451 112.452C198.966 112.983 199.224 113.692 199.224 114.578" fill="white"/>
<path fill-rule="evenodd" clip-rule="evenodd" d="M204.17 116.365V113.061C204.138 112.962 204.088 112.855 204.019 112.74C203.95 112.626 203.866 112.521 203.762 112.426C203.651 112.33 203.521 112.252 203.37 112.189C203.223 112.125 203.048 112.093 202.85 112.093C202.619 112.093 202.409 112.152 202.215 112.27C202.022 112.389 201.85 112.56 201.703 112.78C201.56 112.994 201.448 113.267 201.367 113.597C201.284 113.926 201.243 114.292 201.243 114.693C201.243 115.013 201.272 115.305 201.333 115.566C201.395 115.826 201.499 116.07 201.645 116.296C201.778 116.51 201.95 116.681 202.157 116.811C202.366 116.941 202.614 117.005 202.901 117.005C203.206 117.005 203.461 116.939 203.662 116.805C203.863 116.672 204.032 116.524 204.17 116.365V116.365ZM206.25 117.353L204.266 117.48L204.181 117.401V116.874L204.136 116.862C203.937 117.085 203.691 117.265 203.397 117.407C203.105 117.547 202.801 117.618 202.493 117.618C202.171 117.618 201.859 117.546 201.56 117.404C201.26 117.26 200.999 117.059 200.776 116.799C200.551 116.536 200.37 116.219 200.238 115.849C200.107 115.479 200.042 115.07 200.042 114.624C200.042 114.216 200.111 113.828 200.253 113.463C200.394 113.095 200.591 112.774 200.839 112.501C201.072 112.246 201.359 112.041 201.698 111.887C202.036 111.735 202.381 111.659 202.734 111.659C202.998 111.659 203.257 111.691 203.512 111.758C203.766 111.826 203.986 111.911 204.17 112.013V110.046C204.17 109.886 204.142 109.739 204.088 109.608C204.035 109.475 203.96 109.376 203.864 109.307C203.757 109.233 203.613 109.182 203.432 109.148C203.248 109.116 203.051 109.091 202.841 109.078V108.722L205.162 108.595L205.25 108.682V116.29C205.25 116.423 205.276 116.538 205.328 116.631C205.38 116.724 205.455 116.804 205.555 116.868C205.627 116.913 205.735 116.943 205.871 116.955C206.009 116.967 206.135 116.973 206.25 116.976V117.353Z" fill="white"/>
</svg>
